<?xml version="1.0" encoding="UTF-8"?>
<!DOCTYPE svg PUBLIC "-//W3C//DTD SVG 1.1//EN" "http://www.w3.org/Graphics/SVG/1.1/DTD/svg11.dtd">
<svg xmlns="http://www.w3.org/2000/svg" version="1.1" width="1254px" height="1254px" style="shape-rendering:geometricPrecision; text-rendering:geometricPrecision; image-rendering:optimizeQuality; fill-rule:evenodd; clip-rule:evenodd" xmlns:xlink="http://www.w3.org/1999/xlink">
<g><path style="opacity:1" fill="#f9f9f9" d="M -0.5,-0.5 C 417.5,-0.5 835.5,-0.5 1253.5,-0.5C 1253.5,417.5 1253.5,835.5 1253.5,1253.5C 835.5,1253.5 417.5,1253.5 -0.5,1253.5C -0.5,835.5 -0.5,417.5 -0.5,-0.5 Z"/></g>
<g><path style="opacity:1" fill="#0e0e0e" d="M 486.5,408.5 C 486.5,473.5 486.5,538.5 486.5,603.5C 497.5,603.5 508.5,603.5 519.5,603.5C 524.807,607.202 524.807,611.036 519.5,615C 508.839,615.5 498.172,615.667 487.5,615.5C 487.667,677.501 487.5,739.501 487,801.5C 484.226,816.274 475.726,826.108 461.5,831C 351.167,831.667 240.833,831.667 130.5,831C 117.498,826.664 109.331,817.83 106,804.5C 105.5,741.501 105.333,678.501 105.5,615.5C 94.495,615.667 83.495,615.5 72.5,615C 68.7084,612.947 67.5418,609.781 69,605.5C 69.8159,604.177 70.9826,603.511 72.5,603.5C 83.5,603.5 94.5,603.5 105.5,603.5C 105.5,538.167 105.5,472.833 105.5,407.5C 106.924,405.485 107.59,403.152 107.5,400.5C 112.134,389.162 120.468,381.996 132.5,379C 241.5,378.333 350.5,378.333 459.5,379C 474.999,382.995 483.999,392.828 486.5,408.5 Z"/></g>
<g><path style="opacity:1" fill="#f8f8f8" d="M 471.5,410.5 C 471.5,474.5 471.5,538.5 471.5,602.5C 459.167,602.5 446.833,602.5 434.5,602.5C 428.919,594.809 421.586,592.643 412.5,596C 410.316,598.016 408.316,600.183 406.5,602.5C 390.51,603.666 374.51,603.833 358.5,603C 352.037,591.402 342.703,588.402 330.5,594C 327.882,596.106 325.882,598.606 324.5,601.5C 310.245,602.482 295.912,602.816 281.5,602.5C 279.443,595.227 275.11,589.727 268.5,586C 250.761,580.038 238.428,585.704 231.5,603C 218.82,603.833 206.154,603.666 193.5,602.5C 187.056,590.185 177.389,586.685 164.5,592C 160.504,594.494 157.837,597.994 156.5,602.5C 144.5,602.5 132.5,602.5 120.5,602.5C 120.5,538.5 120.5,474.5 120.5,410.5C 122.122,402.04 127.122,396.54 135.5,394C 241.833,393.333 348.167,393.333 454.5,394C 463.993,395.661 469.66,401.161 471.5,410.5 Z"/></g>
<g><path style="opacity:1" fill="#5e5e5f" d="M 107.5,400.5 C 107.59,403.152 106.924,405.485 105.5,407.5C 105.41,404.848 106.076,402.515 107.5,400.5 Z"/></g>
<g><path style="opacity:1" fill="#0f0f0f" d="M 252.5,447.5 C 259.191,446.429 264.358,448.762 268,454.5C 269.973,466.182 265.139,472.015 253.5,472C 245.462,468.757 242.629,462.923 245,454.5C 247.015,451.588 249.515,449.255 252.5,447.5 Z"/></g>
<g><path style="opacity:1" fill="#101010" d="M 336.5,450.5 C 346.543,449.378 351.043,453.712 350,463.5C 347.081,469.025 342.581,470.858 336.5,469C 331.78,465.702 330.28,461.202 332,455.5C 333.025,453.313 334.525,451.646 336.5,450.5 Z"/></g>
<g><path style="opacity:1" fill="#0f0f0f" d="M 416.5,450.5 C 425.987,449.819 430.154,454.153 429,463.5C 426.367,468.732 422.201,470.565 416.5,469C 411.268,466.367 409.435,462.201 411,456.5C 412.36,453.977 414.193,451.977 416.5,450.5 Z"/></g>
<g><path style="opacity:1" fill="#0f0f0f" d="M 169.5,447.5 C 182.528,447.015 187.695,453.015 185,465.5C 180.227,472.533 174.06,474.033 166.5,470C 159.186,461.384 160.186,453.884 169.5,447.5 Z"/></g>
<g><path style="opacity:1" fill="#0f0f0f" d="M 898.5,456.5 C 917.323,455.817 925.823,464.817 924,483.5C 919.795,494.856 911.628,500.023 899.5,499C 883.089,492.786 878.589,481.62 886,465.5C 889.299,461.118 893.466,458.118 898.5,456.5 Z"/></g>
<g><path style="opacity:1" fill="#cdcdcd" d="M 650.5,429.5 C 651.499,531.332 651.833,633.332 651.5,735.5C 654.5,735.5 657.5,735.5 660.5,735.5C 657.375,736.479 654.042,736.813 650.5,736.5C 650.5,634.167 650.5,531.833 650.5,429.5 Z"/></g>
<g><path style="opacity:1" fill="#69686a" d="M 486.5,408.5 C 487.499,472.998 487.832,537.665 487.5,602.5C 498.346,602.172 509.013,602.506 519.5,603.5C 508.5,603.5 497.5,603.5 486.5,603.5C 486.5,538.5 486.5,473.5 486.5,408.5 Z"/></g>
<g><path style="opacity:1" fill="#0f0f0f" d="M 871.5,482.5 C 872.675,482.281 873.675,482.614 874.5,483.5C 876.27,486.673 877.103,490.006 877,493.5C 868.333,499.5 861,506.833 855,515.5C 845.05,530.394 836.384,546.061 829,562.5C 828.439,563.022 827.772,563.355 827,563.5C 824.295,562.061 821.462,561.061 818.5,560.5C 827.619,533.222 842.286,509.389 862.5,489C 865.567,486.812 868.567,484.645 871.5,482.5 Z"/></g>
<g><path style="opacity:1" fill="#111111" d="M 933.5,482.5 C 937.217,483.527 940.55,485.361 943.5,488C 963.4,506.519 977.4,528.519 985.5,554C 982.705,555.3 980.039,556.8 977.5,558.5C 969.703,542.909 960.87,527.909 951,513.5C 944.961,505.794 937.961,499.127 930,493.5C 930.823,489.798 931.989,486.132 933.5,482.5 Z"/></g>
<g><path style="opacity:1" fill="#888888" d="M 105.5,407.5 C 105.5,472.833 105.5,538.167 105.5,603.5C 94.5,603.5 83.5,603.5 72.5,603.5C 82.9869,602.506 93.6536,602.172 104.5,602.5C 104.168,537.331 104.501,472.331 105.5,407.5 Z"/></g>
<g><path style="opacity:1" fill="#0f0f0f" d="M 250.5,520.5 C 271.876,520.283 279.376,530.283 273,550.5C 263.31,561.505 252.977,562.172 242,552.5C 233.902,539.008 236.735,528.341 250.5,520.5 Z"/></g>
<g><path style="opacity:1" fill="#0e0f0f" d="M 167.5,521.5 C 188.319,520.142 196.152,529.475 191,549.5C 185.257,557.776 177.424,560.61 167.5,558C 155.32,550.113 152.82,539.947 160,527.5C 162.114,524.879 164.614,522.879 167.5,521.5 Z"/></g>
<g><path style="opacity:1" fill="#111111" d="M 335.5,525.5 C 349.49,524.325 355.99,530.658 355,544.5C 350.297,553.531 343.13,556.365 333.5,553C 323.664,543.037 324.33,533.87 335.5,525.5 Z"/></g>
<g><path style="opacity:1" fill="#111111" d="M 414.5,527.5 C 422.808,525.459 428.974,528.126 433,535.5C 433.764,548.069 427.931,553.903 415.5,553C 404.038,544.789 403.705,536.289 414.5,527.5 Z"/></g>
<g><path style="opacity:1" fill="#0f0f0f" d="M 990.5,560.5 C 1011.21,561.913 1017.71,572.246 1010,591.5C 1002.13,599.37 993.296,600.536 983.5,595C 976.472,588.053 974.639,579.887 978,570.5C 981.191,565.837 985.358,562.503 990.5,560.5 Z"/></g>
<g><path style="opacity:1" fill="#0f0f0f" d="M 806.5,563.5 C 823.538,563.368 831.372,571.701 830,588.5C 823.844,600.887 814.344,604.387 801.5,599C 794.221,593.164 791.721,585.664 794,576.5C 795.08,574.004 796.414,571.67 798,569.5C 800.988,567.601 803.821,565.601 806.5,563.5 Z"/></g>
<g><path style="opacity:1" fill="#949494" d="M 471.5,410.5 C 472.499,474.665 472.832,538.998 472.5,603.5C 459.656,603.829 446.989,603.495 434.5,602.5C 446.833,602.5 459.167,602.5 471.5,602.5C 471.5,538.5 471.5,474.5 471.5,410.5 Z"/></g>
<g><path style="opacity:1" fill="#717172" d="M 120.5,410.5 C 120.5,474.5 120.5,538.5 120.5,602.5C 132.5,602.5 144.5,602.5 156.5,602.5C 144.345,603.495 132.011,603.829 119.5,603.5C 119.168,538.998 119.501,474.665 120.5,410.5 Z"/></g>
<g><path style="opacity:1" fill="#838384" d="M 324.5,601.5 C 317.699,602.831 310.533,603.497 303,603.5C 295.659,603.5 288.492,603.166 281.5,602.5C 295.912,602.816 310.245,602.482 324.5,601.5 Z"/></g>
<g><path style="opacity:1" fill="#888989" d="M 594.5,601.5 C 595.043,601.56 595.376,601.893 595.5,602.5C 577.179,603.5 558.845,603.833 540.5,603.5C 558.5,602.833 576.5,602.167 594.5,601.5 Z"/></g>
<g><path style="opacity:1" fill="#121213" d="M 1006.5,603.5 C 1011.36,603.854 1014.19,606.521 1015,611.5C 1015.7,617.758 1012.87,620.258 1006.5,619C 1003.43,615.703 1001.93,611.87 1002,607.5C 1003.4,605.93 1004.9,604.596 1006.5,603.5 Z"/></g>
<g><path style="opacity:1" fill="#121212" d="M 540.5,603.5 C 558.845,603.833 577.179,603.5 595.5,602.5C 595.376,601.893 595.043,601.56 594.5,601.5C 588.665,595.824 582.831,590.157 577,584.5C 572.965,579.312 573.965,575.645 580,573.5C 582.032,573.858 583.866,574.692 585.5,576C 595.054,585.554 604.554,595.054 614,604.5C 615.422,607.03 615.755,609.697 615,612.5C 604.5,623 594,633.5 583.5,644C 577.166,645.329 574.332,642.829 575,636.5C 581.833,629.667 588.667,622.833 595.5,616C 577.167,615.667 558.833,615.333 540.5,615C 536.519,611.047 536.519,607.214 540.5,603.5 Z"/></g>
<g><path style="opacity:1" fill="#f9f9f9" d="M 434.5,615.5 C 446.833,615.5 459.167,615.5 471.5,615.5C 471.5,676.833 471.5,738.167 471.5,799.5C 470.458,808.088 465.791,813.588 457.5,816C 349.5,816.667 241.5,816.667 133.5,816C 127.608,813.108 123.441,808.608 121,802.5C 120.5,740.168 120.333,677.834 120.5,615.5C 132.5,615.5 144.5,615.5 156.5,615.5C 158.911,624.305 164.745,628.972 174,629.5C 183.559,629.777 190.059,625.444 193.5,616.5C 206.483,615.501 219.483,615.168 232.5,615.5C 234.288,624.23 239.288,630.397 247.5,634C 263.901,637.966 275.235,632.133 281.5,616.5C 295.5,615.167 309.5,615.167 323.5,616.5C 330.136,627.794 339.469,630.627 351.5,625C 354.626,622.55 356.959,619.55 358.5,616C 374.51,615.167 390.51,615.334 406.5,616.5C 411.821,625.321 419.154,627.487 428.5,623C 431.153,620.866 433.153,618.366 434.5,615.5 Z"/></g>
<g><path style="opacity:1" fill="#100f0f" d="M 1018.5,630.5 C 1024.91,629.909 1028.25,632.909 1028.5,639.5C 1028.14,643.356 1025.97,645.356 1022,645.5C 1017.65,644.17 1015.15,641.17 1014.5,636.5C 1014.87,633.744 1016.2,631.744 1018.5,630.5 Z"/></g>
<g><path style="opacity:1" fill="#0f0f0f" d="M 796.5,603.5 C 800.235,604.301 803.901,605.301 807.5,606.5C 794.027,639.79 776.194,670.456 754,698.5C 748.583,704.589 742.583,709.922 736,714.5C 732.731,712.252 730.731,709.252 730,705.5C 752.996,683.179 771.329,657.512 785,628.5C 788.847,620.141 792.681,611.807 796.5,603.5 Z"/></g>
<g><path style="opacity:1" fill="#121212" d="M 1033.5,655.5 C 1041.39,655.609 1044.89,659.609 1044,667.5C 1036.41,672.839 1031.58,670.839 1029.5,661.5C 1029.87,658.744 1031.2,656.744 1033.5,655.5 Z"/></g>
<g><path style="opacity:1" fill="#0f0f0f" d="M 171.5,661.5 C 188.653,663.167 194.82,672.167 190,688.5C 184.257,696.058 176.757,698.558 167.5,696C 157.206,689.487 154.706,680.653 160,669.5C 163.15,665.689 166.983,663.023 171.5,661.5 Z"/></g>
<g><path style="opacity:1" fill="#0f0f0f" d="M 251.5,661.5 C 270.935,661.755 277.768,671.088 272,689.5C 266.516,696.551 259.35,699.051 250.5,697C 239.841,691.034 236.675,682.201 241,670.5C 243.84,666.673 247.34,663.673 251.5,661.5 Z"/></g>
<g><path style="opacity:1" fill="#111111" d="M 336.5,665.5 C 352.636,665.772 357.803,673.439 352,688.5C 342.333,696.273 334.333,694.939 328,684.5C 325.655,675.722 328.489,669.389 336.5,665.5 Z"/></g>
<g><path style="opacity:1" fill="#111111" d="M 415.5,666.5 C 427.668,665.175 433.502,670.508 433,682.5C 426.662,694.165 418.662,695.499 409,686.5C 405.408,677.834 407.574,671.168 415.5,666.5 Z"/></g>
<g><path style="opacity:1" fill="#8e8e8e" d="M 434.5,615.5 C 446.989,614.505 459.656,614.171 472.5,614.5C 472.832,676.336 472.499,738.002 471.5,799.5C 471.5,738.167 471.5,676.833 471.5,615.5C 459.167,615.5 446.833,615.5 434.5,615.5 Z"/></g>
<g><path style="opacity:1" fill="#101010" d="M 1052.5,678.5 C 1059.47,678.375 1062.97,681.708 1063,688.5C 1058.52,695.102 1053.85,695.102 1049,688.5C 1048.33,686.5 1048.33,684.5 1049,682.5C 1050.38,681.295 1051.54,679.962 1052.5,678.5 Z"/></g>
<g><path style="opacity:1" fill="#101010" d="M 1074.5,697.5 C 1082.06,696.904 1085.89,700.237 1086,707.5C 1081.52,714.072 1076.86,714.072 1072,707.5C 1070.86,703.579 1071.69,700.246 1074.5,697.5 Z"/></g>
<g><path style="opacity:1" fill="#0f0f0f" d="M 706.5,707.5 C 718.165,705.097 726.665,709.097 732,719.5C 733.886,737.614 725.719,745.781 707.5,744C 694.233,737.405 691.066,727.572 698,714.5C 700.441,711.546 703.275,709.213 706.5,707.5 Z"/></g>
<g><path style="opacity:1" fill="#626164" d="M 1153.5,712.5 C 1150.48,712.704 1147.48,713.037 1144.5,713.5C 1147.37,711.518 1150.37,711.185 1153.5,712.5 Z"/></g>
<g><path style="opacity:1" fill="#121212" d="M 1100.5,711.5 C 1107.54,711.394 1111.04,714.727 1111,721.5C 1110.53,722.931 1109.7,724.097 1108.5,725C 1099.78,727.261 1095.94,724.094 1097,715.5C 1097.69,713.65 1098.86,712.316 1100.5,711.5 Z"/></g>
<g><path style="opacity:1" fill="#121212" d="M 1153.5,712.5 C 1156.26,712.798 1158.76,713.798 1161,715.5C 1162.07,718.553 1161.07,720.553 1158,721.5C 1155.43,720.422 1152.77,719.755 1150,719.5C 1147.38,719.925 1144.88,720.425 1142.5,721C 1138.34,717.373 1139.01,714.873 1144.5,713.5C 1147.48,713.037 1150.48,712.704 1153.5,712.5 Z"/></g>
<g><path style="opacity:1" fill="#141414" d="M 1134.5,719.5 C 1139.91,721.232 1140.74,724.232 1137,728.5C 1136.67,731.833 1136.33,735.167 1136,738.5C 1132.31,740.439 1129.98,739.439 1129,735.5C 1121.37,732.357 1120.54,727.857 1126.5,722C 1128.83,721.667 1131.17,721.333 1133.5,721C 1134.06,720.617 1134.39,720.117 1134.5,719.5 Z"/></g>
<g><path style="opacity:1" fill="#131313" d="M 1164.5,720.5 C 1168.58,720.399 1171.08,722.399 1172,726.5C 1172.67,730.5 1172.67,734.5 1172,738.5C 1170.08,741.033 1168.08,741.033 1166,738.5C 1166,733.642 1164.84,729.142 1162.5,725C 1163.04,723.415 1163.71,721.915 1164.5,720.5 Z"/></g>
<g><path style="opacity:1" fill="#161616" d="M 1135.5,741.5 C 1139.61,744.058 1143.94,746.391 1148.5,748.5C 1150.32,752.109 1149.32,754.442 1145.5,755.5C 1140.73,754.232 1136.89,751.566 1134,747.5C 1133.25,745.16 1133.75,743.16 1135.5,741.5 Z"/></g>
<g><path style="opacity:1" fill="#141414" d="M 1162.5,742.5 C 1167.12,741.408 1168.96,743.075 1168,747.5C 1164.21,752.3 1159.38,754.8 1153.5,755C 1152.41,752.936 1152.24,750.769 1153,748.5C 1156.79,747.362 1159.96,745.362 1162.5,742.5 Z"/></g>
<g><path style="opacity:1" fill="#111111" d="M 251.5,744.5 C 262.702,742.813 268.202,747.48 268,758.5C 265.421,766.708 259.921,769.541 251.5,767C 242.202,759.6 242.202,752.1 251.5,744.5 Z"/></g>
<g><path style="opacity:1" fill="#0f0f0f" d="M 168.5,744.5 C 182.21,743.367 187.377,749.367 184,762.5C 179.945,767.316 174.778,768.816 168.5,767C 160.535,759.469 160.535,751.969 168.5,744.5 Z"/></g>
<g><path style="opacity:1" fill="#141415" d="M 416.5,746.5 C 427.416,746.236 431.249,751.236 428,761.5C 423.357,766.453 418.357,766.787 413,762.5C 410.924,759.783 410.257,756.783 411,753.5C 412.666,751.004 414.5,748.671 416.5,746.5 Z"/></g>
<g><path style="opacity:1" fill="#131313" d="M 336.5,746.5 C 346.534,745.393 351.034,749.726 350,759.5C 347.081,765.025 342.581,766.858 336.5,765C 329.87,758.835 329.87,752.668 336.5,746.5 Z"/></g>
<g><path style="opacity:1" fill="#f2f2f2" d="M 655.5,748.5 C 658.305,749.319 661.305,749.819 664.5,750C 656.851,751.959 653.518,756.792 654.5,764.5C 830.64,764.001 1006.64,764.501 1182.5,766C 1005.83,766.5 829.167,766.667 652.5,766.5C 652.819,761.637 652.486,756.97 651.5,752.5C 651.167,749.5 652.5,748.167 655.5,748.5 Z"/></g>
<g><path style="opacity:1" fill="#d6d6d6" d="M 668.5,746.5 C 664.455,748.177 660.122,748.844 655.5,748.5C 652.5,748.167 651.167,749.5 651.5,752.5C 651.5,757.5 651.5,762.5 651.5,767.5C 828.334,767.167 1005,767.5 1181.5,768.5C 1004.5,768.5 827.5,768.5 650.5,768.5C 650.5,761.5 650.5,754.5 650.5,747.5C 656.529,747.575 662.529,747.241 668.5,746.5 Z"/></g>
<g><path style="opacity:1" fill="#000000" d="M 1181.5,769.5 C 1182.49,769.328 1183.16,769.662 1183.5,770.5C 1183.57,770.938 1183.4,771.272 1183,771.5C 1005.57,770.667 828.07,770.167 650.5,770C 827.5,769.5 1004.5,769.333 1181.5,769.5 Z"/></g>
<g><path style="opacity:1" fill="#101010" d="M 650.5,429.5 C 650.5,531.833 650.5,634.167 650.5,736.5C 654.042,736.813 657.375,736.479 660.5,735.5C 661.833,735.5 663.167,735.5 664.5,735.5C 667.495,735.706 670.162,735.04 672.5,733.5C 677.929,732.476 683.262,731.143 688.5,729.5C 688.993,732.812 689.993,735.979 691.5,739C 691.167,739.5 690.833,740 690.5,740.5C 683.335,743.133 676.002,745.133 668.5,746.5C 662.529,747.241 656.529,747.575 650.5,747.5C 650.5,754.5 650.5,761.5 650.5,768.5C 827.5,768.5 1004.5,768.5 1181.5,768.5C 1181.5,768.833 1181.5,769.167 1181.5,769.5C 1004.5,769.333 827.5,769.5 650.5,770C 828.07,770.167 1005.57,770.667 1183,771.5C 1183.4,771.272 1183.57,770.938 1183.5,770.5C 1186.28,773.51 1185.94,776.344 1182.5,779C 1002.5,779.667 822.5,779.667 642.5,779C 642,778.5 641.5,778 641,777.5C 640.333,661.167 640.333,544.833 641,428.5C 644.579,425.627 647.745,425.96 650.5,429.5 Z"/></g>
<g><path style="opacity:1" fill="#6a6b6b" d="M 672.5,733.5 C 670.162,735.04 667.495,735.706 664.5,735.5C 666.905,734.232 669.572,733.565 672.5,733.5 Z"/></g>
</svg>
