<?xml version="1.0" encoding="UTF-8"?>
<svg id="Layer_1" xmlns="http://www.w3.org/2000/svg" version="1.1" xmlns:xlink="http://www.w3.org/1999/xlink" viewBox="0 0 1254 1254">
  <!-- Generator: Adobe Illustrator 29.3.1, SVG Export Plug-In . SVG Version: 2.1.0 Build 151)  -->
  <defs>
    <style>
      .st0 {
        fill: #6aff8f;
        fill-rule: evenodd;
      }
    </style>
  </defs>
  <path class="st0" d="M601.6,322.3c42.1-1.7,61.1,20.4,57.1,66.5-9.4,28.1-27.7,40.6-54.8,38.2-36.7-15.3-46.8-42.8-30.2-82.5,7.4-10.8,16.8-18.2,28-22.2Z"/>
  <path class="st0" d="M46.7,255.9c2.2,250.6,2.9,501.8,2.2,753.4h20.1c-6.9,2.5-14.5,3.2-22.4,2.5V255.9Z"/>
  <path class="st0" d="M541.2,386.4c2.7-.5,4.9.2,6.7,2.5,4,7.9,5.8,16,5.6,24.6-19.5,14.8-35.8,32.7-49.2,54.2-22.4,36.7-41.6,75.3-58.2,115.7-1.3,1.2-2.7,2.2-4.5,2.5-6-3.4-12.3-5.9-19-7.4,20.4-67.2,53.3-125.8,98.5-176,6.9-5.4,13.7-10.8,20.1-16Z"/>
  <path class="st0" d="M680,386.4c8.3,2.5,15.7,7.1,22.4,13.5,44.5,45.5,75.9,99.7,94,162.5-6.3,3.2-12.3,6.9-17.9,11.1-17.5-38.4-37.1-75.3-59.3-110.8-13.4-19-29.1-35.5-47-49.2,1.8-9.1,4.5-18.2,7.8-27.1Z"/>
  <path class="st0" d="M807.5,578.4c46.3,3.4,60.9,28.8,43.6,76.3-17.7,19.5-37.4,22.2-59.3,8.6-15.7-17-19.9-37.2-12.3-60.3,7.2-11.6,16.6-19.7,28-24.6Z"/>
  <path class="st0" d="M395.8,585.8c38-.2,55.7,20.2,52.6,61.6-13.9,30.5-35.1,39.1-63.8,25.9-16.3-14.3-21.9-32.7-16.8-55.4,2.5-6.2,5.4-11.8,9-17.2,6.7-4.7,13-9.6,19-14.8Z"/>
  <path class="st0" d="M843.3,684.3c11,1,17.2,7.4,19,19.7,1.6,15.5-4.7,21.7-19,18.5-6.9-8.1-10.3-17.5-10.1-28.3,3.1-3.9,6.5-7.1,10.1-9.8Z"/>
  <path class="st0" d="M870.2,750.7c14.3-1.5,21.9,5.9,22.4,22.2-.9,9.6-5.6,14.5-14.5,14.8-9.6-3.2-15.2-10.6-16.8-22.2.9-6.9,3.8-11.8,9-14.8Z"/>
  <path class="st0" d="M373.4,684.3c8.3,2,16.6,4.4,24.6,7.4-30.2,82-70,157.6-119.7,226.5-12.1,15-25.5,28.1-40.3,39.4-7.4-5.4-11.9-12.8-13.4-22.2,51.5-54.9,92.4-118.2,123.1-189.6,8.5-20.7,17.2-41.1,25.7-61.6Z"/>
  <path class="st0" d="M903.8,812.3c17.7.2,25.5,10.1,23.5,29.5-17,13-27.7,8.1-32.4-14.8.9-6.9,3.8-11.8,9-14.8Z"/>
  <path class="st0" d="M946.3,868.9c15.7-.2,23.5,7.9,23.5,24.6-10.1,16.2-20.6,16.2-31.3,0-1.6-4.9-1.6-9.8,0-14.8,3.1-3,5.6-6.2,7.8-9.8Z"/>
  <path class="st0" d="M995.5,915.7c17-1.5,25.5,6.6,25.7,24.6-10.1,16.2-20.4,16.2-31.3,0-2.5-9.6-.7-18,5.6-24.6Z"/>
  <path class="st0" d="M172,940.3c26.2-5.9,45.2,3.9,57.1,29.5,4.3,44.6-14.1,64.8-54.8,60.3-29.8-16.2-36.7-40.4-21.3-72.6,5.4-7.4,11.9-13,19-17.2Z"/>
  <path class="st0" d="M1172.3,952.6c-6.7.5-13.4,1.2-20.1,2.5,6.5-4.9,13.2-5.7,20.1-2.5Z"/>
  <path class="st0" d="M1053.7,950.2c15.7-.2,23.5,7.9,23.5,24.6-1.1,3.4-2.9,6.4-5.6,8.6-19.5,5.7-28.2-2.2-25.7-23.4,1.6-4.4,4.3-7.9,7.8-9.8Z"/>
  <path class="st0" d="M1172.3,952.6c6.3.7,11.9,3.2,16.8,7.4,2.5,7.6,0,12.6-6.7,14.8-5.8-2.7-11.6-4.2-17.9-4.9-5.8,1-11.4,2.2-16.8,3.7-9.4-8.9-7.8-15,4.5-18.5,6.7-1.2,13.4-2,20.1-2.5Z"/>
  <path class="st0" d="M1129.8,969.9c12.1,4.2,13.9,11.6,5.6,22.2-.7,8.1-1.6,16.5-2.2,24.6-8.3,4.7-13.4,2.2-15.7-7.4-17-7.6-19-18.7-5.6-33.2,5.1-.7,10.5-1.7,15.7-2.5,1.3-1,2-2.2,2.2-3.7Z"/>
  <path class="st0" d="M1196.9,972.3c9.2-.2,14.8,4.7,16.8,14.8,1.6,9.8,1.6,19.7,0,29.5-4.3,6.2-8.7,6.2-13.4,0,0-12.1-2.7-23.1-7.8-33.2,1.1-3.9,2.7-7.6,4.5-11.1Z"/>
  <path class="st0" d="M1132,1024c9.2,6.4,18.8,12.1,29.1,17.2,4,8.9,1.8,14.5-6.7,17.2-10.7-3.2-19.2-9.6-25.7-19.7-1.8-5.7-.4-10.6,3.4-14.8Z"/>
  <path class="st0" d="M1192.4,1026.5c10.3-2.7,14.5,1.5,12.3,12.3-8.5,11.8-19.2,18-32.4,18.5-2.5-5.2-2.9-10.3-1.1-16,8.5-2.7,15.7-7.6,21.3-14.8Z"/>
  <path class="st0" d="M57.9,1041.3c6.3,2,13,3.2,20.1,3.7-17,4.9-24.6,16.7-22.4,35.7,394.1-1.2,787.9,0,1181.6,3.7-395.4,1.2-790.6,1.7-1186,1.2.7-12.1,0-23.4-2.2-34.5-.7-7.4,2.2-10.6,9-9.8Z"/>
  <path class="st0" d="M87,1036.3c-9,4.2-18.8,5.7-29.1,4.9-6.7-.7-9.6,2.5-9,9.8v36.9c395.6-.7,791.1,0,1186,2.5H46.7v-51.7c13.4,0,26.9-.7,40.3-2.5Z"/>
  <path class="st0" d="M1234.9,1093c2.2-.5,3.8.5,4.5,2.5,0,1,0,2-1.1,2.5-397-2-794.2-3.2-1191.6-3.7,396.1-1.2,792.2-1.7,1188.3-1.2Z"/>
  <path class="st0" d="M46.7,255.9v755.9c7.8.7,15.4,0,22.4-2.5h9c6.7.5,12.8-1.2,17.9-4.9,12.1-2.5,24.2-5.9,35.8-9.8,1.1,8.1,3.4,16,6.7,23.4-.7,1.2-1.6,2.5-2.2,3.7-16.1,6.4-32.4,11.3-49.2,14.8-13.4,1.7-26.9,2.7-40.3,2.5v51.7h1188.3v2.5c-396.1-.5-792.2,0-1188.3,1.2,397.4.5,794.6,1.7,1191.6,3.7.9-.5,1.3-1.5,1.1-2.5,6.3,7.4,5.4,14.3-2.2,20.9-402.8,1.7-805.6,1.7-1208.4,0l-3.4-3.7c-1.6-286.3-1.6-572.9,0-859.3,8.1-7.1,15-6.2,21.3,2.5Z"/>
  <path class="st0" d="M95.9,1004.3c-5.1,3.7-11.2,5.4-17.9,4.9,5.4-3.2,11.4-4.7,17.9-4.9Z"/>
</svg>