<?xml version="1.0" encoding="UTF-8"?>
<!DOCTYPE svg PUBLIC "-//W3C//DTD SVG 1.1//EN" "http://www.w3.org/Graphics/SVG/1.1/DTD/svg11.dtd">
<svg xmlns="http://www.w3.org/2000/svg" version="1.1" width="1254px" height="1254px" style="shape-rendering:geometricPrecision; text-rendering:geometricPrecision; image-rendering:optimizeQuality; fill-rule:evenodd; clip-rule:evenodd" xmlns:xlink="http://www.w3.org/1999/xlink">
<g><path style="opacity:1" fill="#f9f9f9" d="M -0.5,-0.5 C 417.5,-0.5 835.5,-0.5 1253.5,-0.5C 1253.5,417.5 1253.5,835.5 1253.5,1253.5C 835.5,1253.5 417.5,1253.5 -0.5,1253.5C -0.5,835.5 -0.5,417.5 -0.5,-0.5 Z"/></g>
<g><path style="opacity:1" fill="#d8d9d9" d="M 711.5,259.5 C 711.5,278.833 711.5,298.167 711.5,317.5C 685.833,317.5 660.167,317.5 634.5,317.5C 659.661,316.502 684.995,316.169 710.5,316.5C 710.17,297.326 710.503,278.326 711.5,259.5 Z"/></g>
<g><path style="opacity:1" fill="#131313" d="M 273.5,415.5 C 298.694,415.192 310.194,427.525 308,452.5C 298.235,471.978 283.402,477.145 263.5,468C 251.397,457.213 248.563,444.379 255,429.5C 259.848,423.003 266.015,418.336 273.5,415.5 Z"/></g>
<g><path style="opacity:1" fill="#111111" d="M 224.5,488.5 C 225.486,506.09 225.819,523.757 225.5,541.5C 207.907,542.652 190.24,542.818 172.5,542C 171.84,533.242 171.507,524.409 171.5,515.5C 171.507,506.591 171.84,497.758 172.5,489C 189.83,488.5 207.163,488.333 224.5,488.5 Z"/></g>
<g><path style="opacity:1" fill="#131313" d="M 346.5,491.5 C 374.134,490.796 384.634,503.796 378,530.5C 369.001,543.943 356.834,547.776 341.5,542C 329.204,532.908 325.371,521.075 330,506.5C 333.798,499.531 339.298,494.531 346.5,491.5 Z"/></g>
<g><path style="opacity:1" fill="#a6a5a6" d="M 224.5,488.5 C 225.832,496.974 226.498,505.807 226.5,515C 226.5,524.006 226.166,532.84 225.5,541.5C 225.819,523.757 225.486,506.09 224.5,488.5 Z"/></g>
<g><path style="opacity:1" fill="#141414" d="M 533.5,586.5 C 592.664,587.499 651.998,587.832 711.5,587.5C 711.5,569.5 711.5,551.5 711.5,533.5C 714.387,520.11 722.387,511.276 735.5,507C 850.543,506.008 965.543,506.341 1080.5,508C 1092.72,512.286 1099.89,520.786 1102,533.5C 1102.67,578.833 1102.67,624.167 1102,669.5C 1099.76,684.033 1091.6,693.033 1077.5,696.5C 963.484,695.828 849.317,695.162 735,694.5C 733.93,694.528 733.097,694.861 732.5,695.5C 720.804,691.291 713.97,682.958 712,670.5C 711.5,647.836 711.333,625.169 711.5,602.5C 651.999,601.169 592.332,601.169 532.5,602.5C 532.624,603.107 532.957,603.44 533.5,603.5C 568.761,687.693 603.761,772.026 638.5,856.5C 662.824,857.5 687.158,857.833 711.5,857.5C 711.333,839.497 711.5,821.497 712,803.5C 716.132,792.701 723.632,785.201 734.5,781C 849.167,780.333 963.833,780.333 1078.5,781C 1091.6,785.266 1099.6,794.1 1102.5,807.5C 1102.81,854.19 1102.48,900.857 1101.5,947.5C 1098.93,956.954 1093.26,963.954 1084.5,968.5C 1081.29,969.85 1077.96,971.016 1074.5,972C 962.833,972.667 851.167,972.667 739.5,972C 734.828,971.387 730.494,969.887 726.5,967.5C 718.636,961.648 713.636,953.981 711.5,944.5C 711.5,920.5 711.5,896.5 711.5,872.5C 685.833,872.5 660.167,872.5 634.5,872.5C 631.36,871.871 628.86,870.204 627,867.5C 590.586,779.414 554.086,691.414 517.5,603.5C 490.173,602.667 462.839,602.167 435.5,602C 430.619,597.625 430.285,592.958 434.5,588C 461.839,587.833 489.173,587.333 516.5,586.5C 553.19,498.641 590.023,410.641 627,322.5C 628.857,319.8 631.357,318.134 634.5,317.5C 660.167,317.5 685.833,317.5 711.5,317.5C 711.5,298.167 711.5,278.833 711.5,259.5C 714.947,244.554 724.281,235.387 739.5,232C 851.167,231.333 962.833,231.333 1074.5,232C 1089.81,234.65 1099.31,243.483 1103,258.5C 1103.17,281.333 1103.33,304.167 1103.5,327C 1103.65,351.214 1103.15,375.381 1102,399.5C 1098.83,412 1091,419.833 1078.5,423C 964.5,423.667 850.5,423.667 736.5,423C 724.467,419.968 716.634,412.468 713,400.5C 711.542,377.886 711.042,355.219 711.5,332.5C 687.167,332.5 662.833,332.5 638.5,332.5C 603.452,417.247 568.452,501.914 533.5,586.5 Z"/></g>
<g><path style="opacity:1" fill="#f7f8f8" d="M 1075.5,682.5 C 1074.5,682.5 1073.5,682.5 1072.5,682.5C 961.166,682.667 849.833,682.5 738.5,682C 732.746,679.698 728.912,675.531 727,669.5C 726.333,623.833 726.333,578.167 727,532.5C 729.883,527.95 733.716,524.45 738.5,522C 850.833,521.333 963.167,521.333 1075.5,522C 1080.64,524.475 1084.47,528.308 1087,533.5C 1087.67,578.5 1087.67,623.5 1087,668.5C 1085.13,674.864 1081.29,679.531 1075.5,682.5 Z"/></g>
<g><path style="opacity:1" fill="#000000" d="M 883.5,518.5 C 946.793,519.326 1010.13,519.826 1073.5,520C 962.5,520.667 851.5,520.667 740.5,520C 788.335,519.833 836.002,519.333 883.5,518.5 Z"/></g>
<g><path style="opacity:1" fill="#f7f7f7" d="M 741.5,246.5 C 853.223,246.006 964.89,246.506 1076.5,248C 1082.06,250.562 1085.89,254.728 1088,260.5C 1088.98,306.212 1088.65,351.879 1087,397.5C 1084.34,403.492 1079.84,407.325 1073.5,409C 961.444,409.994 849.444,409.66 737.5,408C 732.279,405.714 728.779,401.881 727,396.5C 726.333,350.833 726.333,305.167 727,259.5C 729.532,252.501 734.366,248.167 741.5,246.5 Z"/></g>
<g><path style="opacity:1" fill="#8b8b8b" d="M 919.5,356.5 C 919.082,357.222 918.416,357.722 917.5,358C 912.316,358.816 907.316,358.65 902.5,357.5C 908.212,357.687 913.879,357.354 919.5,356.5 Z"/></g>
<g><path style="opacity:1" fill="#6a6b6b" d="M 792.5,356.5 C 797.13,357.229 801.797,357.563 806.5,357.5C 804.866,358.161 803.033,358.494 801,358.5C 797.85,358.64 795.017,357.973 792.5,356.5 Z"/></g>
<g><path style="opacity:1" fill="#131313" d="M 1007.5,299.5 C 1033.06,297.487 1045.56,309.154 1045,334.5C 1039.75,351.407 1028.25,359.241 1010.5,358C 992.78,352.729 984.946,340.895 987,322.5C 989.804,311.198 996.637,303.532 1007.5,299.5 Z"/></g>
<g><path style="opacity:1" fill="#131313" d="M 919.5,356.5 C 913.879,357.354 908.212,357.687 902.5,357.5C 890.045,354.21 882.545,346.21 880,333.5C 878.777,317.452 885.61,306.286 900.5,300C 918.494,297.076 930.994,303.909 938,320.5C 940.562,337.044 934.395,349.044 919.5,356.5 Z"/></g>
<g><path style="opacity:1" fill="#131313" d="M 806.5,357.5 C 801.797,357.563 797.13,357.229 792.5,356.5C 772.575,345.88 768.075,330.546 779,310.5C 790.797,298.369 804.297,296.203 819.5,304C 834.27,316.607 836.437,331.107 826,347.5C 820.937,353.615 814.437,356.948 806.5,357.5 Z"/></g>
<g><path style="opacity:1" fill="#121212" d="M 273.5,547.5 C 275.144,547.286 276.644,547.62 278,548.5C 288.554,566.44 298.721,584.607 308.5,603C 308.355,603.772 308.022,604.439 307.5,605C 285.927,605.826 264.427,605.66 243,604.5C 243.427,600.619 244.76,596.953 247,593.5C 255.661,578.02 264.495,562.687 273.5,547.5 Z"/></g>
<g><path style="opacity:1" fill="#111111" d="M 988.5,576.5 C 1006.17,576.333 1023.84,576.5 1041.5,577C 1042.49,594.757 1042.83,612.59 1042.5,630.5C 1024.5,630.5 1006.5,630.5 988.5,630.5C 988.5,612.5 988.5,594.5 988.5,576.5 Z"/></g>
<g><path style="opacity:1" fill="#111111" d="M 827.5,576.5 C 828.486,594.09 828.819,611.757 828.5,629.5C 810.674,630.497 792.674,630.83 774.5,630.5C 774.5,612.5 774.5,594.5 774.5,576.5C 792.167,576.5 809.833,576.5 827.5,576.5 Z"/></g>
<g><path style="opacity:1" fill="#121212" d="M 883.5,576.5 C 886.641,577.321 889.975,577.821 893.5,578C 906.829,578.5 920.163,578.667 933.5,578.5C 933.5,595.5 933.5,612.5 933.5,629.5C 916.833,629.5 900.167,629.5 883.5,629.5C 883.667,612.83 883.5,596.163 883,579.5C 882.5,596.497 882.333,613.497 882.5,630.5C 881.338,613.005 881.171,595.338 882,577.5C 882.383,576.944 882.883,576.611 883.5,576.5 Z"/></g>
<g><path style="opacity:1" fill="#b0b0b0" d="M 711.5,533.5 C 711.5,551.5 711.5,569.5 711.5,587.5C 651.998,587.832 592.664,587.499 533.5,586.5C 592.5,586.5 651.5,586.5 710.5,586.5C 710.17,568.659 710.503,550.992 711.5,533.5 Z"/></g>
<g><path style="opacity:1" fill="#131313" d="M 173.5,649.5 C 168.13,649.608 162.797,649.275 157.5,648.5C 145.31,642.8 139.81,633.133 141,619.5C 144.163,605.671 152.83,598.337 167,597.5C 186.486,599.985 195.153,610.985 193,630.5C 189.911,640.424 183.411,646.757 173.5,649.5 Z"/></g>
<g><path style="opacity:1" fill="#4f4f4f" d="M 711.5,602.5 C 651.998,602.168 592.664,602.501 533.5,603.5C 532.957,603.44 532.624,603.107 532.5,602.5C 592.332,601.169 651.999,601.169 711.5,602.5 Z"/></g>
<g><path style="opacity:1" fill="#b7b6b7" d="M 827.5,576.5 C 828.832,584.974 829.498,593.807 829.5,603C 829.5,612.006 829.166,620.84 828.5,629.5C 828.819,611.757 828.486,594.09 827.5,576.5 Z"/></g>
<g><path style="opacity:1" fill="#141414" d="M 348.5,609.5 C 365.744,609.175 382.91,609.508 400,610.5C 400.825,627.741 400.658,644.907 399.5,662C 382.259,662.825 365.093,662.658 348,661.5C 347.182,644.093 347.348,626.76 348.5,609.5 Z"/></g>
<g><path style="opacity:1" fill="#0b0a0b" d="M 883.5,576.5 C 900.503,576.333 917.503,576.5 934.5,577C 935.16,585.758 935.493,594.591 935.5,603.5C 935.493,612.409 935.16,621.242 934.5,630C 917.17,630.5 899.837,630.667 882.5,630.5C 882.333,613.497 882.5,596.497 883,579.5C 883.5,596.163 883.667,612.83 883.5,629.5C 900.167,629.5 916.833,629.5 933.5,629.5C 933.5,612.5 933.5,595.5 933.5,578.5C 920.163,578.667 906.829,578.5 893.5,578C 889.975,577.821 886.641,577.321 883.5,576.5 Z"/></g>
<g><path style="opacity:1" fill="#464645" d="M 157.5,648.5 C 162.797,649.275 168.13,649.608 173.5,649.5C 171.527,650.163 169.361,650.496 167,650.5C 163.523,650.672 160.356,650.006 157.5,648.5 Z"/></g>
<g><path style="opacity:1" fill="#151515" d="M 223.5,658.5 C 240.744,658.175 257.91,658.508 275,659.5C 275.825,676.741 275.658,693.907 274.5,711C 257.259,711.825 240.093,711.658 223,710.5C 222.182,693.093 222.348,675.76 223.5,658.5 Z"/></g>
<g><path style="opacity:1" fill="#080808" d="M 1072.5,682.5 C 1073.5,682.5 1074.5,682.5 1075.5,682.5C 1076.24,682.369 1076.91,682.536 1077.5,683C 1075.75,683.471 1074.09,684.138 1072.5,685C 1017.5,685.167 962.5,685.333 907.5,685.5C 851.443,685.661 795.443,685.161 739.5,684C 850.667,683.833 961.667,683.333 1072.5,682.5 Z"/></g>
<g><path style="opacity:1" fill="#070707" d="M 1077.5,696.5 C 964.001,697.666 850.334,697.833 736.5,697C 734.942,696.79 733.609,696.29 732.5,695.5C 733.097,694.861 733.93,694.528 735,694.5C 849.317,695.162 963.484,695.828 1077.5,696.5 Z"/></g>
<g><path style="opacity:1" fill="#131313" d="M 329.5,696.5 C 332.642,696.799 334.809,698.466 336,701.5C 345.08,717.996 354.414,734.329 364,750.5C 364.667,751.833 364.667,753.167 364,754.5C 342.242,755.494 320.409,755.827 298.5,755.5C 298.338,753.473 298.505,751.473 299,749.5C 309.178,731.806 319.345,714.139 329.5,696.5 Z"/></g>
<g><path style="opacity:1" fill="#f6f6f6" d="M 740.5,794.5 C 851.501,794.333 962.501,794.5 1073.5,795C 1079.61,797.441 1084.11,801.608 1087,807.5C 1087.98,853.546 1087.65,899.546 1086,945.5C 1083.34,951.492 1078.84,955.325 1072.5,957C 960.777,957.994 849.111,957.66 737.5,956C 732.755,953.375 729.255,949.541 727,944.5C 726.333,898.5 726.333,852.5 727,806.5C 729.85,800.514 734.35,796.514 740.5,794.5 Z"/></g>
<g><path style="opacity:1" fill="#121212" d="M 799.5,842.5 C 801.144,842.286 802.644,842.62 804,843.5C 814.183,861.677 824.35,879.843 834.5,898C 834.355,898.772 834.022,899.439 833.5,900C 811.927,900.826 790.427,900.66 769,899.5C 768.333,898.167 768.333,896.833 769,895.5C 779.178,877.806 789.345,860.139 799.5,842.5 Z"/></g>
<g><path style="opacity:1" fill="#121212" d="M 1012.5,842.5 C 1013.87,842.343 1015.21,842.51 1016.5,843C 1027.35,861.025 1037.68,879.359 1047.5,898C 1047.36,898.772 1047.02,899.439 1046.5,900C 1024.93,900.826 1003.43,900.66 982,899.5C 981.333,898.167 981.333,896.833 982,895.5C 992.394,877.945 1002.56,860.279 1012.5,842.5 Z"/></g>
<g><path style="opacity:1" fill="#121212" d="M 905.5,842.5 C 909.17,842.327 911.67,843.993 913,847.5C 922.08,863.996 931.414,880.329 941,896.5C 941.684,897.784 941.517,898.951 940.5,900C 918.594,900.827 896.76,900.66 875,899.5C 874.333,898.5 874.333,897.5 875,896.5C 885.444,878.608 895.61,860.608 905.5,842.5 Z"/></g>
<g><path style="opacity:1" fill="#d8d8d8" d="M 1102.5,807.5 C 1103.66,852.998 1103.83,898.665 1103,944.5C 1102.77,945.737 1102.27,946.737 1101.5,947.5C 1102.48,900.857 1102.81,854.19 1102.5,807.5 Z"/></g>
<g><path style="opacity:1" fill="#c0c1c1" d="M 634.5,872.5 C 660.167,872.5 685.833,872.5 711.5,872.5C 711.5,896.5 711.5,920.5 711.5,944.5C 710.502,921.006 710.169,897.339 710.5,873.5C 684.995,873.831 659.661,873.498 634.5,872.5 Z"/></g>
<g><path style="opacity:1" fill="#f1f1f1" d="M 726.5,967.5 C 730.494,969.887 734.828,971.387 739.5,972C 851.167,972.667 962.833,972.667 1074.5,972C 1077.96,971.016 1081.29,969.85 1084.5,968.5C 1085.23,969.708 1085.57,971.041 1085.5,972.5C 1082.84,972.162 1080.51,972.829 1078.5,974.5C 964.501,975.667 850.501,975.833 736.5,975C 735.421,974.044 734.255,973.211 733,972.5C 732.577,973.956 731.744,974.456 730.5,974C 729.667,972.5 728.5,971.333 727,970.5C 726.517,969.552 726.351,968.552 726.5,967.5 Z"/></g>
<g><path style="opacity:1" fill="#030202" d="M 746.5,969.5 C 838.732,970.389 931.065,970.389 1023.5,969.5C 1039.83,969.946 1056.17,970.446 1072.5,971C 962.167,971.667 851.833,971.667 741.5,971C 743.382,970.802 745.048,970.302 746.5,969.5 Z"/></g>
</svg>
