<?xml version="1.0" encoding="UTF-8"?>
<svg id="Layer_1" xmlns="http://www.w3.org/2000/svg" version="1.1" xmlns:xlink="http://www.w3.org/1999/xlink" viewBox="0 0 1254 1254">
  <!-- Generator: Adobe Illustrator 29.3.1, SVG Export Plug-In . SVG Version: 2.1.0 Build 151)  -->
  <defs>
    <style>
      .st0 {
        fill: #f6f6f6;
      }

      .st0, .st1, .st2, .st3 {
        fill-rule: evenodd;
      }

      .st1 {
        fill: #15d4ff;
      }

      .st2 {
        fill: #f7f8f8;
      }

      .st3 {
        fill: #f7f7f7;
      }
    </style>
  </defs>
  <path class="st1" d="M741.1,96.2v74.1h-98.4c32.2-1.3,64.5-1.7,97.1-1.3-.4-24.5,0-48.8,1.3-72.8Z"/>
  <path class="st1" d="M181.4,295.5c32.2-.4,46.9,15.4,44.1,47.3-12.5,24.9-31.4,31.5-56.9,19.8-15.5-13.8-19.1-30.2-10.9-49.2,6.2-8.3,14.1-14.3,23.6-17.9Z"/>
  <path class="st1" d="M118.8,388.8c1.3,22.5,1.7,45.1,1.3,67.7-22.5,1.5-45.1,1.7-67.7.6-.8-11.2-1.3-22.5-1.3-33.9,0-11.4.4-22.7,1.3-33.9,22.1-.6,44.3-.9,66.4-.6Z"/>
  <path class="st1" d="M274.7,392.6c35.3-.9,48.7,15.7,40.3,49.8-11.5,17.2-27,22.1-46.6,14.7-15.7-11.6-20.6-26.7-14.7-45.4,4.9-8.9,11.9-15.3,21.1-19.2Z"/>
  <path class="st1" d="M118.8,388.8c1.7,10.8,2.6,22.1,2.6,33.9,0,11.5-.4,22.8-1.3,33.9.4-22.7,0-45.2-1.3-67.7Z"/>
  <path class="st1" d="M513.7,514c75.6,1.3,151.4,1.7,227.5,1.3v-69c3.7-17.1,13.9-28.4,30.7-33.9,147-1.3,294-.8,440.9,1.3,15.6,5.5,24.8,16.3,27.5,32.6.9,57.9.9,115.9,0,173.8-2.9,18.6-13.3,30.1-31.3,34.5-145.7-.9-291.6-1.7-437.7-2.6-1.4,0-2.4.5-3.2,1.3-14.9-5.4-23.7-16-26.2-31.9-.6-29-.9-57.9-.6-86.9-76-1.7-152.3-1.7-228.7,0,.2.8.6,1.2,1.3,1.3,45.1,107.6,89.8,215.3,134.2,323.3,31.1,1.3,62.2,1.7,93.3,1.3-.2-23,0-46,.6-69,5.3-13.8,14.9-23.4,28.8-28.8,146.5-.9,293.1-.9,439.6,0,16.7,5.5,27,16.7,30.7,33.9.4,59.7,0,119.3-1.3,178.9-3.3,12.1-10.5,21-21.7,26.8-4.1,1.7-8.4,3.2-12.8,4.5-142.7.9-285.4.9-428.1,0-6-.8-11.5-2.7-16.6-5.8-10-7.5-16.4-17.3-19.2-29.4v-92h-98.4c-4-.8-7.2-2.9-9.6-6.4-46.5-112.6-93.2-225-139.9-337.3-34.9-1.1-69.8-1.7-104.8-1.9-6.2-5.6-6.7-11.6-1.3-17.9,34.9-.2,69.9-.9,104.8-1.9,46.9-112.3,94-224.7,141.2-337.3,2.4-3.5,5.6-5.6,9.6-6.4h98.4v-74.1c4.4-19.1,16.3-30.8,35.8-35.1,142.7-.9,285.4-.9,428.1,0,19.6,3.4,31.7,14.7,36.4,33.9.2,29.2.4,58.4.6,87.5.2,30.9-.4,61.8-1.9,92.6-4.1,16-14.1,26-30,30-145.7.9-291.3.9-437,0-15.4-3.9-25.4-13.5-30-28.8-1.9-28.9-2.5-57.9-1.9-86.9h-93.3c-44.8,108.3-89.5,216.5-134.2,324.6Z"/>
  <path class="st2" d="M1206.3,636.7h-3.8c-142.3.2-284.5,0-426.8-.6-7.4-2.9-12.3-8.3-14.7-16-.9-58.4-.9-116.7,0-175.1,3.7-5.8,8.6-10.3,14.7-13.4,143.5-.9,287.1-.9,430.6,0,6.6,3.2,11.5,8.1,14.7,14.7.9,57.5.9,115,0,172.5-2.4,8.1-7.3,14.1-14.7,17.9Z"/>
  <path class="st1" d="M960.9,427.1c80.9,1.1,161.8,1.7,242.8,1.9-141.8.9-283.7.9-425.5,0,61.1-.2,122-.9,182.7-1.9Z"/>
  <path class="st3" d="M779.5,79.5c142.8-.6,285.5,0,428.1,1.9,7.1,3.3,12,8.6,14.7,16,1.3,58.4.8,116.8-1.3,175.1-3.4,7.7-9.1,12.6-17.3,14.7-143.2,1.3-286.3.8-429.4-1.3-6.7-2.9-11.1-7.8-13.4-14.7-.9-58.4-.9-116.7,0-175.1,3.2-8.9,9.4-14.5,18.5-16.6Z"/>
  <path class="st1" d="M1006.9,220.1c-.5.9-1.4,1.6-2.6,1.9-6.6,1-13,.8-19.2-.6,7.3.2,14.5-.2,21.7-1.3Z"/>
  <path class="st1" d="M844.6,220.1c5.9.9,11.9,1.4,17.9,1.3-2.1.8-4.4,1.3-7,1.3-4,.2-7.6-.7-10.9-2.6Z"/>
  <path class="st1" d="M1119.4,147.3c32.7-2.6,48.6,12.3,47.9,44.7-6.7,21.6-21.4,31.6-44.1,30-22.6-6.7-32.7-21.9-30-45.4,3.6-14.4,12.3-24.2,26.2-29.4Z"/>
  <path class="st1" d="M1006.9,220.1c-7.2,1.1-14.4,1.5-21.7,1.3-15.9-4.2-25.5-14.4-28.8-30.7-1.6-20.5,7.2-34.8,26.2-42.8,23-3.7,39,5,47.9,26.2,3.3,21.1-4.6,36.5-23.6,46Z"/>
  <path class="st1" d="M862.5,221.4c-6,0-12-.3-17.9-1.3-25.5-13.6-31.2-33.2-17.3-58.8,15.1-15.5,32.3-18.3,51.8-8.3,18.9,16.1,21.6,34.6,8.3,55.6-6.5,7.8-14.8,12.1-24.9,12.8Z"/>
  <path class="st1" d="M181.4,464.2c2.1-.3,4,.2,5.8,1.3,13.5,22.9,26.5,46.1,39,69.6-.2,1-.6,1.8-1.3,2.6-27.6,1.1-55,.8-82.4-.6.5-5,2.2-9.6,5.1-14.1,11.1-19.8,22.4-39.4,33.9-58.8Z"/>
  <path class="st1" d="M1095.1,501.2c22.6-.2,45.2,0,67.7.6,1.3,22.7,1.7,45.5,1.3,68.4h-69v-69Z"/>
  <path class="st1" d="M889.4,501.2c1.3,22.5,1.7,45.1,1.3,67.7-22.8,1.3-45.8,1.7-69,1.3v-69h67.7Z"/>
  <path class="st1" d="M960.9,501.2c4,1,8.3,1.7,12.8,1.9,17,.6,34.1.9,51.1.6v65.2h-63.9c.2-21.3,0-42.6-.6-63.9-.6,21.7-.9,43.4-.6,65.2-1.5-22.4-1.7-44.9-.6-67.7.5-.7,1.1-1.1,1.9-1.3Z"/>
  <path class="st1" d="M741.1,446.3v69c-76,.4-151.9,0-227.5-1.3h226.2c-.4-22.8,0-45.4,1.3-67.7Z"/>
  <path class="st1" d="M53.7,594.5c-6.9.1-13.7-.3-20.4-1.3-15.6-7.3-22.6-19.6-21.1-37.1,4-17.7,15.1-27,33.2-28.1,24.9,3.2,36,17.2,33.2,42.2-3.9,12.7-12.3,20.8-24.9,24.3Z"/>
  <path class="st1" d="M741.1,534.5c-76-.4-151.9,0-227.5,1.3-.7,0-1.1-.5-1.3-1.3,76.5-1.7,152.7-1.7,228.7,0Z"/>
  <path class="st1" d="M889.4,501.2c1.7,10.8,2.6,22.1,2.6,33.9,0,11.5-.4,22.8-1.3,33.9.4-22.7,0-45.2-1.3-67.7Z"/>
  <path class="st1" d="M277.3,543.4c22-.4,44,0,65.8,1.3,1.1,22,.8,44-.6,65.8-22,1.1-44,.8-65.8-.6-1-22.2-.8-44.4.6-66.4Z"/>
  <path class="st1" d="M960.9,501.2c21.7-.2,43.5,0,65.2.6.8,11.2,1.3,22.5,1.3,33.9,0,11.4-.4,22.7-1.3,33.9-22.1.6-44.3.9-66.4.6-.2-21.7,0-43.5.6-65.2.6,21.3.9,42.6.6,63.9h63.9v-65.2c-17,.2-34.1,0-51.1-.6-4.5-.2-8.8-.9-12.8-1.9Z"/>
  <path class="st1" d="M33.2,593.2c6.8,1,13.6,1.4,20.4,1.3-2.5.8-5.3,1.3-8.3,1.3-4.4.2-8.5-.6-12.1-2.6Z"/>
  <path class="st1" d="M117.5,606c22-.4,44,0,65.8,1.3,1.1,22,.8,44-.6,65.8-22,1.1-44,.8-65.8-.6-1-22.2-.8-44.4.6-66.4Z"/>
  <path class="st1" d="M1202.4,636.7h3.8c.9-.2,1.8,0,2.6.6-2.2.6-4.4,1.5-6.4,2.6-70.3.2-140.6.4-210.8.6-71.6.2-143.2-.4-214.7-1.9,142.1-.2,283.9-.9,425.5-1.9Z"/>
  <path class="st1" d="M1208.8,654.6c-145,1.5-290.3,1.7-435.7.6-2-.3-3.7-.9-5.1-1.9.8-.8,1.8-1.2,3.2-1.3,146.1.8,292,1.7,437.7,2.6Z"/>
  <path class="st1" d="M253,654.6c4,.4,6.8,2.5,8.3,6.4,11.6,21.1,23.5,42,35.8,62.6.9,1.7.9,3.4,0,5.1-27.8,1.3-55.7,1.7-83.7,1.3-.2-2.6,0-5.1.6-7.7,13-22.6,26-45.2,39-67.7Z"/>
  <path class="st0" d="M778.2,779.8c141.8-.2,283.7,0,425.5.6,7.8,3.1,13.6,8.4,17.3,16,1.3,58.8.8,117.6-1.3,176.3-3.4,7.7-9.1,12.6-17.3,14.7-142.8,1.3-285.5.8-428.1-1.3-6.1-3.4-10.5-8.3-13.4-14.7-.9-58.8-.9-117.6,0-176.3,3.6-7.6,9.4-12.8,17.3-15.3Z"/>
  <path class="st1" d="M853.6,841.1c2.1-.3,4,.2,5.8,1.3,13,23.2,26,46.4,39,69.6-.2,1-.6,1.8-1.3,2.6-27.6,1.1-55,.8-82.4-.6-.9-1.7-.9-3.4,0-5.1,13-22.6,26-45.2,39-67.7Z"/>
  <path class="st1" d="M1125.8,841.1c1.8-.2,3.5,0,5.1.6,13.9,23,27.1,46.5,39.6,70.3-.2,1-.6,1.8-1.3,2.6-27.6,1.1-55,.8-82.4-.6-.9-1.7-.9-3.4,0-5.1,13.3-22.4,26.3-45,39-67.7Z"/>
  <path class="st1" d="M989,841.1c4.7-.2,7.9,1.9,9.6,6.4,11.6,21.1,23.5,42,35.8,62.6.9,1.6.7,3.1-.6,4.5-28,1.1-55.9.8-83.7-.6-.9-1.3-.9-2.6,0-3.8,13.3-22.9,26.3-45.9,39-69Z"/>
  <path class="st1" d="M1240.8,796.4c1.5,58.1,1.7,116.5.6,175.1-.3,1.6-.9,2.9-1.9,3.8,1.3-59.6,1.7-119.2,1.3-178.9Z"/>
  <path class="st1" d="M642.7,879.5h98.4v92c-1.3-30-1.7-60.3-1.3-90.7-32.6.4-65,0-97.1-1.3Z"/>
  <path class="st1" d="M760.3,1000.9c5.1,3.1,10.6,5,16.6,5.8,142.7.9,285.4.9,428.1,0,4.4-1.3,8.7-2.7,12.8-4.5.9,1.5,1.4,3.2,1.3,5.1-3.4-.4-6.4.4-8.9,2.6-145.7,1.5-291.3,1.7-437,.6-1.4-1.2-2.9-2.3-4.5-3.2-.5,1.9-1.6,2.5-3.2,1.9-1.1-1.9-2.6-3.4-4.5-4.5-.6-1.2-.8-2.5-.6-3.8Z"/>
  <path class="st1" d="M785.9,1003.4c117.9,1.1,235.8,1.1,354,0,20.9.6,41.7,1.2,62.6,1.9-141,.9-282,.9-423,0,2.4-.3,4.5-.9,6.4-1.9Z"/>
</svg>