<?xml version="1.0" encoding="UTF-8"?>
<svg id="Layer_1" xmlns="http://www.w3.org/2000/svg" version="1.1" viewBox="0 0 1000 1000">
  <!-- Generator: Adobe Illustrator 29.3.1, SVG Export Plug-In . SVG Version: 2.1.0 Build 151)  -->
  <defs>
    <style>
      .st0 {
        fill: #0b1020;
      }

      .st1 {
        fill: #f8fafc;
      }
    </style>
  </defs>
  <rect class="st0" width="1000" height="1000" rx="177.9" ry="177.9"/>
  <g>
    <path class="st1" d="M583.3,484.9v111.4h178.1c-45.5,106.3-144,176.3-249.7,177.9-142,2.2-275-119.5-275-275,0-159.3,139.6-273.4,275-275,123.9-1.4,205.1,91.8,217.9,107.1,31.7-30.9,63.3-61.8,95-92.7-30.6-32.6-94.8-91.6-194.1-121.5-57.7-17.3-104.6-18-118.7-17.9-14.9,0-30.2,1-46,2.9-36.9,3.8-72.5,12.7-105.8,26-80.9,30.6-158.2,86.6-204.9,172.3-20.5,37.7-31.7,74.8-37.7,106.9-7.2,29.8-11,60.8-11,92.7,0,219.3,180.4,399.8,399.7,400,4.4.3,8.9.5,13.3.6,74.1,2.1,185.3-18.9,271.9-104.9,75.7-75.3,95.9-164,102-199.4v-111.4h-310Z"/>
    <path class="st1" d="M518.5,400c-63.1,9-109,62.8-108.1,122.2.8,52.2,37.4,99.5,90.5,114.9-4.1-2.8-62.8-43.7-61.3-116.4,1.1-51.3,31.7-98.1,78.9-120.6Z"/>
    <path class="st1" d="M341.4,506.5c-2.1,72,49.3,143.1,127.9,170.8-63-36.1-101.1-102.2-96.9-169.7,5.4-85.9,78.6-160.9,175-170.4-112.7-7.7-203.4,76.7-206,169.3Z"/>
    <path class="st1" d="M305.4,508.4c-.7-109.6,82.1-208.2,196.9-227.9-129.5,1.3-231.4,106.9-230.2,226,1.1,106,83.8,201.4,196.9,218.7-97-31.3-162.9-119.8-163.5-216.8Z"/>
  </g>
</svg>