<?xml version="1.0" encoding="UTF-8"?>
<svg id="Layer_1" xmlns="http://www.w3.org/2000/svg" version="1.1" xmlns:xlink="http://www.w3.org/1999/xlink" viewBox="0 0 1000 1000">
  <!-- Generator: Adobe Illustrator 29.3.1, SVG Export Plug-In . SVG Version: 2.1.0 Build 151)  -->
  <defs>
    <style>
      .st0 {
        mask: url(#mask);
      }

      .st1 {
        fill: #081b4c;
      }

      .st2 {
        fill: #0b9fda;
      }
    </style>
    <mask id="mask" x="109.6" y="99.2" width="781.6" height="801.6" maskUnits="userSpaceOnUse">
      <image width="1435" height="1351" transform="translate(309.8 302.4) scale(.2)" xlink:href="GIMaP Logo_colored-1.png"/>
    </mask>
  </defs>
  <g>
    <path class="st1" d="M580.8,484.9v111.4h178.1c-45.5,106.3-144,176.3-249.7,177.9-142,2.2-275-119.5-275-275,0-159.3,139.6-273.4,275-275,123.9-1.4,205.1,91.8,217.9,107.1,31.7-30.9,63.3-61.8,95-92.7-30.6-32.6-94.8-91.6-194.1-121.5-57.7-17.3-104.6-18-118.7-17.9-14.9,0-30.2,1-46,2.9-36.9,3.8-72.5,12.7-105.8,26-80.9,30.6-158.2,86.6-204.9,172.3-20.5,37.7-31.7,74.8-37.7,106.9-7.2,29.8-11,60.8-11,92.7,0,219.3,180.4,399.8,399.7,400,4.4.3,8.9.5,13.3.6,74.1,2.1,185.3-18.9,271.9-104.9,75.7-75.3,95.9-164,102-199.4v-111.4h-310Z"/>
    <path class="st1" d="M516,400c-63.1,9-109,62.8-108.1,122.2.8,52.2,37.4,99.5,90.5,114.9-4.1-2.8-62.8-43.7-61.3-116.4,1.1-51.3,31.7-98.1,78.9-120.6Z"/>
    <path class="st1" d="M338.9,506.5c-2.1,72,49.3,143.1,127.9,170.8-63-36.1-101.1-102.2-96.9-169.7,5.4-85.9,78.6-160.9,175-170.4-112.7-7.7-203.4,76.7-206,169.3Z"/>
    <path class="st1" d="M302.9,508.4c-.7-109.6,82.1-208.2,196.9-227.9-129.5,1.3-231.4,106.9-230.2,226,1.1,106,83.8,201.4,196.9,218.7-97-31.3-162.9-119.8-163.5-216.8Z"/>
  </g>
  <g class="st0">
    <path class="st2" d="M891.1,484.9v111.4c-6.1,35.4-26.3,124.1-102,199.4-86.6,86.1-197.9,107.1-271.9,104.9-181.7-5.2-408.1-157.2-407.7-401.4.5-256.7,251.1-400,400-400s68.3,2.8,118.7,17.9c99.3,29.8,163.5,88.9,194.1,121.5-31.7,30.9-63.3,61.8-95,92.7-12.8-15.2-94-108.5-217.9-107.1-135.4,1.6-275,115.7-275,275,0,155.5,133,277.2,275,275,105.7-1.6,204.2-71.6,249.7-177.9h-178.1v-111.4h310ZM516.3,400c-63.1,9-109,62.8-108.1,122.2.8,52.2,37.4,99.5,90.5,114.9-4.1-2.8-62.8-43.7-61.3-116.4,1.1-51.3,31.7-98.1,78.9-120.6ZM339.3,506.5c-2.1,72,49.3,143.1,127.9,170.8-63-36.1-101.1-102.2-96.9-169.7,5.4-85.9,78.6-160.9,175-170.4-112.7-7.7-203.4,76.7-206,169.3ZM303.3,508.4c-.7-109.6,82.1-208.2,196.9-227.9-129.5,1.3-231.4,106.9-230.2,226,1.1,106,83.8,201.4,196.9,218.7-97-31.3-162.9-119.8-163.5-216.8Z"/>
  </g>
</svg>