<?xml version="1.0" encoding="UTF-8"?>
<svg id="Layer_1" xmlns="http://www.w3.org/2000/svg" version="1.1" xmlns:xlink="http://www.w3.org/1999/xlink" viewBox="0 0 1254 1254">
  <!-- Generator: Adobe Illustrator 29.3.1, SVG Export Plug-In . SVG Version: 2.1.0 Build 151)  -->
  <defs>
    <style>
      .st0 {
        opacity: .3;
      }

      .st1 {
        opacity: .8;
      }

      .st2 {
        opacity: .2;
      }

      .st3 {
        opacity: .5;
      }

      .st4 {
        fill: #f4ff0a;
        fill-rule: evenodd;
      }

      .st5 {
        opacity: .7;
      }
    </style>
  </defs>
  <g class="st2">
    <path class="st4" d="M1010.9,1180.9c20.3-3,29.3,5.4,26.9,25.1-10.7,14.3-21.5,14.3-32.2,0-2.1-9.3-.4-17.7,5.4-25.1Z"/>
  </g>
  <g class="st2">
    <path class="st4" d="M817.4,1173.8c23.9-1.8,35.2,9,34,32.2-13.2,17.3-27.6,18.5-43,3.6-4.1-14-1.1-26,9-35.8Z"/>
  </g>
  <g class="st2">
    <path class="st4" d="M616.8,1170.2c31-4.2,44.8,8.9,41.2,39.4-18.6,23.6-36.5,23.6-53.7,0-4.8-16.4-.6-29.6,12.5-39.4Z"/>
  </g>
  <g class="st2">
    <path class="st4" d="M419.7,1173.8c26.4-1.6,36.6,10.3,30.5,35.8-15.4,15-29.8,13.8-43-3.6-2.4-6-2.4-11.9,0-17.9,4.9-4.3,9.1-9.1,12.5-14.3Z"/>
  </g>
  <g class="st2">
    <path class="st4" d="M226.2,1180.9c19.1-1.8,28.1,6.6,26.9,25.1-9.7,12.5-20.4,13.7-32.2,3.6-3.2-10.7-1.4-20.3,5.4-28.7Z"/>
  </g>
  <g class="st2">
    <path class="st4" d="M39.9,998.2c26,.2,33.1,11.5,21.5,34-22.4,8.6-32.6.9-30.5-23.3,3.7-3.1,6.7-6.7,9-10.7Z"/>
  </g>
  <g class="st2">
    <path class="st4" d="M1197.2,998.2c23.3-3.6,32.2,6,26.9,28.7-11,13.9-21.7,13.9-32.2,0-3.2-10.7-1.4-20.3,5.4-28.7Z"/>
  </g>
  <g class="st0">
    <path class="st4" d="M1007.3,983.9c39-1.1,52.7,16.9,41.2,53.7-22.3,20.9-41.4,18.5-57.3-7.2-2.4-9.6-2.4-19.1,0-28.7,6.1-5.5,11.5-11.5,16.1-17.9Z"/>
  </g>
  <g class="st0">
    <path class="st4" d="M222.7,983.9c34-2.4,48.9,13.1,44.8,46.6-9.8,18.1-24.7,24.7-44.8,19.7-23.8-22.4-23.8-44.5,0-66.3Z"/>
  </g>
  <g class="st3">
    <path class="st4" d="M810.2,973.1c36.1-6.8,57.6,7.5,64.5,43-6.1,37.1-27.6,52-64.5,44.8-37.9-29.6-37.9-58.9,0-87.8Z"/>
  </g>
  <g class="st3">
    <path class="st4" d="M412.5,973.1c28-5.2,48.9,4.3,62.7,28.7,3.5,45.4-17.4,65.1-62.7,59.1-38.1-29.3-38.1-58.5,0-87.8Z"/>
  </g>
  <g class="st0">
    <path class="st4" d="M609.6,966c63.9-2.5,86,26.2,66.3,86-23.6,23.4-50.5,27.6-80.6,12.5-23.3-22.4-27.5-48.1-12.5-77,7.6-9.4,16.5-16.6,26.9-21.5Z"/>
  </g>
  <g class="st2">
    <path class="st4" d="M1197.2,801.1c25.7-1.2,37,10.7,34,35.8-14.4,17.4-30,18.6-46.6,3.6-4.8-16.3-.6-29.4,12.5-39.4Z"/>
  </g>
  <g class="st3">
    <path class="st4" d="M215.5,783.2c31.6-7.8,53.7,2.9,66.3,32.2,3.7,26.1-6.5,44.7-30.5,55.5-43.4,4.4-63.1-15.3-59.1-59.1,7.2-10.1,14.9-19.7,23.3-28.7Z"/>
  </g>
  <g class="st2">
    <path class="st4" d="M39.9,801.1c25.6-1.2,37,10.7,34,35.8-18.8,20.3-35.5,19.1-50.2-3.6-.5-13.4,4.9-24.1,16.1-32.2Z"/>
  </g>
  <g class="st3">
    <path class="st4" d="M1003.7,783.2c57.6-1.2,74.3,24.5,50.2,77-25,17.9-48.3,16.1-69.9-5.4-16.6-30.6-10-54.4,19.7-71.7Z"/>
  </g>
  <g class="st5">
    <path class="st4" d="M409,768.9c69.1-3.2,92.4,27.9,69.9,93.2-19.2,19.9-42.5,26.5-69.9,19.7-31.3-16.3-42.7-42-34-77,7.2-16.2,18.6-28.1,34-35.8Z"/>
  </g>
  <g class="st5">
    <path class="st4" d="M806.7,768.9c59.2-6,84.8,20.3,77,78.8-16.3,31.3-42,42.7-77,34-31.3-16.3-42.7-42-34-77,7.2-16.2,18.6-28.1,34-35.8Z"/>
  </g>
  <g class="st1">
    <path class="st4" d="M609.6,758.2c71.3.2,99.4,34.9,84.2,103.9-29.4,41.3-65.9,49-109.3,23.3-34.6-39.6-33.4-77.8,3.6-114.7,8-3.4,15.1-7.6,21.5-12.5Z"/>
  </g>
  <path class="st4" d="M713.5,600.5c5.4,10.2,7.8,21.6,7.2,34,0,8.5-1.2,16.2-3.6,23.3.4-19.2-.8-38.3-3.6-57.3Z"/>
  <g class="st2">
    <path class="st4" d="M1197.2,600.5c28.8.7,41.3,15,37.6,43-8.4,17.6-22.2,24.2-41.2,19.7-17.7-8.4-24.2-22.2-19.7-41.2,5.3-10.1,13.1-17.2,23.3-21.5Z"/>
  </g>
  <g class="st2">
    <path class="st4" d="M39.9,600.5c30.6-1.1,44.3,13.3,41.2,43-18.5,27.2-38.8,28.3-60.9,3.6-5.1-20.8,1.4-36.3,19.7-46.6Z"/>
  </g>
  <g class="st0">
    <path class="st4" d="M215.5,579c63.7-2.7,85.8,26,66.3,86-31.1,33.4-62.1,33.4-93.2,0-18.6-37.8-9.7-66.4,26.9-86Z"/>
  </g>
  <g class="st0">
    <path class="st4" d="M1003.7,579c47.8-4.1,72.3,17.4,73.4,64.5-10.6,34.3-33.9,49.2-69.9,44.8-39.3-18.7-49.4-47.9-30.5-87.8,7.6-9.4,16.5-16.6,26.9-21.5Z"/>
  </g>
  <g class="st1">
    <path class="st4" d="M810.2,561.1c71.3.2,99.4,34.8,84.2,103.9-19.5,33.8-48.8,46.3-87.8,37.6-39.7-17.4-55.8-47.8-48.4-91.4,10.3-24.5,27.6-41.2,52-50.2Z"/>
  </g>
  <g class="st1">
    <path class="st4" d="M409,561.1c42.5-4.2,72.9,12.6,91.4,50.2,2.1,77.9-34.3,106-109.3,84.2-32.2-24.6-41.1-56.3-26.9-94.9,11.2-17.8,26.1-30.9,44.8-39.4Z"/>
  </g>
  <path class="st4" d="M713.5,600.5c2.8,19,4,38.1,3.6,57.3-18.6,49.3-54.4,70.2-107.5,62.7-44.2-13.2-66.9-43-68.1-89.6,7.4-61.1,42-89.8,103.9-86,32,7.5,54.6,26,68.1,55.5Z"/>
  <g class="st2">
    <path class="st4" d="M1193.6,410.6c35.1-1.3,44.7,13.6,28.7,44.8-21.9,9.9-36.3,3.4-43-19.7,2-10.1,6.8-18.4,14.3-25.1Z"/>
  </g>
  <path class="st4" d="M695.6,407c5.2,8.4,7.6,18,7.2,28.7,0,6.7-1.2,12.7-3.6,17.9.1-15.7-1.1-31.2-3.6-46.6Z"/>
  <g class="st2">
    <path class="st4" d="M36.3,410.6c25.9-3.3,38.4,7.4,37.6,32.2-10.6,18.6-24.9,22.2-43,10.7-8.4-15.9-6.6-30.3,5.4-43Z"/>
  </g>
  <g class="st3">
    <path class="st4" d="M222.7,389.1c53.9,3.9,70,30.2,48.4,78.8-19.5,16.7-40.4,18.5-62.7,5.4-27.4-33.5-22.6-61.6,14.3-84.2Z"/>
  </g>
  <g class="st3">
    <path class="st4" d="M1007.3,389.1c53.5,3.1,69.7,29.4,48.4,78.8-33.4,23.8-59.6,17.8-78.8-17.9-2.4-9.6-2.4-19.1,0-28.7,8.5-12.6,18.6-23.4,30.5-32.2Z"/>
  </g>
  <g class="st5">
    <path class="st4" d="M806.7,378.4c34.1-5.6,59.8,6.4,77,35.8,7.7,56.8-16.8,83.6-73.4,80.6-34.2-16.5-46.7-43.4-37.6-80.6,9.4-13.9,20.7-25.9,34-35.8Z"/>
  </g>
  <g class="st5">
    <path class="st4" d="M409,378.4c59.1-5.5,84.8,20.8,77,78.8-19.1,39.1-48.3,49.2-87.8,30.5-23.6-19.2-31.4-43.7-23.3-73.4,8.5-15,19.8-27,34-35.8Z"/>
  </g>
  <g class="st1">
    <path class="st4" d="M695.6,407c2.5,15.4,3.7,30.9,3.6,46.6-10.2,34.7-33.5,52.6-69.9,53.7-55.1-8.6-77.8-40.8-68.1-96.7,27.4-50.3,66.2-60.5,116.4-30.5,8.3,7.6,14.2,16.6,17.9,26.9Z"/>
  </g>
  <g class="st0">
    <path class="st4" d="M226.2,206.4c32.2-.7,45.9,14.8,41.2,46.6-18.2,27.5-38.5,28.7-60.9,3.6-7.1-22.7-.5-39.4,19.7-50.2Z"/>
  </g>
  <g class="st2">
    <path class="st4" d="M39.9,220.7c29.8,1.7,35.8,14.3,17.9,37.6-30.1-.7-36.1-13.2-17.9-37.6Z"/>
  </g>
  <g class="st2">
    <path class="st4" d="M1197.2,220.7c22.8-3.5,31.7,6.1,26.9,28.7-10.7,14.3-21.5,14.3-32.2,0-3.2-10.7-1.4-20.3,5.4-28.7Z"/>
  </g>
  <g class="st0">
    <path class="st4" d="M1010.9,206.4c32.2-.7,45.9,14.8,41.2,46.6-18.5,27.2-38.8,28.3-60.9,3.6-6.2-22.2.4-38.9,19.7-50.2Z"/>
  </g>
  <g class="st3">
    <path class="st4" d="M810.2,195.6c24.5-5.2,44.2,2,59.1,21.5,10.1,50.8-10.8,72.9-62.7,66.3-34.3-31-33.1-60.3,3.6-87.8Z"/>
  </g>
  <g class="st3">
    <path class="st4" d="M412.5,195.6c28.4-6.4,49.3,3.2,62.7,28.7,3.4,45.5-17.5,65.3-62.7,59.1-28.2-14.8-36-36.8-23.3-66.3,7.4-8,15.2-15.2,23.3-21.5Z"/>
  </g>
  <g class="st0">
    <path class="st4" d="M613.2,181.3c55.6-2.3,78.9,24,69.9,78.8-22.4,38.3-52.8,46.1-91.4,23.3-29.7-42.1-22.5-76.1,21.5-102.1Z"/>
  </g>
  <g class="st2">
    <path class="st4" d="M817.4,30.8c25.6-1.2,37,10.7,34,35.8-17.3,19.8-32.9,18.6-46.6-3.6-2.4-6-2.4-11.9,0-17.9,4.9-4.3,9.1-9.1,12.5-14.3Z"/>
  </g>
  <g class="st2">
    <path class="st4" d="M1014.5,38c19.7-2.4,27.5,6,23.3,25.1-20.3,16.7-31.1,11.9-32.2-14.3,2.5-4.3,5.5-7.9,9-10.7Z"/>
  </g>
  <g class="st2">
    <path class="st4" d="M226.2,38c16.4-4.1,26,1.8,28.7,17.9-7.2,17.7-18.6,21.3-34,10.7-3.1-10.8-1.3-20.4,5.4-28.7Z"/>
  </g>
  <g class="st2">
    <path class="st4" d="M616.8,27.2c32.8-3.6,46.5,10.7,41.2,43-20.6,24.4-39.7,23.2-57.3-3.6-5.8-18.1-.4-31.3,16.1-39.4Z"/>
  </g>
  <g class="st2">
    <path class="st4" d="M419.7,30.8c23.9-1.8,35.2,9,34,32.2-14,21.9-29.5,23.1-46.6,3.6-4.5-15.4-.3-27.4,12.5-35.8Z"/>
  </g>
</svg>