<?xml version="1.0" encoding="UTF-8"?>
<!DOCTYPE svg PUBLIC "-//W3C//DTD SVG 1.1//EN" "http://www.w3.org/Graphics/SVG/1.1/DTD/svg11.dtd">
<svg xmlns="http://www.w3.org/2000/svg" version="1.1" width="1254px" height="1254px" style="shape-rendering:geometricPrecision; text-rendering:geometricPrecision; image-rendering:optimizeQuality; fill-rule:evenodd; clip-rule:evenodd" xmlns:xlink="http://www.w3.org/1999/xlink">
<g><path style="opacity:1" fill="#f9f9f9" d="M -0.5,-0.5 C 417.5,-0.5 835.5,-0.5 1253.5,-0.5C 1253.5,417.5 1253.5,835.5 1253.5,1253.5C 835.5,1253.5 417.5,1253.5 -0.5,1253.5C -0.5,835.5 -0.5,417.5 -0.5,-0.5 Z"/></g>
<g><path style="opacity:1" fill="#dadbda" d="M 142.5,375.5 C 256.333,374.334 370.333,374.167 484.5,375C 485.737,375.232 486.737,375.732 487.5,376.5C 372.522,375.508 257.522,375.175 142.5,375.5 Z"/></g>
<g><path style="opacity:1" fill="#090909" d="M 142.5,375.5 C 257.522,375.175 372.522,375.508 487.5,376.5C 507.565,380.731 520.398,392.731 526,412.5C 526.667,539.5 526.667,666.5 526,793.5C 521.246,816.255 507.413,829.421 484.5,833C 370.167,833.667 255.833,833.667 141.5,833C 119.874,829.373 106.707,816.873 102,795.5C 101.333,667.833 101.333,540.167 102,412.5C 107.313,391.359 120.813,379.025 142.5,375.5 Z"/></g>
<g><path style="opacity:1" fill="#434444" d="M 143.5,393.5 C 257.999,392.334 372.666,392.167 487.5,393C 488.056,393.383 488.389,393.883 488.5,394.5C 487.833,394.5 487.167,394.5 486.5,394.5C 372.335,393.5 258.001,393.167 143.5,393.5 Z"/></g>
<g><path style="opacity:1" fill="#f9f9f9" d="M 486.5,394.5 C 487.167,394.5 487.833,394.5 488.5,394.5C 497.696,397.033 504.03,402.699 507.5,411.5C 508.493,538.478 508.826,665.478 508.5,792.5C 506.283,803.888 499.616,811.388 488.5,815C 372.167,815.667 255.833,815.667 139.5,815C 132.989,813.431 127.989,809.931 124.5,804.5C 125.404,804.465 126.07,803.965 126.5,803C 125.516,801.343 124.516,799.677 123.5,798C 123.833,797.667 124.167,797.333 124.5,797C 123.09,796.632 122.09,795.799 121.5,794.5C 122.833,668.167 122.833,541.833 121.5,415.5C 123.399,413.169 124.566,410.502 125,407.5C 125.908,405.561 127.408,404.561 129.5,404.5C 129.5,403.5 129.5,402.5 129.5,401.5C 131.2,401.374 132.7,400.707 134,399.5C 136.756,400.695 138.256,399.695 138.5,396.5C 248.331,396.2 357.998,396.533 467.5,397.5C 473.487,396.858 479.487,396.358 485.5,396C 484.288,394.893 484.621,394.393 486.5,394.5 Z"/></g>
<g><path style="opacity:1" fill="#f2f2f2" d="M 143.5,393.5 C 258.001,393.167 372.335,393.5 486.5,394.5C 484.621,394.393 484.288,394.893 485.5,396C 479.487,396.358 473.487,396.858 467.5,397.5C 357.998,396.533 248.331,396.2 138.5,396.5C 138.256,399.695 136.756,400.695 134,399.5C 132.7,400.707 131.2,401.374 129.5,401.5C 129.5,402.5 129.5,403.5 129.5,404.5C 127.408,404.561 125.908,405.561 125,407.5C 124.566,410.502 123.399,413.169 121.5,415.5C 122.833,541.833 122.833,668.167 121.5,794.5C 122.09,795.799 123.09,796.632 124.5,797C 124.167,797.333 123.833,797.667 123.5,798C 124.516,799.677 125.516,801.343 126.5,803C 126.07,803.965 125.404,804.465 124.5,804.5C 121.9,801.637 120.067,798.303 119,794.5C 118.333,667.5 118.333,540.5 119,413.5C 123.445,402.217 131.611,395.551 143.5,393.5 Z"/></g>
<g><path style="opacity:1" fill="#111111" d="M 310.5,436.5 C 321.363,436.837 324.53,441.837 320,451.5C 313.952,455.906 308.952,454.906 305,448.5C 303.873,443.089 305.707,439.089 310.5,436.5 Z"/></g>
<g><path style="opacity:1" fill="#080808" d="M 190.5,472.5 C 199.036,472.2 202.87,476.2 202,484.5C 197.092,491.986 191.759,492.319 186,485.5C 184.381,479.968 185.881,475.634 190.5,472.5 Z"/></g>
<g><path style="opacity:1" fill="#0d0d0d" d="M 430.5,472.5 C 439.202,472.555 442.702,476.888 441,485.5C 438.252,489.619 434.419,491.119 429.5,490C 422.548,483.638 422.881,477.804 430.5,472.5 Z"/></g>
<g><path style="opacity:1" fill="#080808" d="M 309.5,489.5 C 321.705,489.534 326.872,495.534 325,507.5C 317.382,516.826 309.715,516.826 302,507.5C 301.333,503.833 301.333,500.167 302,496.5C 304.396,493.933 306.896,491.6 309.5,489.5 Z"/></g>
<g><path style="opacity:1" fill="#060606" d="M 231.5,515.5 C 248.519,513.68 255.019,521.013 251,537.5C 244.212,545.422 236.379,546.588 227.5,541C 221.159,531.203 222.492,522.703 231.5,515.5 Z"/></g>
<g><path style="opacity:1" fill="#050505" d="M 381.5,515.5 C 401.353,513.899 407.52,522.232 400,540.5C 392.96,545.624 385.793,545.791 378.5,541C 372.34,531.573 373.34,523.073 381.5,515.5 Z"/></g>
<g><path style="opacity:1" fill="#c9c9c9" d="M 507.5,411.5 C 508.268,412.263 508.768,413.263 509,414.5C 509.833,540.667 509.666,666.667 508.5,792.5C 508.826,665.478 508.493,538.478 507.5,411.5 Z"/></g>
<g><path style="opacity:1" fill="#040404" d="M 339.5,594.5 C 340.229,599.13 340.563,603.797 340.5,608.5C 335.071,625.879 323.405,633.046 305.5,630C 287.103,621.144 281.936,607.31 290,588.5C 303.264,572.657 317.93,571.324 334,584.5C 336.619,587.406 338.453,590.739 339.5,594.5 Z"/></g>
<g><path style="opacity:1" fill="#040404" d="M 663.5,615.5 C 664.043,615.44 664.376,615.107 664.5,614.5C 630.84,613.5 597.173,613.167 563.5,613.5C 558.63,612.293 555.963,609.126 555.5,604C 556.288,599.379 558.955,596.545 563.5,595.5C 597.173,595.833 630.84,595.5 664.5,594.5C 664.376,593.893 664.043,593.56 663.5,593.5C 653.505,584.339 644.005,574.672 635,564.5C 633.221,554.279 637.387,550.112 647.5,552C 663.971,567.471 680.138,583.304 696,599.5C 696.837,603.295 696.504,606.961 695,610.5C 679.138,626.696 662.971,642.529 646.5,658C 636.96,658.456 633.127,653.956 635,644.5C 644.005,634.328 653.505,624.661 663.5,615.5 Z"/></g>
<g><path style="opacity:1" fill="#ebebeb" d="M 726.5,417.5 C 726.333,543.834 726.5,670.167 727,796.5C 728.269,797.905 728.769,799.571 728.5,801.5C 727.842,802.398 727.176,803.398 726.5,804.5C 725.986,800.183 724.653,796.183 722.5,792.5C 723.83,667.474 723.83,542.474 722.5,417.5C 724.412,410.877 725.745,410.877 726.5,417.5 Z"/></g>
<g><path style="opacity:1" fill="#080808" d="M 205.5,590.5 C 219.044,589.532 224.544,595.532 222,608.5C 216.623,616.852 209.789,618.352 201.5,613C 195.138,604.036 196.471,596.536 205.5,590.5 Z"/></g>
<g><path style="opacity:1" fill="#080707" d="M 412.5,590.5 C 427.499,590.648 432.332,597.648 427,611.5C 418.536,618.867 411.203,617.867 405,608.5C 404.333,604.833 404.333,601.167 405,597.5C 407.015,594.588 409.515,592.255 412.5,590.5 Z"/></g>
<g><path style="opacity:1" fill="#b6b5b6" d="M 663.5,593.5 C 664.043,593.56 664.376,593.893 664.5,594.5C 630.84,595.5 597.173,595.833 563.5,595.5C 596.833,594.833 630.167,594.167 663.5,593.5 Z"/></g>
<g><path style="opacity:1" fill="#100f10" d="M 151.5,594.5 C 161.394,594.546 164.894,599.213 162,608.5C 155.783,614.32 150.45,613.654 146,606.5C 145.333,604.167 145.333,601.833 146,599.5C 147.73,597.598 149.563,595.931 151.5,594.5 Z"/></g>
<g><path style="opacity:1" fill="#0a0a0a" d="M 469.5,594.5 C 478.036,594.2 481.87,598.2 481,606.5C 476.175,614.061 470.841,614.394 465,607.5C 463.379,601.923 464.879,597.589 469.5,594.5 Z"/></g>
<g><path style="opacity:1" fill="#7e7d7e" d="M 339.5,594.5 C 340.973,597.017 341.64,599.85 341.5,603C 341.494,605.033 341.161,606.866 340.5,608.5C 340.563,603.797 340.229,599.13 339.5,594.5 Z"/></g>
<g><path style="opacity:1" fill="#bebfbf" d="M 563.5,613.5 C 597.173,613.167 630.84,613.5 664.5,614.5C 664.376,615.107 664.043,615.44 663.5,615.5C 630.167,614.833 596.833,614.167 563.5,613.5 Z"/></g>
<g><path style="opacity:1" fill="#050505" d="M 232.5,661.5 C 241.264,659.802 247.764,662.802 252,670.5C 253.999,686.166 247.166,692.666 231.5,690C 223.078,683.843 221.245,676.01 226,666.5C 227.965,664.45 230.132,662.783 232.5,661.5 Z"/></g>
<g><path style="opacity:1" fill="#040404" d="M 383.5,661.5 C 398.675,659.841 405.175,666.507 403,681.5C 398.652,689.915 391.819,692.748 382.5,690C 375.156,685.464 372.656,678.964 375,670.5C 377.025,666.644 379.858,663.644 383.5,661.5 Z"/></g>
<g><path style="opacity:1" fill="#080808" d="M 308.5,692.5 C 321.32,691.153 326.82,696.819 325,709.5C 320.45,716.435 314.283,718.268 306.5,715C 299.344,706.732 300.011,699.232 308.5,692.5 Z"/></g>
<g><path style="opacity:1" fill="#0e0e0e" d="M 190.5,715.5 C 199.036,715.2 202.87,719.2 202,727.5C 199.647,732.426 195.814,734.26 190.5,733C 185.845,730.103 184.345,725.937 186,720.5C 187.059,718.341 188.559,716.674 190.5,715.5 Z"/></g>
<g><path style="opacity:1" fill="#0a0a0a" d="M 429.5,715.5 C 438.53,715.358 442.363,719.692 441,728.5C 435.171,735.476 429.838,735.143 425,727.5C 423.976,722.548 425.476,718.548 429.5,715.5 Z"/></g>
<g><path style="opacity:1" fill="#0f0f0f" d="M 309.5,752.5 C 320.866,752.333 324.366,757.333 320,767.5C 313.379,772.34 308.379,771.006 305,763.5C 304.333,761.833 304.333,760.167 305,758.5C 306.332,756.34 307.832,754.34 309.5,752.5 Z"/></g>
<g><path style="opacity:1" fill="#0b0b0b" d="M 728.5,801.5 C 728.769,799.571 728.269,797.905 727,796.5C 726.5,670.167 726.333,543.834 726.5,417.5C 730.335,395.162 743.335,381.328 765.5,376C 880.833,375.333 996.167,375.333 1111.5,376C 1133.49,379.991 1146.99,392.824 1152,414.5C 1152.67,540.167 1152.67,665.833 1152,791.5C 1148,815.838 1133.83,829.672 1109.5,833C 994.833,833.667 880.167,833.667 765.5,833C 747.43,829.087 735.097,818.587 728.5,801.5 Z"/></g>
<g><path style="opacity:1" fill="#e5e5e5" d="M 764.5,394.5 C 764.617,396.484 763.95,398.15 762.5,399.5C 759.916,400.393 757.249,400.726 754.5,400.5C 752.112,404.949 749.945,409.616 748,414.5C 747.611,421.175 747.111,427.842 746.5,434.5C 746.899,550.399 747.066,666.399 747,782.5C 747.333,786.833 747.667,791.167 748,795.5C 751.667,796.26 752.167,797.76 749.5,800C 751.723,800.652 752.89,802.152 753,804.5C 753.654,803.304 754.154,803.304 754.5,804.5C 753.807,805.518 753.141,806.518 752.5,807.5C 748.144,803.464 745.31,798.464 744,792.5C 743.333,666.5 743.333,540.5 744,414.5C 747.386,404.28 754.22,397.613 764.5,394.5 Z"/></g>
<g><path style="opacity:1" fill="#f0f0f0" d="M 1109.5,393.5 C 1114.94,393.893 1119.61,395.893 1123.5,399.5C 1122.53,400.806 1121.2,401.473 1119.5,401.5C 1119.91,398.724 1119.08,398.057 1117,399.5C 1115.72,399.387 1114.89,398.72 1114.5,397.5C 1110.83,397.167 1107.17,396.833 1103.5,396.5C 998.454,396.431 892.454,396.764 785.5,397.5C 779.493,397.09 773.493,396.59 767.5,396C 881.527,394.835 995.527,394.002 1109.5,393.5 Z"/></g>
<g><path style="opacity:1" fill="#f9f9f9" d="M 1109.5,393.5 C 995.527,394.002 881.527,394.835 767.5,396C 773.493,396.59 779.493,397.09 785.5,397.5C 892.454,396.764 998.454,396.431 1103.5,396.5C 1107.17,396.833 1110.83,397.167 1114.5,397.5C 1114.89,398.72 1115.72,399.387 1117,399.5C 1119.08,398.057 1119.91,398.724 1119.5,401.5C 1121.2,401.473 1122.53,400.806 1123.5,399.5C 1129.37,403.228 1133.2,408.562 1135,415.5C 1135.67,541.5 1135.67,667.5 1135,793.5C 1131.7,804.651 1124.53,811.818 1113.5,815C 997.167,815.667 880.833,815.667 764.5,815C 759.626,813.738 755.626,811.238 752.5,807.5C 753.141,806.518 753.807,805.518 754.5,804.5C 754.154,803.304 753.654,803.304 753,804.5C 752.89,802.152 751.723,800.652 749.5,800C 752.167,797.76 751.667,796.26 748,795.5C 747.667,791.167 747.333,786.833 747,782.5C 747.066,666.399 746.899,550.399 746.5,434.5C 747.111,427.842 747.611,421.175 748,414.5C 749.945,409.616 752.112,404.949 754.5,400.5C 757.249,400.726 759.916,400.393 762.5,399.5C 763.95,398.15 764.617,396.484 764.5,394.5C 879.332,393.5 994.332,393.167 1109.5,393.5 Z"/></g>
<g><path style="opacity:1" fill="#cccbcb" d="M 1045.5,768.5 C 1051.17,767.671 1053.67,770.005 1053,775.5C 1050,779.5 1047,779.5 1044,775.5C 1043.4,772.905 1043.9,770.571 1045.5,768.5 Z"/></g>
<g><path style="opacity:1" fill="#b4b4b4" d="M 991.5,766.5 C 998.164,766 1001.33,769 1001,775.5C 997.306,780.342 993.306,780.675 989,776.5C 987.861,772.579 988.695,769.246 991.5,766.5 Z"/></g>
<g><path style="opacity:1" fill="#9f9e9e" d="M 935.5,765.5 C 944.161,764.329 947.994,767.996 947,776.5C 941.818,783.09 936.818,783.09 932,776.5C 930.663,771.916 931.829,768.249 935.5,765.5 Z"/></g>
<g><path style="opacity:1" fill="#b4b3b3" d="M 880.5,766.5 C 887.88,766.043 890.713,769.376 889,776.5C 884.694,780.675 880.694,780.342 877,775.5C 876.333,773.833 876.333,772.167 877,770.5C 878.376,769.295 879.542,767.962 880.5,766.5 Z"/></g>
<g><path style="opacity:1" fill="#c8c8c8" d="M 826.5,768.5 C 831.835,768.005 834.335,770.338 834,775.5C 831.294,778.978 828.294,779.311 825,776.5C 824.109,773.502 824.609,770.836 826.5,768.5 Z"/></g>
<g><path style="opacity:1" fill="#c6c4c5" d="M 774.5,717.5 C 781.745,717.555 783.745,720.722 780.5,727C 774.24,729.412 771.407,727.245 772,720.5C 773.045,719.627 773.878,718.627 774.5,717.5 Z"/></g>
<g><path style="opacity:1" fill="#c1c1c1" d="M 1097.5,717.5 C 1104,716.499 1106.5,719.165 1105,725.5C 1101.93,729.388 1098.93,729.388 1096,725.5C 1095.11,722.502 1095.61,719.836 1097.5,717.5 Z"/></g>
<g><path style="opacity:1" fill="#a4a3a3" d="M 1044.5,713.5 C 1055.38,713.204 1059.21,718.204 1056,728.5C 1049.78,734.32 1044.45,733.654 1040,726.5C 1039.33,723.833 1039.33,721.167 1040,718.5C 1041.71,716.963 1043.21,715.296 1044.5,713.5 Z"/></g>
<g><path style="opacity:1" fill="#a7a6a6" d="M 825.5,713.5 C 834.987,712.819 839.154,717.153 838,726.5C 835.267,731.562 831.1,733.395 825.5,732C 818.86,725.76 818.86,719.593 825.5,713.5 Z"/></g>
<g><path style="opacity:1" fill="#888887" d="M 989.5,710.5 C 999.578,708.6 1005.58,712.6 1007.5,722.5C 1005.8,732.85 999.801,737.017 989.5,735C 978.93,726.735 978.93,718.568 989.5,710.5 Z"/></g>
<g><path style="opacity:1" fill="#898888" d="M 878.5,710.5 C 886.325,709.044 892.159,711.711 896,718.5C 896.986,731.18 891.153,736.68 878.5,735C 867.88,726.836 867.88,718.669 878.5,710.5 Z"/></g>
<g><path style="opacity:1" fill="#5f5e5e" d="M 933.5,708.5 C 951.328,707.807 957.495,715.807 952,732.5C 945.402,739.043 937.902,740.209 929.5,736C 922.989,729.749 921.823,722.582 926,714.5C 928.114,711.879 930.614,709.879 933.5,708.5 Z"/></g>
<g><path style="opacity:1" fill="#b8b7b7" d="M 1097.5,662.5 C 1104.66,662.155 1107.82,665.488 1107,672.5C 1102.97,677.364 1098.63,677.698 1094,673.5C 1092.66,668.96 1093.83,665.293 1097.5,662.5 Z"/></g>
<g><path style="opacity:1" fill="#8c8b8b" d="M 823.5,657.5 C 832.307,655.321 838.474,658.321 842,666.5C 843.033,673.798 840.199,678.964 833.5,682C 821.384,683.218 815.884,677.718 817,665.5C 819.001,662.669 821.167,660.003 823.5,657.5 Z"/></g>
<g><path style="opacity:1" fill="#b5b4b4" d="M 774.5,662.5 C 781.657,662.155 784.824,665.488 784,672.5C 778.75,678.173 774.084,677.84 770,671.5C 769.874,667.765 771.374,664.765 774.5,662.5 Z"/></g>
<g><path style="opacity:1" fill="#8e8e8e" d="M 1043.5,657.5 C 1059.59,657.17 1064.25,664.337 1057.5,679C 1050.52,684 1044.02,683.5 1038,677.5C 1033.38,668.97 1035.21,662.303 1043.5,657.5 Z"/></g>
<g><path style="opacity:1" fill="#504f4f" d="M 877.5,653.5 C 896.779,652.61 903.279,661.277 897,679.5C 891.636,685.061 885.136,686.895 877.5,685C 868.752,680.455 865.585,673.288 868,663.5C 870.022,658.98 873.189,655.647 877.5,653.5 Z"/></g>
<g><path style="opacity:1" fill="#515050" d="M 988.5,653.5 C 1005.01,651.839 1012.17,659.172 1010,675.5C 1005.45,684.248 998.288,687.415 988.5,685C 979.752,680.455 976.585,673.288 979,663.5C 981.022,658.98 984.189,655.647 988.5,653.5 Z"/></g>
<g><path style="opacity:1" fill="#060606" d="M 933.5,650.5 C 953.405,650.56 961.239,660.227 957,679.5C 948.786,691.019 938.62,693.186 926.5,686C 916.854,674.943 917.187,664.276 927.5,654C 929.727,653.059 931.727,651.892 933.5,650.5 Z"/></g>
<g><path style="opacity:1" fill="#6a696b" d="M 962.5,606.5 C 964.006,609.356 964.672,612.523 964.5,616C 964.496,618.361 964.163,620.527 963.5,622.5C 963.608,617.13 963.275,611.797 962.5,606.5 Z"/></g>
<g><path style="opacity:1" fill="#a6a5a4" d="M 1097.5,606.5 C 1105.54,606.7 1109.04,610.7 1108,618.5C 1105.65,623.426 1101.81,625.26 1096.5,624C 1091.57,621.647 1089.74,617.814 1091,612.5C 1092.49,609.686 1094.66,607.686 1097.5,606.5 Z"/></g>
<g><path style="opacity:1" fill="#a7a6a6" d="M 774.5,606.5 C 783.037,606.201 786.871,610.201 786,618.5C 780.833,626.079 775.167,626.412 769,619.5C 767.571,613.7 769.404,609.367 774.5,606.5 Z"/></g>
<g><path style="opacity:1" fill="#555453" d="M 823.5,600.5 C 841.269,599.755 847.436,607.755 842,624.5C 833.333,633.833 824.667,633.833 816,624.5C 810.802,613.958 813.302,605.958 823.5,600.5 Z"/></g>
<g><path style="opacity:1" fill="#5e5d5d" d="M 1043.5,600.5 C 1056.83,599.343 1063.67,605.343 1064,618.5C 1061.03,628.074 1054.53,632.241 1044.5,631C 1033.54,625.792 1030.71,617.625 1036,606.5C 1038.11,603.879 1040.61,601.879 1043.5,600.5 Z"/></g>
<g><path style="opacity:1" fill="#050505" d="M 989.5,595.5 C 1009.4,595.556 1017.23,605.223 1013,624.5C 1007.55,633.925 999.388,637.425 988.5,635C 977.419,630.148 972.919,621.648 975,609.5C 977.871,602.675 982.704,598.008 989.5,595.5 Z"/></g>
<g><path style="opacity:1" fill="#040404" d="M 877.5,595.5 C 889.35,594.337 897.85,599.004 903,609.5C 903.581,631.251 893.414,639.084 872.5,633C 863.516,626.13 861.016,617.297 865,606.5C 868.124,601.536 872.291,597.87 877.5,595.5 Z"/></g>
<g><path style="opacity:1" fill="#040404" d="M 962.5,606.5 C 963.275,611.797 963.608,617.13 963.5,622.5C 958.314,636.269 948.314,642.102 933.5,640C 921.166,636.321 914.832,627.988 914.5,615C 916.564,597.944 926.231,589.944 943.5,591C 952.42,593.094 958.753,598.261 962.5,606.5 Z"/></g>
<g><path style="opacity:1" fill="#b5b3b3" d="M 1096.5,553.5 C 1106.31,553.138 1108.98,557.305 1104.5,566C 1098.38,568.774 1094.38,566.941 1092.5,560.5C 1093.07,557.687 1094.4,555.354 1096.5,553.5 Z"/></g>
<g><path style="opacity:1" fill="#5b5a5c" d="M 957.5,552.5 C 958.952,554.848 959.618,557.514 959.5,560.5C 959.493,562.369 959.16,564.036 958.5,565.5C 958.533,561.131 958.2,556.798 957.5,552.5 Z"/></g>
<g><path style="opacity:1" fill="#b0b0b0" d="M 773.5,553.5 C 780.718,552.566 784.218,555.566 784,562.5C 781.051,567.69 777.051,568.69 772,565.5C 769.66,561.052 770.16,557.052 773.5,553.5 Z"/></g>
<g><path style="opacity:1" fill="#888787" d="M 825.5,547.5 C 840.542,548.602 845.042,555.935 839,569.5C 833.549,574.16 827.716,574.66 821.5,571C 813.86,561.645 815.194,553.811 825.5,547.5 Z"/></g>
<g><path style="opacity:1" fill="#8b8a89" d="M 1044.5,547.5 C 1059.44,548.368 1063.94,555.701 1058,569.5C 1048.69,576.138 1041.36,574.472 1036,564.5C 1035.33,561.833 1035.33,559.167 1036,556.5C 1038.36,552.973 1041.2,549.973 1044.5,547.5 Z"/></g>
<g><path style="opacity:1" fill="#4a4a4a" d="M 988.5,544.5 C 998.021,542.944 1005.19,546.278 1010,554.5C 1012.15,570.344 1005.32,577.844 989.5,577C 979.952,572.4 976.452,564.9 979,554.5C 981.624,550.615 984.79,547.281 988.5,544.5 Z"/></g>
<g><path style="opacity:1" fill="#494949" d="M 877.5,544.5 C 894.001,542.963 901.168,550.297 899,566.5C 893.678,577.407 885.511,580.24 874.5,575C 867.915,569.643 865.749,562.809 868,554.5C 870.359,550.31 873.526,546.977 877.5,544.5 Z"/></g>
<g><path style="opacity:1" fill="#050504" d="M 957.5,552.5 C 958.2,556.798 958.533,561.131 958.5,565.5C 955.661,575.178 949.161,580.178 939,580.5C 923.614,578.105 917.281,569.105 920,553.5C 927.653,539.46 938.486,536.626 952.5,545C 954.808,547.128 956.474,549.628 957.5,552.5 Z"/></g>
<g><path style="opacity:1" fill="#a7a6a6" d="M 826.5,496.5 C 835.478,496.31 839.311,500.643 838,509.5C 832.917,517.172 827.251,517.505 821,510.5C 819.025,504.177 820.858,499.51 826.5,496.5 Z"/></g>
<g><path style="opacity:1" fill="#c3c2c2" d="M 774.5,500.5 C 782.818,500.987 784.485,504.487 779.5,511C 771.088,510.812 769.421,507.312 774.5,500.5 Z"/></g>
<g><path style="opacity:1" fill="#c6c5c5" d="M 1097.5,500.5 C 1103.85,499.525 1106.35,502.192 1105,508.5C 1102,512.5 1099,512.5 1096,508.5C 1095.11,505.502 1095.61,502.836 1097.5,500.5 Z"/></g>
<g><path style="opacity:1" fill="#a9a8a8" d="M 1045.5,496.5 C 1054.48,496.31 1058.31,500.643 1057,509.5C 1051.83,517.079 1046.17,517.412 1040,510.5C 1038.27,504.314 1040.1,499.647 1045.5,496.5 Z"/></g>
<g><path style="opacity:1" fill="#888887" d="M 989.5,493.5 C 996.331,492.051 1001.83,494.051 1006,499.5C 1008.83,513.678 1002.99,519.844 988.5,518C 978.928,509.341 979.262,501.175 989.5,493.5 Z"/></g>
<g><path style="opacity:1" fill="#7f7d7d" d="M 878.5,493.5 C 886.438,491.721 892.271,494.387 896,501.5C 896.954,514.213 891.121,519.713 878.5,518C 870.625,513.883 868.458,507.716 872,499.5C 874.063,497.266 876.229,495.266 878.5,493.5 Z"/></g>
<g><path style="opacity:1" fill="#595858" d="M 934.5,489.5 C 950.014,488.868 956.514,496.201 954,511.5C 947.762,522.197 939.262,524.364 928.5,518C 920.209,506.248 922.209,496.748 934.5,489.5 Z"/></g>
<g><path style="opacity:1" fill="#b4b3b3" d="M 991.5,447.5 C 998.655,447.153 1001.82,450.486 1001,457.5C 996.162,463.036 991.829,462.703 988,456.5C 987.333,454.833 987.333,453.167 988,451.5C 989.376,450.295 990.542,448.962 991.5,447.5 Z"/></g>
<g><path style="opacity:1" fill="#c8c8c8" d="M 1046.5,449.5 C 1052,448.831 1054.17,451.165 1053,456.5C 1047.33,461.167 1044.33,459.833 1044,452.5C 1044.7,451.309 1045.53,450.309 1046.5,449.5 Z"/></g>
<g><path style="opacity:1" fill="#c3c2c2" d="M 826.5,449.5 C 831.083,448.343 833.75,450.01 834.5,454.5C 832.484,459.433 829.318,460.433 825,457.5C 824.133,454.479 824.633,451.812 826.5,449.5 Z"/></g>
<g><path style="opacity:1" fill="#a3a2a2" d="M 935.5,446.5 C 944.657,445.489 948.49,449.489 947,458.5C 941.241,465.319 935.908,464.986 931,457.5C 929.393,452.438 930.893,448.772 935.5,446.5 Z"/></g>
<g><path style="opacity:1" fill="#afafaf" d="M 880.5,447.5 C 887.164,447 890.331,450 890,456.5C 886.087,462.617 881.754,462.951 877,457.5C 875.756,453.191 876.923,449.858 880.5,447.5 Z"/></g>
</svg>
