<?xml version="1.0" encoding="UTF-8"?>
<!DOCTYPE svg PUBLIC "-//W3C//DTD SVG 1.1//EN" "http://www.w3.org/Graphics/SVG/1.1/DTD/svg11.dtd">
<svg xmlns="http://www.w3.org/2000/svg" version="1.1" width="1254px" height="1254px" style="shape-rendering:geometricPrecision; text-rendering:geometricPrecision; image-rendering:optimizeQuality; fill-rule:evenodd; clip-rule:evenodd" xmlns:xlink="http://www.w3.org/1999/xlink">
<g><path style="opacity:1" fill="#f9f9f9" d="M -0.5,-0.5 C 417.5,-0.5 835.5,-0.5 1253.5,-0.5C 1253.5,417.5 1253.5,835.5 1253.5,1253.5C 835.5,1253.5 417.5,1253.5 -0.5,1253.5C -0.5,835.5 -0.5,417.5 -0.5,-0.5 Z"/></g>
<g><path style="opacity:1" fill="#2b2b2c" d="M 391.5,287.5 C 314.478,287.179 237.478,287.512 160.5,288.5C 160.918,287.778 161.584,287.278 162.5,287C 239.001,286.168 315.334,286.334 391.5,287.5 Z"/></g>
<g><path style="opacity:1" fill="#101010" d="M 391.5,287.5 C 402.819,290.153 409.819,297.153 412.5,308.5C 412.5,351.5 412.5,394.5 412.5,437.5C 407.5,437.5 402.5,437.5 397.5,437.5C 397.667,395.165 397.5,352.832 397,310.5C 395.478,306.471 392.645,304.137 388.5,303.5C 314.334,302.334 240.001,302.168 165.5,303C 164.944,303.383 164.611,303.883 164.5,304.5C 162.012,305.74 160.179,307.74 159,310.5C 158.333,370.833 158.333,431.167 159,491.5C 160.072,495.573 162.572,498.407 166.5,500C 174.827,500.5 183.16,500.666 191.5,500.5C 191.5,505.5 191.5,510.5 191.5,515.5C 181.161,515.666 170.828,515.5 160.5,515C 151.007,510.838 145.174,503.671 143,493.5C 142.333,432.167 142.333,370.833 143,309.5C 145.082,299.261 150.915,292.261 160.5,288.5C 237.478,287.512 314.478,287.179 391.5,287.5 Z"/></g>
<g><path style="opacity:1" fill="#cdcece" d="M 388.5,303.5 C 313.792,303.173 239.125,303.506 164.5,304.5C 164.611,303.883 164.944,303.383 165.5,303C 240.001,302.168 314.334,302.334 388.5,303.5 Z"/></g>
<g><path style="opacity:1" fill="#0e0e0e" d="M 217.5,334.5 C 240.913,334.727 249.747,346.06 244,368.5C 235.842,380.551 225.009,383.717 211.5,378C 197.219,366.698 195.885,354.031 207.5,340C 210.489,337.343 213.822,335.509 217.5,334.5 Z"/></g>
<g><path style="opacity:1" fill="#0e0e0e" d="M 357.5,436.5 C 313.833,437.167 270.167,437.833 226.5,438.5C 213.841,440.331 203.841,446.497 196.5,457C 191.929,458.619 187.596,460.785 183.5,463.5C 183.167,462.833 182.833,462.167 182.5,461.5C 197.656,444.174 212.656,426.674 227.5,409C 230.8,407.121 234.134,407.121 237.5,409C 245.205,417.037 252.539,425.37 259.5,434C 261.365,435.301 263.365,435.635 265.5,435C 279.048,418.453 292.215,401.62 305,384.5C 310.28,381.326 314.947,381.992 319,386.5C 331.666,403.328 344.499,419.995 357.5,436.5 Z"/></g>
<g><path style="opacity:1" fill="#4f5050" d="M 505.5,394.5 C 479.167,394.5 452.833,394.5 426.5,394.5C 426.5,399.5 426.5,404.5 426.5,409.5C 425.512,404.36 425.179,399.026 425.5,393.5C 452.339,393.169 479.005,393.502 505.5,394.5 Z"/></g>
<g><path style="opacity:1" fill="#5e5d5e" d="M 412.5,308.5 C 413.499,351.663 413.832,394.997 413.5,438.5C 407.974,438.821 402.64,438.488 397.5,437.5C 402.5,437.5 407.5,437.5 412.5,437.5C 412.5,394.5 412.5,351.5 412.5,308.5 Z"/></g>
<g><path style="opacity:1" fill="#737374" d="M 357.5,436.5 C 358.043,436.56 358.376,436.893 358.5,437.5C 314.505,438.5 270.505,438.833 226.5,438.5C 270.167,437.833 313.833,437.167 357.5,436.5 Z"/></g>
<g><path style="opacity:1" fill="#0f0f0e" d="M 474.5,472.5 C 474.5,516.833 474.5,561.167 474.5,605.5C 469.5,605.5 464.5,605.5 459.5,605.5C 459.667,561.832 459.5,518.165 459,474.5C 457.108,470.942 454.275,468.442 450.5,467C 376.833,466.333 303.167,466.333 229.5,467C 225.333,468.5 222.5,471.333 221,475.5C 220.333,535.833 220.333,596.167 221,656.5C 221.702,661.063 224.202,664.23 228.5,666C 236.827,666.5 245.16,666.666 253.5,666.5C 253.5,671.833 253.5,677.167 253.5,682.5C 244.827,682.666 236.16,682.5 227.5,682C 215.768,679.268 208.268,672.101 205,660.5C 204.333,598.167 204.333,535.833 205,473.5C 207.233,462.934 213.4,455.768 223.5,452C 300.5,451.333 377.5,451.333 454.5,452C 465.391,454.724 472.058,461.558 474.5,472.5 Z"/></g>
<g><path style="opacity:1" fill="#101010" d="M 1085.5,439.5 C 1085.83,523.002 1085.5,606.335 1084.5,689.5C 1080.42,686.124 1075.75,683.791 1070.5,682.5C 1070.83,610.497 1070.5,538.497 1069.5,466.5C 1068.89,466.624 1068.56,466.957 1068.5,467.5C 1047.65,477.948 1025.65,485.115 1002.5,489C 937.551,498.614 872.551,498.947 807.5,490C 790.201,486.902 773.201,482.568 756.5,477C 749.801,474.234 743.301,471.067 737,467.5C 736.333,572.833 736.333,678.167 737,783.5C 743.241,791.884 751.407,797.718 761.5,801C 794.906,812.179 829.239,818.513 864.5,820C 883.83,820.5 903.164,820.667 922.5,820.5C 922.59,825.68 923.59,830.68 925.5,835.5C 884.932,837.488 844.599,835.322 804.5,829C 779.312,825.547 755.979,817.213 734.5,804C 727.905,799.267 723.571,793.101 721.5,785.5C 721.174,668.145 721.508,550.812 722.5,433.5C 727.331,426.174 733.664,420.341 741.5,416C 755.929,409.309 770.929,404.309 786.5,401C 835.05,391.497 884.05,388.164 933.5,391C 976.065,391.651 1017.4,398.984 1057.5,413C 1070.95,417.619 1080.28,426.452 1085.5,439.5 Z"/></g>
<g><path style="opacity:1" fill="#f7f7f7" d="M 875.5,405.5 C 919.792,404.691 963.792,407.858 1007.5,415C 1027.8,418.153 1046.8,424.82 1064.5,435C 1071.21,441.57 1070.54,447.57 1062.5,453C 1048,460.833 1032.67,466.5 1016.5,470C 943.946,484.364 871.279,485.031 798.5,472C 779.126,468.576 760.793,462.243 743.5,453C 734.75,446.91 734.417,440.576 742.5,434C 757.718,425.038 774.052,419.038 791.5,416C 819.437,410.844 847.437,407.344 875.5,405.5 Z"/></g>
<g><path style="opacity:1" fill="#272828" d="M 722.5,433.5 C 721.508,550.812 721.174,668.145 721.5,785.5C 720.334,669.334 720.167,553.001 721,436.5C 721.232,435.263 721.732,434.263 722.5,433.5 Z"/></g>
<g><path style="opacity:1" fill="#0e0e0e" d="M 278.5,498.5 C 292.002,497.161 301.836,502.494 308,514.5C 310.05,536.239 300.217,546.072 278.5,544C 265.906,539.076 260.406,529.909 262,516.5C 265.271,508.398 270.771,502.398 278.5,498.5 Z"/></g>
<g><path style="opacity:1" fill="#636263" d="M 474.5,472.5 C 475.499,516.997 475.832,561.664 475.5,606.5C 469.974,606.821 464.64,606.488 459.5,605.5C 464.5,605.5 469.5,605.5 474.5,605.5C 474.5,561.167 474.5,516.833 474.5,472.5 Z"/></g>
<g><path style="opacity:1" fill="#0e0e0e" d="M 791.5,538.5 C 808.17,538.333 824.837,538.5 841.5,539C 842.931,539.465 844.097,540.299 845,541.5C 846.638,558.409 846.971,575.409 846,592.5C 845.215,594.286 844.049,595.786 842.5,597C 825.5,597.667 808.5,597.667 791.5,597C 790.667,596.167 789.833,595.333 789,594.5C 787.362,577.591 787.029,560.591 788,543.5C 788.997,541.677 790.164,540.01 791.5,538.5 Z"/></g>
<g><path style="opacity:1" fill="#0e0e0e" d="M 876.5,538.5 C 892.837,538.333 909.17,538.5 925.5,539C 927.848,539.346 929.681,540.513 931,542.5C 931.667,559.167 931.667,575.833 931,592.5C 930.215,594.286 929.049,595.786 927.5,597C 910.5,597.667 893.5,597.667 876.5,597C 875.584,596.626 874.75,596.126 874,595.5C 872.361,577.924 872.028,560.258 873,542.5C 874.376,541.295 875.542,539.962 876.5,538.5 Z"/></g>
<g><path style="opacity:1" fill="#0d0d0d" d="M 961.5,538.5 C 977.837,538.333 994.17,538.5 1010.5,539C 1012.29,539.785 1013.79,540.951 1015,542.5C 1015.67,559.5 1015.67,576.5 1015,593.5C 1014.63,594.416 1014.13,595.25 1013.5,596C 1004.6,597.14 995.596,597.64 986.5,597.5C 978.167,597.333 969.833,597.167 961.5,597C 960.584,596.626 959.75,596.126 959,595.5C 957.361,577.924 957.028,560.258 958,542.5C 959.376,541.295 960.542,539.962 961.5,538.5 Z"/></g>
<g><path style="opacity:1" fill="#0e0e0e" d="M 422.5,604.5 C 377.167,605.167 331.833,605.833 286.5,606.5C 270.776,609.72 260.109,618.887 254.5,634C 245.752,635.254 242.919,631.754 246,623.5C 260.285,607.093 274.452,590.593 288.5,574C 291.884,571.06 295.551,570.727 299.5,573C 307.442,582.744 315.942,591.911 325,600.5C 326.473,600.097 327.806,599.43 329,598.5C 342.119,581.046 355.619,563.88 369.5,547C 372.871,546.256 376.037,546.756 379,548.5C 393.715,567.042 408.215,585.709 422.5,604.5 Z"/></g>
<g><path style="opacity:1" fill="#252525" d="M 678.5,539.5 C 686.111,545.443 693.111,552.109 699.5,559.5C 698.778,559.918 698.278,560.584 698,561.5C 691.27,554.276 684.77,546.942 678.5,539.5 Z"/></g>
<g><path style="opacity:1" fill="#0e0f0e" d="M 505.5,394.5 C 548.037,398.87 572.537,422.203 579,464.5C 579.333,481.167 579.667,497.833 580,514.5C 584.579,542.577 600.745,559.243 628.5,564.5C 643.658,565.496 658.991,565.83 674.5,565.5C 674.737,564.209 674.404,563.209 673.5,562.5C 672.255,555.541 671.755,548.541 672,541.5C 673.789,539.771 675.956,539.104 678.5,539.5C 684.77,546.942 691.27,554.276 698,561.5C 698.278,560.584 698.778,559.918 699.5,559.5C 702.796,563.298 706.296,566.964 710,570.5C 710.667,572.5 710.667,574.5 710,576.5C 700.167,586.333 690.333,596.167 680.5,606C 676.726,607.183 673.559,606.349 671,603.5C 671.319,596.398 672.486,589.398 674.5,582.5C 659.178,581.334 643.844,581.167 628.5,582C 614.481,584.092 602.648,590.258 593,600.5C 589.289,605.59 586.956,611.257 586,617.5C 585.667,641.5 585.333,665.5 585,689.5C 580.973,708.998 570.139,722.998 552.5,731.5C 550.558,726.944 549.892,721.944 550.5,716.5C 561.162,708.962 567.662,698.628 570,685.5C 570.333,663.833 570.667,642.167 571,620.5C 573.042,609.247 578.542,600.081 587.5,593C 593.732,588.385 600.399,584.552 607.5,581.5C 608.043,581.44 608.376,581.107 608.5,580.5C 568.506,579.5 528.506,579.167 488.5,579.5C 488.5,575.167 488.5,570.833 488.5,566.5C 524.506,566.833 560.506,566.5 596.5,565.5C 596.043,564.702 595.376,564.369 594.5,564.5C 575.697,552.927 565.53,535.927 564,513.5C 563.667,497.5 563.333,481.5 563,465.5C 557.881,433.714 539.381,415.214 507.5,410C 480.502,409.5 453.502,409.333 426.5,409.5C 426.5,404.5 426.5,399.5 426.5,394.5C 452.833,394.5 479.167,394.5 505.5,394.5 Z"/></g>
<g><path style="opacity:1" fill="#1f2020" d="M 1068.5,467.5 C 1068.56,466.957 1068.89,466.624 1069.5,466.5C 1070.5,538.497 1070.83,610.497 1070.5,682.5C 1069.83,610.833 1069.17,539.167 1068.5,467.5 Z"/></g>
<g><path style="opacity:1" fill="#b2b3b2" d="M 673.5,562.5 C 674.404,563.209 674.737,564.209 674.5,565.5C 658.991,565.83 643.658,565.496 628.5,564.5C 643.871,565.15 658.871,564.484 673.5,562.5 Z"/></g>
<g><path style="opacity:1" fill="#454546" d="M 594.5,564.5 C 595.376,564.369 596.043,564.702 596.5,565.5C 560.506,566.5 524.506,566.833 488.5,566.5C 488.5,566.167 488.5,565.833 488.5,565.5C 524.004,565.832 559.337,565.498 594.5,564.5 Z"/></g>
<g><path style="opacity:1" fill="#aaadab" d="M 488.5,565.5 C 488.5,565.833 488.5,566.167 488.5,566.5C 488.5,570.833 488.5,575.167 488.5,579.5C 528.506,579.167 568.506,579.5 608.5,580.5C 608.376,581.107 608.043,581.44 607.5,581.5C 567.67,580.501 527.67,580.168 487.5,580.5C 487.179,575.305 487.513,570.305 488.5,565.5 Z"/></g>
<g><path style="opacity:1" fill="#e4e3e4" d="M 1085.5,439.5 C 1086.83,523.001 1086.83,606.668 1085.5,690.5C 1084.89,690.376 1084.56,690.043 1084.5,689.5C 1085.5,606.335 1085.83,523.002 1085.5,439.5 Z"/></g>
<g><path style="opacity:1" fill="#4d4d4d" d="M 422.5,604.5 C 423.043,604.56 423.376,604.893 423.5,605.5C 377.838,606.5 332.172,606.833 286.5,606.5C 331.833,605.833 377.167,605.167 422.5,604.5 Z"/></g>
<g><path style="opacity:1" fill="#0c0d0c" d="M 792.5,622.5 C 808.837,622.333 825.17,622.5 841.5,623C 843.286,623.785 844.786,624.951 846,626.5C 846.667,643.167 846.667,659.833 846,676.5C 845.535,677.931 844.701,679.097 843.5,680C 826.258,681.638 808.925,681.971 791.5,681C 790.333,679.833 789.167,678.667 788,677.5C 787.333,660.833 787.333,644.167 788,627.5C 789.025,625.313 790.525,623.646 792.5,622.5 Z"/></g>
<g><path style="opacity:1" fill="#0d0d0d" d="M 876.5,622.5 C 892.837,622.333 909.17,622.5 925.5,623C 927.848,623.346 929.681,624.513 931,626.5C 931.667,643.167 931.667,659.833 931,676.5C 930.535,677.931 929.701,679.097 928.5,680C 919.596,681.14 910.596,681.64 901.5,681.5C 893.167,681.333 884.833,681.167 876.5,681C 875.584,680.626 874.75,680.126 874,679.5C 872.361,661.924 872.028,644.258 873,626.5C 874.376,625.295 875.542,623.962 876.5,622.5 Z"/></g>
<g><path style="opacity:1" fill="#0c0c0c" d="M 961.5,622.5 C 977.837,622.333 994.17,622.5 1010.5,623C 1012.29,623.785 1013.79,624.951 1015,626.5C 1015.67,643.833 1015.67,661.167 1015,678.5C 1014.5,679 1014,679.5 1013.5,680C 1004.43,681.141 995.263,681.641 986,681.5C 977.5,681.333 969,681.167 960.5,681C 960,680.5 959.5,680 959,679.5C 957.361,661.924 957.028,644.258 958,626.5C 959.376,625.295 960.542,623.962 961.5,622.5 Z"/></g>
<g><path style="opacity:1" fill="#111111" d="M 1034.5,695.5 C 1044.51,695.334 1054.51,695.5 1064.5,696C 1070.11,697.282 1074.28,700.449 1077,705.5C 1078.56,711.083 1079.73,716.749 1080.5,722.5C 1084.32,724.609 1088.32,725.776 1092.5,726C 1096.5,723 1100.5,720 1104.5,717C 1110.67,715.646 1116.33,716.646 1121.5,720C 1129.4,727.234 1136.57,735.067 1143,743.5C 1143.67,746.167 1143.67,748.833 1143,751.5C 1140.65,757.829 1137.49,763.662 1133.5,769C 1134.86,772.35 1136.2,775.683 1137.5,779C 1144.13,779.618 1150.47,781.284 1156.5,784C 1158.71,785.873 1160.54,788.04 1162,790.5C 1163.62,802.404 1163.96,814.404 1163,826.5C 1160.83,831.333 1157.33,834.833 1152.5,837C 1147.23,838.234 1141.9,839.067 1136.5,839.5C 1135.91,842.945 1134.91,846.279 1133.5,849.5C 1136.15,854.799 1139.32,859.799 1143,864.5C 1143.97,871.253 1142.3,877.253 1138,882.5C 1131.86,887.634 1126.03,893.134 1120.5,899C 1115.09,901.444 1109.43,902.11 1103.5,901C 1099.17,897.833 1094.83,894.667 1090.5,891.5C 1087.17,892.833 1083.83,894.167 1080.5,895.5C 1079.17,900.794 1078,906.128 1077,911.5C 1074.06,917.558 1069.23,921.058 1062.5,922C 1052.11,922.899 1041.77,922.566 1031.5,921C 1026.45,918.28 1023.28,914.113 1022,908.5C 1020.92,904.23 1020.42,899.897 1020.5,895.5C 1016.65,895.051 1013.15,893.717 1010,891.5C 1006.25,893.626 1002.75,896.126 999.5,899C 993.353,903.193 987.02,903.526 980.5,900C 973.279,892.779 966.113,885.613 959,878.5C 957.508,873.589 957.174,868.589 958,863.5C 961.1,858.962 963.933,854.295 966.5,849.5C 965.093,846.279 964.093,842.945 963.5,839.5C 942.537,840.206 933.537,830.206 936.5,809.5C 933.544,788.788 942.544,778.788 963.5,779.5C 963.887,775.945 964.887,772.612 966.5,769.5C 965.242,766.4 963.742,763.4 962,760.5C 960.875,751.913 961.875,743.579 965,735.5C 970.5,728.667 976.667,722.5 983.5,717C 987.167,716.333 990.833,716.333 994.5,717C 999.656,720.151 1004.82,723.318 1010,726.5C 1012.98,724.958 1016.15,723.791 1019.5,723C 1018.95,710.587 1023.95,701.42 1034.5,695.5 Z"/></g>
<g><path style="opacity:1" fill="#0d0d0d" d="M 791.5,706.5 C 808.17,706.333 824.837,706.5 841.5,707C 843.286,707.785 844.786,708.951 846,710.5C 846.667,727.167 846.667,743.833 846,760.5C 845.535,761.931 844.701,763.097 843.5,764C 826.258,765.638 808.925,765.971 791.5,765C 790.667,764.167 789.833,763.333 789,762.5C 787.362,745.258 787.029,727.925 788,710.5C 789.376,709.295 790.542,707.962 791.5,706.5 Z"/></g>
<g><path style="opacity:1" fill="#0d0d0d" d="M 876.5,706.5 C 893.17,706.333 909.837,706.5 926.5,707C 928.286,707.785 929.786,708.951 931,710.5C 931.667,727.167 931.667,743.833 931,760.5C 930.535,761.931 929.701,763.097 928.5,764C 911.258,765.638 893.925,765.971 876.5,765C 875.333,763.833 874.167,762.667 873,761.5C 872.333,744.5 872.333,727.5 873,710.5C 873.69,708.65 874.856,707.316 876.5,706.5 Z"/></g>
<g><path style="opacity:1" fill="#f7f7f7" d="M 1038.5,711.5 C 1046.17,711.334 1053.84,711.5 1061.5,712C 1062,712.5 1062.5,713 1063,713.5C 1063.35,719.638 1064.35,725.638 1066,731.5C 1069.8,735.885 1074.63,738.385 1080.5,739C 1085.13,743.072 1090.47,744.405 1096.5,743C 1100.65,739.425 1104.99,736.091 1109.5,733C 1110.5,732.333 1111.5,732.333 1112.5,733C 1115.33,737.167 1118.83,740.667 1123,743.5C 1124.4,745.394 1125.57,747.394 1126.5,749.5C 1123.59,754.3 1120.43,758.967 1117,763.5C 1116.83,764.833 1116.67,766.167 1116.5,767.5C 1119.3,774.753 1121.8,782.087 1124,789.5C 1125.54,791.378 1127.38,792.878 1129.5,794C 1135.45,794.795 1141.28,795.962 1147,797.5C 1147.67,805.5 1147.67,813.5 1147,821.5C 1140.91,822.848 1134.74,824.015 1128.5,825C 1127,826.5 1125.5,828 1124,829.5C 1122.44,835.512 1120.11,841.179 1117,846.5C 1116.33,849.167 1116.33,851.833 1117,854.5C 1120,858.833 1123,863.167 1126,867.5C 1126.67,868.833 1126.67,870.167 1126,871.5C 1121.25,876.752 1116.09,881.418 1110.5,885.5C 1105.7,882.594 1101.03,879.428 1096.5,876C 1094.72,875.296 1092.89,874.796 1091,874.5C 1084.32,877.393 1077.49,879.893 1070.5,882C 1068.29,883.873 1066.46,886.04 1065,888.5C 1064.03,894.411 1062.87,900.244 1061.5,906C 1053.83,906.667 1046.17,906.667 1038.5,906C 1038,905.5 1037.5,905 1037,904.5C 1036.77,897.567 1035.44,890.901 1033,884.5C 1025.58,881.915 1018.41,878.748 1011.5,875C 1004.3,875.267 998.299,878.267 993.5,884C 991.635,885.301 989.635,885.635 987.5,885C 982.248,880.254 977.582,875.087 973.5,869.5C 975.821,864.864 978.655,860.531 982,856.5C 982.958,854.801 983.458,852.967 983.5,851C 981.159,843.809 978.659,836.642 976,829.5C 974.833,828.333 973.667,827.167 972.5,826C 965.919,824.572 959.419,823.072 953,821.5C 952.333,813.5 952.333,805.5 953,797.5C 953.5,797 954,796.5 954.5,796C 960.614,795.487 966.614,794.487 972.5,793C 973.667,791.833 974.833,790.667 976,789.5C 977.414,783.206 979.748,777.206 983,771.5C 983.667,769.167 983.667,766.833 983,764.5C 980.247,759.992 977.247,755.659 974,751.5C 973.333,750.167 973.333,748.833 974,747.5C 979.044,742.121 984.377,737.121 990,732.5C 994.489,735.652 998.989,738.819 1003.5,742C 1005.03,742.923 1006.7,743.423 1008.5,743.5C 1015.67,740.385 1023,737.552 1030.5,735C 1032.73,733.773 1034.23,731.939 1035,729.5C 1035.36,723.218 1036.53,717.218 1038.5,711.5 Z"/></g>
<g><path style="opacity:1" fill="#898a89" d="M 550.5,716.5 C 549.892,721.944 550.558,726.944 552.5,731.5C 551.791,732.404 550.791,732.737 549.5,732.5C 549.179,726.974 549.512,721.64 550.5,716.5 Z"/></g>
<g><path style="opacity:1" fill="#0f0f0f" d="M 1042.5,764.5 C 1068.49,763.336 1085.65,775.003 1094,799.5C 1096.7,819.248 1090.2,835.081 1074.5,847C 1048.7,859.981 1027.53,854.814 1011,831.5C 1000.08,807.1 1005.24,786.934 1026.5,771C 1031.74,768.315 1037.08,766.148 1042.5,764.5 Z"/></g>
<g><path style="opacity:1" fill="#f6f6f6" d="M 1042.5,780.5 C 1067.23,779.394 1079.06,791.061 1078,815.5C 1073.19,831.5 1062.36,839 1045.5,838C 1027,832.849 1019.16,820.682 1022,801.5C 1025.66,791.341 1032.49,784.341 1042.5,780.5 Z"/></g>
<g><path style="opacity:1" fill="#121212" d="M 289.5,618.5 C 364.501,618.333 439.501,618.5 514.5,619C 525.405,621.572 532.905,628.072 537,638.5C 537.667,702.5 537.667,766.5 537,830.5C 533.48,841.012 526.313,847.512 515.5,850C 439.833,850.667 364.167,850.667 288.5,850C 277.333,846.833 270.167,839.667 267,828.5C 266.333,765.833 266.333,703.167 267,640.5C 270.455,628.876 277.955,621.543 289.5,618.5 Z"/></g>
<g><path style="opacity:1" fill="#e0e0e0" d="M 516.5,637.5 C 518.752,637.916 520.252,639.249 521,641.5C 521.832,703.668 521.665,765.668 520.5,827.5C 520.667,765.832 520.5,704.166 520,642.5C 519.311,643.357 518.478,644.023 517.5,644.5C 516.708,642.535 516.041,640.535 515.5,638.5C 515.624,637.893 515.957,637.56 516.5,637.5 Z"/></g>
<g><path style="opacity:1" fill="#f7f7f7" d="M 516.5,637.5 C 515.957,637.56 515.624,637.893 515.5,638.5C 516.041,640.535 516.708,642.535 517.5,644.5C 518.478,644.023 519.311,643.357 520,642.5C 520.5,704.166 520.667,765.832 520.5,827.5C 519.212,831.282 516.545,833.449 512.5,834C 438.5,834.667 364.5,834.667 290.5,834C 286.915,832.084 284.415,829.251 283,825.5C 282.333,764.5 282.333,703.5 283,642.5C 284.892,638.942 287.725,636.442 291.5,635C 365.167,634.333 438.833,634.333 512.5,635C 514.32,635.2 515.653,636.034 516.5,637.5 Z"/></g>
<g><path style="opacity:1" fill="#0e0e0e" d="M 431.5,715.5 C 435.516,714.9 439.016,715.9 442,718.5C 460.333,743.833 478.667,769.167 497,794.5C 499.269,798.714 498.769,802.547 495.5,806C 434.249,807.659 372.916,807.992 311.5,807C 306.931,804.459 305.431,800.625 307,795.5C 322.048,777.241 337.214,759.074 352.5,741C 355.634,740.21 358.634,740.543 361.5,742C 369.167,751 376.833,760 384.5,769C 386.167,769.667 387.833,769.667 389.5,769C 403.629,751.227 417.629,733.394 431.5,715.5 Z"/></g>
<g><path style="opacity:1" fill="#101010" d="M 340.5,666.5 C 356.069,664.359 366.235,670.693 371,685.5C 371.22,703.946 362.054,713.113 343.5,713C 328.636,708.786 322.136,698.953 324,683.5C 327.689,675.979 333.189,670.312 340.5,666.5 Z"/></g>
</svg>
