<?xml version="1.0" encoding="UTF-8"?>
<svg id="Layer_1" xmlns="http://www.w3.org/2000/svg" version="1.1" xmlns:xlink="http://www.w3.org/1999/xlink" viewBox="0 0 1254 1254">
  <!-- Generator: Adobe Illustrator 29.3.1, SVG Export Plug-In . SVG Version: 2.1.0 Build 151)  -->
  <defs>
    <style>
      .st0 {
        fill: #00559f;
      }

      .st0, .st1 {
        fill-rule: evenodd;
      }

      .st1 {
        fill: #f7f7f7;
      }
    </style>
  </defs>
  <path class="st0" d="M964.3,113.9c.8,196.2,0,392.1-2.4,587.5-9.6-7.9-20.6-13.4-32.9-16.5.8-169.2,0-338.4-2.4-507.6-1.4.3-2.2,1.1-2.4,2.4-49,24.6-100.7,41.4-155.1,50.5-152.6,22.6-305.4,23.4-458.3,2.4-40.7-7.3-80.6-17.5-119.9-30.6-15.7-6.5-31-13.9-45.8-22.3-1.6,247.5-1.6,495.1,0,742.6,14.7,19.7,33.9,33.4,57.6,41.1,78.5,26.3,159.2,41.2,242.1,44.7,45.4,1.2,90.9,1.6,136.3,1.2.2,12.2,2.6,23.9,7.1,35.3-95.3,4.7-190.1-.4-284.4-15.3-59.2-8.1-114-27.7-164.5-58.8-15.5-11.1-25.7-25.6-30.6-43.5-.8-275.8,0-551.6,2.4-827.3,11.4-17.2,26.2-30.9,44.7-41.1,33.9-15.7,69.2-27.5,105.8-35.3C375.7,1.1,490.9-6.8,607.1,0c100,1.5,197.2,18.8,291.4,51.7,31.6,10.9,53.5,31.6,65.8,62.3Z"/>
  <path class="st0" d="M470.8,34c104.1-1.9,207.5,5.5,310.2,22.3,47.7,7.4,92.4,23.1,134,47,15.8,15.4,14.2,29.5-4.7,42.3-34.1,18.4-70.1,31.7-108.1,40-170.5,33.8-341.3,35.3-512.3,4.7-45.5-8-88.6-22.9-129.3-44.7-20.6-14.3-21.3-29.2-2.4-44.7,35.8-21.1,74.2-35.2,115.2-42.3,65.7-12.1,131.5-20.3,197.4-24.7Z"/>
  <path class="st0" d="M111.2,99.8c-2.3,275.7-3.1,551.5-2.4,827.3-2.7-273-3.1-546.4-1.2-820.2.5-2.9,1.7-5.3,3.5-7.1Z"/>
  <path class="st0" d="M273.4,346.6c39.2-.4,78.3,0,117.5,1.2,3.4,1.1,6.1,3.1,8.2,5.9,3.8,39.7,4.6,79.7,2.4,119.9-1.8,4.2-4.6,7.7-8.2,10.6-40,1.6-79.9,1.6-119.9,0l-5.9-5.9c-3.8-39.7-4.6-79.7-2.4-119.9,2.3-4.3,5.1-8.2,8.2-11.8Z"/>
  <path class="st0" d="M473.2,346.6c38.4-.4,76.8,0,115.2,1.2,5.5.8,9.8,3.6,12.9,8.2,1.6,39.2,1.6,78.3,0,117.5-1.8,4.2-4.6,7.7-8.2,10.6-40,1.6-79.9,1.6-119.9,0-2.2-.9-4.1-2.1-5.9-3.5-3.9-41.3-4.6-82.8-2.4-124.6,3.2-2.8,6-6,8.2-9.4Z"/>
  <path class="st0" d="M672.9,346.6c38.4-.4,76.8,0,115.2,1.2,4.2,1.8,7.7,4.6,10.6,8.2,1.6,40,1.6,79.9,0,119.9-.9,2.2-2,4.1-3.5,5.9-20.9,2.7-42.1,3.9-63.5,3.5-19.6-.4-39.2-.8-58.8-1.2-2.2-.9-4.1-2.1-5.9-3.5-3.9-41.3-4.6-82.8-2.4-124.6,3.2-2.8,6-6,8.2-9.4Z"/>
  <path class="st0" d="M924.4,179.7c.1-1.3.9-2.1,2.4-2.4,2.4,169.2,3.1,338.4,2.4,507.6-1.6-168.4-3.1-336.9-4.7-505.3Z"/>
  <path class="st0" d="M964.3,113.9c3.1,196.2,3.1,392.9,0,589.9-1.4-.3-2.2-1.1-2.4-2.4,2.4-195.5,3.1-391.3,2.4-587.5Z"/>
  <path class="st0" d="M275.7,544c38.4-.4,76.8,0,115.2,1.2,4.2,1.8,7.7,4.6,10.6,8.2,1.6,39.2,1.6,78.3,0,117.5-1.1,3.4-3.1,6.1-5.9,8.2-40.5,3.8-81.3,4.6-122.2,2.4l-8.2-8.2c-1.6-39.2-1.6-78.3,0-117.5,2.4-5.1,5.9-9.1,10.6-11.8Z"/>
  <path class="st0" d="M473.2,544c38.4-.4,76.8,0,115.2,1.2,5.5.8,9.8,3.6,12.9,8.2,1.6,39.2,1.6,78.3,0,117.5-1.1,3.4-3.1,6.1-5.9,8.2-20.9,2.7-42.1,3.9-63.5,3.5-19.6-.4-39.2-.8-58.8-1.2-2.2-.9-4.1-2.1-5.9-3.5-3.9-41.3-4.6-82.8-2.4-124.6,3.2-2.8,6-6,8.2-9.4Z"/>
  <path class="st0" d="M672.9,544c38.4-.4,76.8,0,115.2,1.2,4.2,1.8,7.7,4.6,10.6,8.2,1.6,40.7,1.6,81.5,0,122.2-1.2,1.2-2.4,2.4-3.5,3.5-21.3,2.7-42.9,3.9-64.6,3.5-20-.4-40-.8-59.9-1.2l-3.5-3.5c-3.9-41.3-4.6-82.8-2.4-124.6,3.2-2.8,6-6,8.2-9.4Z"/>
  <path class="st0" d="M844.5,715.5c23.5-.4,47,0,70.5,1.2,13.2,3,23,10.5,29.4,22.3,3.7,13.1,6.4,26.4,8.2,40,9,5,18.4,7.7,28.2,8.2,9.4-7.1,18.8-14.1,28.2-21.2,14.5-3.2,27.8-.8,40,7.1,18.6,17,35.4,35.4,50.5,55.2,1.6,6.3,1.6,12.5,0,18.8-5.5,14.9-12.9,28.6-22.3,41.1,3.2,7.9,6.3,15.7,9.4,23.5,15.6,1.5,30.5,5.4,44.7,11.8,5.2,4.4,9.5,9.5,12.9,15.3,3.8,28,4.6,56.2,2.4,84.6-5.1,11.4-13.3,19.6-24.7,24.7-12.4,2.9-24.9,4.9-37.6,5.9-1.4,8.1-3.7,15.9-7.1,23.5,6.2,12.5,13.7,24.2,22.3,35.3,2.3,15.9-1.6,30-11.8,42.3-14.4,12.1-28.1,25-41.1,38.8-12.7,5.7-26,7.3-40,4.7-10.2-7.4-20.4-14.9-30.6-22.3-7.8,3.1-15.7,6.3-23.5,9.4-3.1,12.4-5.9,25-8.2,37.6-6.9,14.2-18.3,22.5-34.1,24.7-24.4,2.1-48.7,1.3-72.9-2.4-11.9-6.4-19.3-16.2-22.3-29.4-2.5-10-3.7-20.2-3.5-30.6-9-1.1-17.3-4.2-24.7-9.4-8.8,5-17,10.9-24.7,17.6-14.4,9.9-29.3,10.6-44.7,2.4-17-17-33.8-33.8-50.5-50.5-3.5-11.5-4.3-23.3-2.4-35.3,7.3-10.7,13.9-21.6,20-32.9-3.3-7.6-5.7-15.4-7.1-23.5-49.3,1.7-70.4-21.8-63.5-70.5-6.9-48.7,14.2-72.2,63.5-70.5.9-8.4,3.3-16.2,7.1-23.5-3-7.3-6.5-14.3-10.6-21.2-2.6-20.2-.3-39.8,7.1-58.8,12.9-16.1,27.4-30.6,43.5-43.5,8.6-1.6,17.2-1.6,25.9,0,12.1,7.4,24.3,14.8,36.4,22.3,7-3.6,14.5-6.4,22.3-8.2-1.3-29.2,10.5-50.7,35.3-64.6Z"/>
  <path class="st0" d="M273.4,741.4c39.2-.4,78.3,0,117.5,1.2,4.2,1.8,7.7,4.6,10.6,8.2,1.6,39.2,1.6,78.3,0,117.5-1.1,3.4-3.1,6.1-5.9,8.2-40.5,3.8-81.3,4.6-122.2,2.4l-5.9-5.9c-3.8-40.5-4.6-81.3-2.4-122.2,3.2-2.8,6-6,8.2-9.4Z"/>
  <path class="st0" d="M473.2,741.4c39.2-.4,78.3,0,117.5,1.2,4.2,1.8,7.7,4.6,10.6,8.2,1.6,39.2,1.6,78.3,0,117.5-1.1,3.4-3.1,6.1-5.9,8.2-40.5,3.8-81.3,4.6-122.2,2.4l-8.2-8.2c-1.6-40-1.6-79.9,0-119.9,1.6-4.3,4.4-7.5,8.2-9.4Z"/>
  <path class="st1" d="M853.9,753.1c18-.4,36.1,0,54.1,1.2l3.5,3.5c.8,14.4,3.2,28.5,7.1,42.3,8.9,10.3,20.3,16.2,34.1,17.6,10.9,9.6,23.4,12.7,37.6,9.4,9.8-8.4,20-16.2,30.6-23.5,2.4-1.6,4.7-1.6,7.1,0,6.7,9.8,14.9,18,24.7,24.7,3.3,4.5,6,9.2,8.2,14.1-6.8,11.3-14.3,22.2-22.3,32.9-.4,3.1-.8,6.3-1.2,9.4,6.6,17,12.5,34.3,17.6,51.7,3.6,4.4,7.9,7.9,12.9,10.6,14,1.9,27.7,4.6,41.1,8.2,1.6,18.8,1.6,37.6,0,56.4-14.3,3.2-28.8,5.9-43.5,8.2l-10.6,10.6c-3.7,14.1-9.1,27.4-16.5,40-1.6,6.3-1.6,12.5,0,18.8,7.1,10.2,14.1,20.4,21.2,30.6,1.6,3.1,1.6,6.3,0,9.4-11.2,12.3-23.3,23.3-36.4,32.9-11.3-6.8-22.3-14.3-32.9-22.3-4.2-1.7-8.5-2.8-12.9-3.5-15.7,6.8-31.8,12.7-48.2,17.6-5.2,4.4-9.5,9.5-12.9,15.3-2.3,13.9-5,27.6-8.2,41.1-18,1.6-36,1.6-54.1,0l-3.5-3.5c-.5-16.3-3.7-32-9.4-47-17.4-6.1-34.3-13.5-50.5-22.3-16.9.6-31,7.7-42.3,21.2-4.4,3.1-9.1,3.8-14.1,2.4-12.3-11.2-23.3-23.3-32.9-36.4,5.5-10.9,12.1-21.1,20-30.6,2.3-4,3.4-8.3,3.5-12.9-5.5-16.9-11.4-33.7-17.6-50.5-2.7-2.7-5.5-5.5-8.2-8.2-15.5-3.4-30.7-6.9-45.8-10.6-1.6-18.8-1.6-37.6,0-56.4l3.5-3.5c14.4-1.2,28.5-3.6,42.3-7.1,2.7-2.7,5.5-5.5,8.2-8.2,3.3-14.8,8.8-28.9,16.5-42.3,1.6-5.5,1.6-11,0-16.5-6.5-10.6-13.5-20.8-21.2-30.6-1.6-3.1-1.6-6.3,0-9.4,11.9-12.6,24.4-24.4,37.6-35.3,10.5,7.4,21.1,14.9,31.7,22.3,3.6,2.2,7.5,3.3,11.8,3.5,16.9-7.3,34.1-14,51.7-20,5.2-2.9,8.8-7.2,10.6-12.9.8-14.8,3.6-28.9,8.2-42.3Z"/>
  <path class="st0" d="M863.3,877.7c61.1-2.7,101.4,24.7,121,82.3,6.3,46.4-8.9,83.6-45.8,111.6-60.6,30.5-110.4,18.4-149.2-36.4-25.7-57.3-13.5-104.7,36.4-142.2,12.3-6.3,24.9-11.4,37.6-15.3Z"/>
  <path class="st0" d="M863.3,915.3c58.1-2.6,85.9,24.8,83.4,82.3-11.3,37.6-36.8,55.2-76.4,52.9-43.5-12.1-61.9-40.7-55.2-85.8,8.6-23.9,24.7-40.3,48.2-49.4Z"/>
</svg>