<?xml version="1.0" encoding="UTF-8"?>
<svg id="Layer_1" xmlns="http://www.w3.org/2000/svg" version="1.1" xmlns:xlink="http://www.w3.org/1999/xlink" viewBox="0 0 1254 1254">
  <!-- Generator: Adobe Illustrator 29.3.1, SVG Export Plug-In . SVG Version: 2.1.0 Build 151)  -->
  <defs>
    <style>
      .st0 {
        fill: #ff1f26;
      }

      .st0, .st1 {
        fill-rule: evenodd;
      }

      .st1 {
        fill: #f9f9f9;
      }
    </style>
  </defs>
  <path class="st0" d="M786,115.9c143.4-.2,286.8,0,430.1.7,1.6.3,2.9,1,3.9,2-146-1.7-292-1.7-437.9,0,1.3-.9,2.6-1.7,3.9-2.6Z"/>
  <path class="st1" d="M1220,118.5c9.1,2.9,14.9,8.9,17.6,18.2.7,302.8.9,605.6.7,908.5-1.3,13-8.3,21.3-20.9,24.8-145.6.4-291.1,0-436.6-1.3-6.7-2.9-11.7-7.7-15-14.3-.4-1.7-.9-3.5-1.3-5.2-.9-304.1-.9-608.3,0-912.4,3.5-8.5,9.4-14.6,17.6-18.2,146-1.7,292-1.7,437.9,0Z"/>
  <path class="st0" d="M1257.8,1049.1V140.6c2.1-1.4,3.2-3.6,3.3-6.5.4.4.9.9,1.3,1.3,1.1,305.9.9,611.7-.7,917.6-1.1-2.5-1.7-5.1-2-7.8-.3,1.6-1,2.9-2,3.9Z"/>
  <path class="st0" d="M1235.6,141.9c1.5,301.3,1.7,602.8.7,904.6l-2-2c1.3-301,1.7-601.8,1.3-902.6Z"/>
  <path class="st0" d="M610,208.4c13.3-1,17.7,4.6,13,16.9-100.9,71.8-162.8,169.1-185.7,292-1.8,9.1-3.1,18.2-3.9,27.4-3.2,6.2-8.2,8.1-15,5.9l-3.3-3.3c12.1-121.7,63.2-223.6,153.2-305.6,13.8-11.4,27.7-22.5,41.7-33.2Z"/>
  <path class="st0" d="M817.3,233.2c13.7-2.2,20,3.5,18.9,16.9-8.1,12.1-16.4,12.1-24.8,0-1.7-7,.2-12.6,5.9-16.9Z"/>
  <path class="st0" d="M882.4,238.4c13.7-1.3,19.6,4.8,17.6,18.2-3.8,7.2-9.7,9.6-17.6,7.2-10.4-8.6-10.4-17.1,0-25.4Z"/>
  <path class="st0" d="M942.4,254c3.5-.2,7,0,10.4.7,9.5,6.7,10.4,14.5,2.6,23.5-14.9,4.6-21.7-.8-20.2-16.3,1.8-3.3,4.2-5.9,7.2-7.8Z"/>
  <path class="st0" d="M995.8,278.8c6.9-1.2,12.7.5,17.6,5.2,3.7,14.1-1.7,20.8-16.3,20.2-11.5-7.9-12-16.4-1.3-25.4Z"/>
  <path class="st0" d="M1045.3,312.7c13.5-1.9,19.4,3.8,17.6,16.9-6.7,10.8-14.5,11.7-23.5,2.6-3.8-8.4-1.9-14.9,5.9-19.6Z"/>
  <path class="st0" d="M818.6,351.8c17.3,0,22,7.6,14.3,22.8-15,6.1-22.2,1.1-21.5-15,2.2-2.9,4.6-5.5,7.2-7.8Z"/>
  <path class="st0" d="M1089.7,353.1c13.9.7,18.9,7.6,15,20.9-8.2,7.2-16,6.8-23.5-1.3-.9-3.9-.9-7.8,0-11.7,2.7-2.9,5.5-5.5,8.5-7.8Z"/>
  <path class="st0" d="M869.4,355.7c15.4.3,20.4,7.7,15,22.2-12.6,8.8-20.6,5.8-24.1-9.1,1-5.8,4-10.1,9.1-13Z"/>
  <path class="st0" d="M915,371.3c15.5-1.7,21.3,4.8,17.6,19.6-7.1,7.9-14.4,8.4-22.2,1.3-3.7-8.2-2.2-15.2,4.6-20.9Z"/>
  <path class="st0" d="M958,396.1c12.2-1.5,18.5,3.7,18.9,15.6-2.9,8.4-8.8,11.6-17.6,9.8-7.3-4.3-9.7-10.6-7.2-18.9,2.2-2,4.2-4.2,5.9-6.5Z"/>
  <path class="st0" d="M1122.2,401.3c8.6-1.7,14.9,1.4,18.9,9.1-.1,13.7-6.9,18.7-20.2,15-7.3-8.5-6.8-16.5,1.3-24.1Z"/>
  <path class="st0" d="M129.1,420.9c31.1,1.3,41.3,16.5,30.6,45.6-14.8,15.1-30,15.5-45.6,1.3-11.3-21-6.3-36.7,15-46.9Z"/>
  <path class="st0" d="M995.8,428.7c12.6-1.1,18.5,4.6,17.6,16.9-3.6,8.5-9.9,11.4-18.9,8.5-6.1-4.4-8.1-10.2-5.9-17.6,1.8-3.3,4.2-5.9,7.2-7.8Z"/>
  <path class="st0" d="M534.4,516c-2.1,4.9-3.4,10.1-3.9,15.6-19,110.1,3.8,210.5,68.4,301.1,24.2,31.6,52.8,58.1,86,79.5,3.5,11.3-.6,16.3-12.4,15-81.9-56.3-134.7-133-158.4-230.1-8.4-37.3-11.6-75.1-9.8-113.4,1.6-8,2.5-16.2,2.6-24.8,10.4-91.9,49.1-169.9,116-234,15.9-15.2,33.5-28.1,52.8-38.5,8.4.5,11.8,4.9,10.4,13-1,2.3-2.5,4.3-4.6,5.9-76.2,51-125.3,121.2-147.3,210.5Z"/>
  <path class="st0" d="M1149.6,453.5c8.1-1.3,14,1.8,17.6,9.1.2,12.8-6.1,18.2-18.9,16.3-9.1-9.1-8.6-17.6,1.3-25.4Z"/>
  <path class="st0" d="M1023.2,467.8c17.9-1,23.1,6.6,15.6,22.8-15.3,6.8-22.5,1.8-21.5-15,1.7-2.8,3.7-5.4,5.9-7.8Z"/>
  <path class="st0" d="M783.4,97.6c-1,1-2.3,1.7-3.9,2,1.1.2,2.2.4,3.3.7,8.2-1.9,16.3-1.7,24.1.7-1.6,2.8-3.3,5.4-5.2,7.8,1.5,1.3,1,2.2-1.3,2.6,3.5.9,7,.9,10.4,0-2.3-1.8-3.2-3.8-2.6-5.9,4.3,1,8.6,1.6,13,2,2.1,1.1,2.6,2.4,1.3,3.9,70.4.9,140.8.9,211.2,0-.7-.9-1.6-1.6-2.6-2-7.1,1.1-14,1.4-20.9.7-1.7-1.8-1.3-3.1,1.3-3.9-.8-1-1.5-2.1-2-3.3-1,.8-2.1,1.5-3.3,2,.4.4.9.9,1.3,1.3-1.9.9-2.8,2.4-2.6,4.6-3.7.2-5.4-1.1-5.2-3.9-4.3,5.5-6.5,4.6-6.5-2.6,1.5.3,2.8-.1,3.9-1.3-.4-.4-.9-.9-1.3-1.3-8.2.2-16.5.4-24.8.7-1.2,2.7-1.6,5.5-1.3,8.5-3.2.6-5.8-.3-7.8-2.6,3.5-1.3,3.5-2.6,0-3.9-2.2,1.8-3.1,3.8-2.6,5.9-2.1.6-4.3.9-6.5.7.2-1.4,0-2.7-.7-3.9-3,4.9-6.3,4.9-9.8,0,.8-1.7,2.1-2.8,3.9-3.3-3.7-2.7-5.4-1.6-5.2,3.3-3.9-.2-7.8,0-11.7.7-.6,1.5-1.7,2.6-3.3,3.3h-13c-1.9-1.2-3.2-3-3.9-5.2-4,1.2-8.1,1.7-12.4,1.3v3.9c-3.1-1.7-6.2-3.2-9.1-4.6,1.7-1.8,1.3-3.1-1.3-3.9-10.1-.2-20.1-.4-30-.7-1.2,1.5-1.6,3.3-1.3,5.2-1.5,1.7-4.2,3-7.8,3.9-.2-2.1.7-3.6,2.6-4.6-1.1-1.1-2.2-2.2-3.3-3.3-2.5,3.2-5.5,5.8-9.1,7.8-3.4-1.5-6.7-3.2-9.8-5.2,1.8-1.5,1.5-2.8-.7-3.9-1.1,4.1-2.6,4.5-4.6,1.3-8.6-1.5-8.6-2.6,0-3.3,126.4-1.1,252.9-.9,379.3.7-2.1,4-4.7,7.7-7.8,11.1,1.7.4,3.5.9,5.2,1.3-136,.4-272,.9-408,1.3-2.9.1-4.7.8-5.2,2-1.3.9-2.6,1.7-3.9,2.6-8.2,3.7-14.1,9.8-17.6,18.2-.9,304.1-.9,608.3,0,912.4.4,1.7.9,3.5,1.3,5.2,3.3,6.7,8.3,11.5,15,14.3,1.3.9,2.6,1.7,3.9,2.6.5.9,1.4,1.6,2.6,2,136,.4,272,.9,408,1.3,6.6.2,13.1.9,19.6,2l3.9,7.8c-.4.9-.9,1.7-1.3,2.6-144.7,1.1-289.4,1.7-434,2,72.6.2,145.1.4,217.7.7,73.5,0,147-.9,220.3-2.6,1.2,0,2.1.5,2.6,1.3-2.6,1.9-5.7,2.7-9.1,2.6h-427.5c-20.5-3.1-33.9-14.4-40.4-33.9,1-1.9,1.7-4.1,2-6.5,1.3-.6,2.8-.8,4.6-.7,1-2.6,2.8-4.5,5.2-5.9,1.7-70.4,1.7-140.8,0-211.2-2.1-1.4-3.2-.5-3.3,2.6-.4-1.3-.9-2.6-1.3-3.9-1.6,5.5-3.8,10.7-6.5,15.6-.4-41.7-.9-83.4-1.3-125.1-.7,110.4-.9,220.7-.7,331.1-1.1-110.6-1.7-221.4-2-332.4-42.2-45-55.7-97.6-40.4-157.7,7.8-25.7,21.3-47.8,40.4-66.5.4-121.2.9-242.4,1.3-363.7,6-19.3,18.8-31,38.5-35.2Z"/>
  <path class="st0" d="M743,690.7c1.5-54.5,1.7-109.3.7-164.2-.9.7-1.6,1.6-2,2.6-1.5-1.7-1.1-3.2,1.3-4.6,1.7-.9,3.5-.9,5.2,0l6.5,6.5c-2,1.3-4.2,2-6.5,2-1.5,46-1.7,96.4-.7,151.2,0-3.7,1.1-7,3.3-9.8,3.3-.1,6.1-1.2,8.5-3.3.4,1.3.9,2.6,1.3,3.9.9-103.4.9-206.8,0-310.2-.1,8.2-4.2,13-12.4,14.3-1.1,36.5-1.8,75.6-2,117.3-.9-120.8-.9-241.6,0-362.3.4-1.3.9-2.6,1.3-3.9-.7,12.5-.7,25.1,0,37.8.2-3.1.9-6.2,2-9.1,3.6-.6,6.9-1.9,9.8-3.9.4,66.5.9,132.9,1.3,199.4.4-70.8.9-141.6,1.3-212.5.9,301.1.9,602.2,0,903.3-.4-116.9-.9-233.7-1.3-350.6-2.2,1.4-4.6,1.6-7.2.7,0-1.8-.6-3.3-2-4.6-1.7,1.7-3.5,3.4-5.2,5.2-1.4-1.5-2.9-2.8-4.6-3.9.2-.8.6-1.2,1.3-1.3Z"/>
  <path class="st0" d="M817.3,480.8c13.6-2.2,19.9,3.4,18.9,16.9-6.8,10.8-14.6,11.6-23.5,2.6-1.7-3.8-2.2-7.7-1.3-11.7,1.7-2.8,3.7-5.4,5.9-7.8Z"/>
  <path class="st0" d="M865.5,490c14.7,0,20.1,7,16.3,20.9-10,9.8-17.8,8.5-23.5-3.9-1.5-7.4.9-13,7.2-16.9Z"/>
  <path class="st0" d="M32.6,501.7c16.8-.4,33.6,0,50.2,1.3,1.1,16.8.9,33.6-.7,50.2-16.8,1.1-33.6.9-50.2-.7-1.1-17-.8-34,.7-50.8Z"/>
  <path class="st0" d="M222.9,495.2c2.1-.3,4.1.2,5.9,1.3,8.7,15.6,17.4,31.3,26.1,46.9.6,2.1.9,4.3.7,6.5h-61.3c0-3.8,1-7.3,3.3-10.4,8.2-15,16.6-29.8,25.4-44.3Z"/>
  <path class="st0" d="M1165.3,509.5c14.4-1.9,20.7,4.1,18.9,18.2-6,8.7-13.4,10-22.2,3.9-5-8.4-4-15.7,3.3-22.2Z"/>
  <path class="st0" d="M1045.3,510.8c12.9-.4,18.7,5.7,17.6,18.2-4.3,7.3-10.6,9.7-18.9,7.2-6.1-3.8-8.5-9.2-7.2-16.3,2.2-3.7,5-6.8,8.5-9.1Z"/>
  <path class="st0" d="M534.4,516c-.1,5.7-1.4,10.9-3.9,15.6.5-5.6,1.8-10.8,3.9-15.6Z"/>
  <path class="st0" d="M903.3,521.2c12.5-.9,18.4,4.8,17.6,16.9-3.3,7.8-9.1,10.6-17.6,8.5-6.7-4-9.1-9.8-7.2-17.6,2.2-2.9,4.6-5.5,7.2-7.8Z"/>
  <path class="st0" d="M1257.8,138c-1.3,3.6-1.7,7.5-1.3,11.7-1.4,5.8-3.5,11.5-6.5,16.9.4.9.9,1.7,1.3,2.6,4.2-1.9,4.9-1,2,2.6-1.3-.6-2.8-.8-4.6-.7-3.9-2.4-4.3-5-1.3-7.8-1.7-.4-3.2-1.1-4.6-2-.9,153.8-.9,307.6,0,461.4.2-17.6.9-35.2,2-52.8-.9-7.2-1.3-14.4-1.3-21.5,1.6-1.2,3.3-1.6,5.2-1.3.2-1.8,0-3.5-.7-5.2-.5.6-1.2,1-2,1.3-1.1-9.3-2-18.7-2.6-28v-144l2-3.9c1.1,2.1,2,4.2,2.6,6.5,1.3-1.9,3-3.2,5.2-3.9.3,4.9,1,9.6,2,14.3-1.6,15.4-1.6,30.8,0,46.3-.6,7-1.5,13.9-2.6,20.9.8,4.2,1.7,8.3,2.6,12.4-.7,20.6-.7,41.4,0,62.6-1.9,1.8-2.8,3.9-2.6,6.5-1.5.3-2.8-.1-3.9-1.3,1.3-1.2,1.3-2,0-2.6-.4.9-.9,1.7-1.3,2.6,1.9,2.7,2.7,5.7,2.6,9.1h3.9c.9,115.9,1.4,232.3,1.3,349.3-.8,5.3-1.8,10.5-3.3,15.6-.9,1.7-1.7,1.7-2.6,0,.5-2.2.3-4.4-.7-6.5-1.9,5.1-1.5,9.9,1.3,14.3-1.6,2.1-3.3,2.6-5.2,1.3-1.1-13.4-1.7-26.9-2-40.4-.9,52.1-.9,104.3,0,156.4,1.3-1.7,2.6-1.7,3.9,0,1.3,2,2,4.2,2,6.5,2.6.4,5.2.9,7.8,1.3.2,3.5,0,7-.7,10.4-.5.6-1.2,1-2,1.3-4.4-2.8-8.1-6.3-11.1-10.4-.4,1.3-.9,2.6-1.3,3.9-.4-301.5-.9-603-1.3-904.6-.2,302.2-.9,604.1-2,905.9.2-302.8,0-605.6-.7-908.5-2.7-9.3-8.5-15.4-17.6-18.2-1-1-2.3-1.7-3.9-2-143.4-.7-286.7-.9-430.1-.7.6-1.2,2.3-1.9,5.2-2,136-.4,272-.9,408-1.3-1.7-.4-3.5-.9-5.2-1.3,3.1-3.4,5.7-7.1,7.8-11.1-126.4-1.5-252.9-1.7-379.3-.7-8.6.7-8.6,1.8,0,3.3,1.9,3.2,3.5,2.8,4.6-1.3,2.2,1.1,2.4,2.4.7,3.9,3.1,2,6.4,3.7,9.8,5.2,3.6-2,6.6-4.6,9.1-7.8,1.1,1.1,2.2,2.2,3.3,3.3-1.9.9-2.8,2.4-2.6,4.6,3.7-1,6.3-2.3,7.8-3.9-.3-1.9,0-3.7,1.3-5.2,9.9.3,19.9.5,30,.7,2.6.8,3,2.1,1.3,3.9,2.9,1.4,6,2.9,9.1,4.6v-3.9c4.3.4,8.4,0,12.4-1.3.7,2.2,2,4,3.9,5.2h13c1.5-.7,2.6-1.7,3.3-3.3,3.9-.6,7.8-.9,11.7-.7-.2-4.9,1.6-5.9,5.2-3.3-1.8.5-3.1,1.6-3.9,3.3,3.5,4.9,6.8,4.9,9.8,0,.6,1.2.8,2.5.7,3.9,2.2.2,4.4,0,6.5-.7-.5-2.1.4-4.1,2.6-5.9,3.5,1.3,3.5,2.6,0,3.9,2,2.3,4.6,3.2,7.8,2.6-.3-3,.1-5.8,1.3-8.5,8.3-.3,16.5-.5,24.8-.7.4.4.9.9,1.3,1.3-1.1,1.2-2.4,1.6-3.9,1.3,0,7.2,2.2,8.1,6.5,2.6-.2,2.8,1.5,4.1,5.2,3.9-.2-2.1.7-3.6,2.6-4.6-.4-.4-.9-.9-1.3-1.3,1.2-.5,2.3-1.1,3.3-2,.5,1.2,1.1,2.3,2,3.3-2.6.8-3,2.1-1.3,3.9,6.9.7,13.8.5,20.9-.7,1.1.4,1.9,1.1,2.6,2-70.4.9-140.8.9-211.2,0,1.2-1.5.8-2.8-1.3-3.9-4.4-.3-8.8-1-13-2-.6,2.1.3,4.1,2.6,5.9-3.5.9-7,.9-10.4,0,2.3-.4,2.8-1.3,1.3-2.6,1.9-2.5,3.7-5.1,5.2-7.8-7.8-2.3-15.9-2.5-24.1-.7-1.1-.2-2.2-.4-3.3-.7,1.6-.3,2.9-1,3.9-2,144-1.5,288.3-1.7,432.7-.7,23.2,4.3,37.1,18,41.7,41.1Z"/>
  <path class="st0" d="M741.7,529.1c1.7,53,1.7,106,0,159-13.5-20.1-21.3-42.3-23.5-66.5,0-13.5.4-27,1.3-40.4,3.3-19.2,10.7-36.6,22.2-52.1Z"/>
  <path class="st0" d="M1054.5,559c15.5-1.6,21.4,4.9,17.6,19.6-8.4,8.9-16.2,8.5-23.5-1.3-.9-3.9-.9-7.8,0-11.7,2.2-2,4.2-4.2,5.9-6.5Z"/>
  <path class="st0" d="M925.4,566.9c13.7-1.3,19.5,4.8,17.6,18.2-7.2,9.9-15,10.3-23.5,1.3-3.3-8.2-1.3-14.7,5.9-19.6Z"/>
  <path class="st0" d="M1174.4,566.9c13.8-1.2,19.6,4.9,17.6,18.2-7.4,9.6-15.2,10-23.5,1.3-3.8-8.4-1.9-14.9,5.9-19.6Z"/>
  <path class="st0" d="M134.3,562.9c3.6,0,6,1.7,7.2,5.2,7.1,13.7,14.4,27.1,22.2,40.4,2.2,3.1,3.3,6.6,3.3,10.4-20.7.4-41.4,0-61.9-1.3,8.7-18.7,18.5-36.9,29.3-54.7Z"/>
  <path class="st0" d="M507,559c-.1,8.5-1,16.8-2.6,24.8-.3-8.6.5-16.8,2.6-24.8Z"/>
  <path class="st0" d="M411.9,577.3c17.5-2.9,29.9,3.6,37.1,19.6,3,15.1-2,26.6-15,34.5-23.2,6.5-37.1-2-41.7-25.4,1.4-13.2,7.9-22.8,19.6-28.7Z"/>
  <path class="st0" d="M743,690.7c-.4-.9-.9-1.7-1.3-2.6,1.7-53,1.7-106,0-159,.4-1,1-1.9,2-2.6,1.1,55,.9,109.7-.7,164.2Z"/>
  <path class="st0" d="M245.1,595.5c39.1-.2,78.2,0,117.3.7,8.7,6.1,8.7,12.2,0,18.2-39.5.9-79.1.9-118.6,0-4.8-3.3-6.4-7.8-4.6-13.7,1.8-2,3.8-3.8,5.9-5.2Z"/>
  <path class="st0" d="M719.5,581.2c-.9,13.4-1.3,26.9-1.3,40.4-.9-5.2-1.3-10.6-1.3-16.3-.2-8.3.6-16.4,2.6-24.1Z"/>
  <path class="st0" d="M1059.7,607.3c13.1.3,18.1,6.8,15,19.6-4.9,6.1-11.2,8-18.9,5.9-9.8-10.4-8.5-18.9,3.9-25.4Z"/>
  <path class="st0" d="M719.5,374c12.6-1.3,16.7,3.9,12.4,15.6-74.1,52.9-112.2,125.2-114,217,1.9,77.2,30.1,142.8,84.7,196.8,9.5,8.2,19.5,15.8,30,22.8,2.9,11.3-1.5,16.3-13,15-63.7-45.4-102.6-106.9-116.7-184.4-15.8-101.1,12.6-187.4,85.4-258.7,10.3-8.4,20.7-16.4,31.3-24.1Z"/>
  <path class="st0" d="M20.9,621.6c17.6-2.6,29.6,4.4,35.8,20.9,0,23.8-11.9,34.5-35.8,31.9-16.6-8-22-20.8-16.3-38.5,4.1-6.5,9.5-11.2,16.3-14.3Z"/>
  <path class="st0" d="M928,621.6c14.3,1.8,18.5,9.1,12.4,22.2-4.4,3.7-9.3,4.8-15,3.3-8.7-6-10-13.4-3.9-22.2,2.4-1,4.5-2.1,6.5-3.3Z"/>
  <path class="st0" d="M1173.1,624.2c12.6-1.9,18.9,3.3,18.9,15.6-7.2,12.6-15.4,13.5-24.8,2.6-.9-3.9-.9-7.8,0-11.7,2.2-2,4.2-4.2,5.9-6.5Z"/>
  <path class="st0" d="M1050.6,655.5c15.6.2,20.6,7.6,15,22.2-11.5,8.6-19.5,6.2-24.1-7.2.1-6.9,3.2-11.8,9.1-15Z"/>
  <path class="st0" d="M904.6,663.3c12.2,1.1,17.2,7.6,15,19.6-8.8,10.8-17,10.3-24.8-1.3-1.1-8.6,2.1-14.7,9.8-18.2Z"/>
  <path class="st0" d="M203.3,665.9h50.8c.2,16.5,0,33-.7,49.5-16.6,1.3-33.4,1.7-50.2,1.3v-50.8Z"/>
  <path class="st0" d="M1164,681.6c16.5-1.3,21.9,5.7,16.3,20.9-8.5,7.6-15.9,6.8-22.2-2.6-.9-3.9-.9-7.8,0-11.7,2.2-2,4.2-4.2,5.9-6.5Z"/>
  <path class="st0" d="M88.6,688.1c16.4-.4,32.7,0,48.9,1.3,1.1,16.8.9,33.6-.7,50.2-16.4,1.1-32.7.9-48.9-.7-1.1-17-.8-34,.7-50.8Z"/>
  <path class="st0" d="M864.2,692c14.6-.8,20.5,5.7,17.6,19.6-4.9,6.1-11.2,8-18.9,5.9-8.8-8.9-8.3-17.4,1.3-25.4Z"/>
  <path class="st0" d="M818.6,702.4c13.6-1.4,19.5,4.7,17.6,18.2-7.3,9.9-15.1,10.4-23.5,1.3-3.8-8.4-1.9-14.9,5.9-19.6Z"/>
  <path class="st0" d="M1031,702.4c3.9-.2,7.8,0,11.7.7,10.5,8.7,10.1,17-1.3,24.8-7.5,1.8-13.4-.6-17.6-7.2-2.2-8,.2-14.1,7.2-18.2Z"/>
  <path class="st0" d="M1144.4,736.3c13.8-2.1,20.1,3.6,18.9,16.9-3.8,7.2-9.7,9.6-17.6,7.2-6.2-4.2-8.1-10.1-5.9-17.6,1.5-2.2,3.1-4.4,4.6-6.5Z"/>
  <path class="st0" d="M1003.6,744.1c14.5,0,19.9,6.9,16.3,20.9-9.8,9.5-18,8.2-24.8-3.9-.6-7.4,2.2-13.1,8.5-16.9Z"/>
  <path class="st0" d="M965.8,780.6c15.5-1.7,21.3,4.8,17.6,19.6-7.9,8.6-15.7,8.6-23.5,0-3.8-8.4-1.9-14.9,5.9-19.6Z"/>
  <path class="st0" d="M1118.3,787.1c13.7-2.1,20,3.5,18.9,16.9-4.3,7.3-10.6,9.7-18.9,7.2-8.6-8-8.6-16.1,0-24.1Z"/>
  <path class="st0" d="M921.5,808c14.3-2,20.6,4.1,18.9,18.2-2.5,5.5-6.9,8.1-13,7.8-9.7-2.1-13.7-8.2-11.7-18.2,1.7-2.8,3.7-5.4,5.9-7.8Z"/>
  <path class="st0" d="M873.3,824.9c15.8.3,20.8,7.7,15,22.2-4.8,3.7-10.2,4.8-16.3,3.3-10.7-9-10.3-17.5,1.3-25.4Z"/>
  <path class="st0" d="M746.9,1056.9c-1.2-.9-1.6-2.2-1.3-3.9-.2-110.4,0-220.7.7-331.1.4,41.7.9,83.4,1.3,125.1,2.7-4.9,4.9-10.1,6.5-15.6.4,1.3.9,2.6,1.3,3.9,0-3.1,1.2-4,3.3-2.6,1.7,70.4,1.7,140.8,0,211.2-2.4,1.3-4.2,3.3-5.2,5.9-1.7-.2-3.2,0-4.6.7-.3,2.5-.9,4.6-2,6.5Z"/>
  <path class="st0" d="M818.6,831.4c17.4-.2,22.2,7.4,14.3,22.8-7.8,5.1-14.5,4-20.2-3.3-4-8.5-2.1-15.1,5.9-19.6Z"/>
  <path class="st0" d="M1085.8,832.8c13.8-1.2,19.7,4.9,17.6,18.2-9,10.9-17.3,10.4-24.8-1.3-.9-3.5-.9-7,0-10.4,2.3-2.5,4.6-4.7,7.2-6.5Z"/>
  <path class="st0" d="M1044,871.9c12.9-.4,18.7,5.7,17.6,18.2-7.1,9-14.9,9.9-23.5,2.6-4.1-8.9-2.2-15.9,5.9-20.9Z"/>
  <path class="st0" d="M995.8,904.4c12.7-1,18.5,4.6,17.6,16.9-3.7,7.3-9.5,10.1-17.6,8.5-7.2-3.8-9.6-9.7-7.2-17.6,1.8-3.3,4.2-5.9,7.2-7.8Z"/>
  <path class="st0" d="M419.7,659.4c6.5-1.5,11.1.7,13.7,6.5,20.4,132.6,83.9,239.1,190.3,319.3,3.3,11.9-1.2,16.9-13.7,15-111.8-84.2-176.7-196.1-194.9-335.6,1.3-2,2.9-3.7,4.6-5.2Z"/>
  <path class="st0" d="M941.1,929.2c14.4-2.1,20.3,4,17.6,18.2-1.2,2.7-3.2,4.6-5.9,5.9-15.4,2.4-21.2-3.9-17.6-18.9,1.8-2,3.8-3.8,5.9-5.2Z"/>
  <path class="st0" d="M882.4,944.8c17.4-.2,22.2,7.4,14.3,22.8-7.9,5.2-14.6,4.1-20.2-3.3-3.8-8.4-1.9-14.9,5.9-19.6Z"/>
  <path class="st0" d="M818.6,950.1c13-1.5,18.9,4.1,17.6,16.9-3.3,7.8-9.1,10.6-17.6,8.5-10.3-8.4-10.3-16.9,0-25.4Z"/>
  <path class="st0" d="M1257.8,138v911.1c-3.4,19.9-14.7,33-33.9,39.1-.5-.8-1.4-1.2-2.6-1.3-73.3,1.7-146.7,2.6-220.3,2.6-72.6-.2-145.1-.4-217.7-.7,144.7-.2,289.4-.9,434-2,.4-.9.9-1.7,1.3-2.6l-3.9-7.8c-6.5-1.1-13-1.7-19.6-2-136-.4-272-.9-408-1.3-1.2-.4-2.1-1-2.6-2,144.5.4,288.7,0,432.7-1.3,12.6-3.5,19.6-11.7,20.9-24.8,1.1-301.7,1.7-603.7,2-905.9.4,301.5.9,603,1.3,904.6.4-1.3.9-2.6,1.3-3.9,3,4.1,6.7,7.6,11.1,10.4.8-.3,1.4-.7,2-1.3.7-3.4.9-6.9.7-10.4.2-243.7,0-487.5-.7-731.2-.4-.4-.9-.9-1.3-1.3-.7,7.4-.9,14.8-.7,22.2-7.6-.2-8.2,1.5-2,5.2,1.4,3.3,2.1,6.8,2,10.4h-3.9c-.2,4.4,1.5,5.9,5.2,4.6-1.2,2.7-1.6,5.5-1.3,8.5-3.9.4-6.1,2.6-6.5,6.5-1.5.3-2.8-.1-3.9-1.3.2-11.7.2-23.4,0-35.2,1.8-5.1,3.3-5.1,4.6,0,.2-.9.4-1.7.7-2.6-1.4-3.4-3.2-6.7-5.2-9.8.2-21.3.6-42.8,1.3-64.5,1.8.2,3.5,0,5.2-.7-1.6-1.8-3.3-3.3-5.2-4.6,2.7-2.2,4.5-5,5.2-8.5-.4-.7-.9-1.3-1.3-2-.9,1.7-1.7,3.5-2.6,5.2-1.7-5.2-1.7-10.4,0-15.6,1,1.6,1.7,3.3,2,5.2,2.1-1.4,2.3-2.9.7-4.6,3.2-1.2,4.9-.1,5.2,3.3-1.2,3.2-1.2,6.4,0,9.8-.1,2.9-1.4,5.1-3.9,6.5.7.9,1.6,1.6,2.6,2,1.4,15.6,1.4,31,0,46.3.9,4.1,1.6,8.2,2,12.4.4-.4.9-.9,1.3-1.3.7-51.3.9-102.5.7-153.8-.4-4.2,0-8.1,1.3-11.7Z"/>
  <path class="st0" d="M1256.5,149.8c.2,51.3,0,102.5-.7,153.8-.4.4-.9.9-1.3,1.3-.4-4.2-1-8.3-2-12.4,1.4-15.3,1.4-30.7,0-46.3-1.1-.4-1.9-1.1-2.6-2,2.5-1.4,3.8-3.6,3.9-6.5-1.2-3.3-1.2-6.6,0-9.8-.3-3.4-2.1-4.5-5.2-3.3,1.7,1.7,1.5,3.2-.7,4.6-.3-1.9-.9-3.6-2-5.2-1.7,5.2-1.7,10.4,0,15.6.9-1.7,1.7-3.5,2.6-5.2.4.7.9,1.3,1.3,2-.7,3.5-2.5,6.3-5.2,8.5,1.9,1.3,3.7,2.8,5.2,4.6-1.7.6-3.4.9-5.2.7-.7,21.8-1.1,43.3-1.3,64.5,2,3.1,3.8,6.4,5.2,9.8-.2.9-.4,1.7-.7,2.6-1.3-5.1-2.8-5.1-4.6,0,.2,11.8.2,23.5,0,35.2,1.1,1.2,2.4,1.6,3.9,1.3.4-3.9,2.6-6.1,6.5-6.5-.3-3,.1-5.8,1.3-8.5-3.7,1.3-5.4-.2-5.2-4.6h3.9c.1-3.6-.5-7.1-2-10.4-6.3-3.7-5.6-5.5,2-5.2-.2-7.4,0-14.8.7-22.2.4.4.9.9,1.3,1.3.7,243.7.9,487.5.7,731.2-2.6-.4-5.2-.9-7.8-1.3,0-2.4-.6-4.5-2-6.5-1.3-1.7-2.6-1.7-3.9,0-.9-52.1-.9-104.3,0-156.4.2,13.5.9,27,2,40.4,1.9,1.3,3.6.8,5.2-1.3-2.8-4.5-3.2-9.3-1.3-14.3,1,2.1,1.2,4.3.7,6.5.9,1.7,1.7,1.7,2.6,0,1.4-5.1,2.5-10.3,3.3-15.6,0-117-.4-233.4-1.3-349.3h-3.9c.1-3.4-.7-6.4-2.6-9.1.4-.9.9-1.7,1.3-2.6,1.3.6,1.3,1.4,0,2.6,1.1,1.2,2.4,1.6,3.9,1.3-.2-2.6.7-4.8,2.6-6.5-.7-21.1-.7-42,0-62.6-.9-4.1-1.8-8.2-2.6-12.4,1.1-6.9,2-13.9,2.6-20.9-1.6-15.5-1.6-30.9,0-46.3-1-4.7-1.6-9.5-2-14.3-2.2.7-3.9,2-5.2,3.9-.6-2.3-1.5-4.4-2.6-6.5l-2,3.9v144c.6,9.4,1.5,18.7,2.6,28,.8-.3,1.4-.7,2-1.3.6,1.7.9,3.4.7,5.2-1.9-.3-3.7,0-5.2,1.3,0,7.1.4,14.3,1.3,21.5-1.1,17.6-1.7,35.1-2,52.8-.9-153.8-.9-307.6,0-461.4,1.4.9,2.9,1.6,4.6,2-3,2.8-2.6,5.4,1.3,7.8,1.7-.2,3.2,0,4.6.7,2.9-3.6,2.3-4.5-2-2.6-.4-.9-.9-1.7-1.3-2.6,3-5.5,5.1-11.1,6.5-16.9Z"/>
  <path class="st0" d="M780.8,1068.7c145.5,1.3,291.1,1.7,436.6,1.3-144,1.3-288.3,1.7-432.7,1.3-1.3-.9-2.6-1.7-3.9-2.6Z"/>
  <path class="st0" d="M787.3,1090.8h427.5c1.9,1,4.1,1.7,6.5,2-.9.9-1.7,1.7-2.6,2.6-145.1.9-290.2.9-435.3,0-.9-.9-1.7-1.7-2.6-2.6,2.5-.3,4.6-.9,6.5-2Z"/>
</svg>