<?xml version="1.0" encoding="UTF-8"?>
<!DOCTYPE svg PUBLIC "-//W3C//DTD SVG 1.1//EN" "http://www.w3.org/Graphics/SVG/1.1/DTD/svg11.dtd">
<svg xmlns="http://www.w3.org/2000/svg" version="1.1" width="1254px" height="1254px" style="shape-rendering:geometricPrecision; text-rendering:geometricPrecision; image-rendering:optimizeQuality; fill-rule:evenodd; clip-rule:evenodd" xmlns:xlink="http://www.w3.org/1999/xlink">
<g><path style="opacity:1" fill="#f9f9f9" d="M -0.5,-0.5 C 417.5,-0.5 835.5,-0.5 1253.5,-0.5C 1253.5,417.5 1253.5,835.5 1253.5,1253.5C 835.5,1253.5 417.5,1253.5 -0.5,1253.5C -0.5,835.5 -0.5,417.5 -0.5,-0.5 Z"/></g>
<g><path style="opacity:1" fill="#d2d3d2" d="M 724.5,250.5 C 834.501,250.333 944.501,250.5 1054.5,251C 1055.74,251.232 1056.74,251.732 1057.5,252.5C 945.496,251.169 833.496,251.169 721.5,252.5C 722.5,251.833 723.5,251.167 724.5,250.5 Z"/></g>
<g><path style="opacity:1" fill="#f9f9f9" d="M 1057.5,252.5 C 1064.45,254.69 1068.95,259.356 1071,266.5C 1071.5,498.833 1071.67,731.166 1071.5,963.5C 1070.5,973.499 1065.17,979.832 1055.5,982.5C 943.812,982.825 832.145,982.492 720.5,981.5C 715.371,979.294 711.538,975.627 709,970.5C 708.667,969.167 708.333,967.833 708,966.5C 707.333,733.167 707.333,499.833 708,266.5C 710.681,259.987 715.181,255.321 721.5,252.5C 833.496,251.169 945.496,251.169 1057.5,252.5 Z"/></g>
<g><path style="opacity:1" fill="#dfdedf" d="M 1086.5,966.5 C 1086.5,734.167 1086.5,501.833 1086.5,269.5C 1088.12,268.411 1088.95,266.744 1089,264.5C 1089.33,264.833 1089.67,265.167 1090,265.5C 1090.83,500.167 1090.67,734.834 1089.5,969.5C 1088.69,967.577 1088.19,965.577 1088,963.5C 1087.77,964.737 1087.27,965.737 1086.5,966.5 Z"/></g>
<g><path style="opacity:1" fill="#ededed" d="M 1069.5,270.5 C 1070.67,501.666 1070.83,733 1070,964.5C 1069.5,964 1069,963.5 1068.5,963C 1069.47,732.095 1069.81,501.261 1069.5,270.5 Z"/></g>
<g><path style="opacity:1" fill="#101010" d="M 589.5,321.5 C 599.717,320.706 603.05,325.039 599.5,334.5C 522.073,389.591 474.573,464.257 457,558.5C 455.627,565.446 454.627,572.446 454,579.5C 451.565,584.224 447.731,585.724 442.5,584C 441.667,583.167 440.833,582.333 440,581.5C 449.284,488.097 488.451,409.931 557.5,347C 568.066,338.256 578.732,329.756 589.5,321.5 Z"/></g>
<g><path style="opacity:1" fill="#111111" d="M 748.5,340.5 C 758.992,338.834 763.826,343.167 763,353.5C 756.75,362.756 750.417,362.756 744,353.5C 742.675,348.157 744.175,343.824 748.5,340.5 Z"/></g>
<g><path style="opacity:1" fill="#121212" d="M 798.5,344.5 C 809.041,343.539 813.541,348.205 812,358.5C 809.081,364.025 804.581,365.858 798.5,364C 790.519,357.375 790.519,350.875 798.5,344.5 Z"/></g>
<g><path style="opacity:1" fill="#101010" d="M 844.5,356.5 C 847.187,356.336 849.854,356.503 852.5,357C 859.8,362.154 860.467,368.154 854.5,375C 843.044,378.54 837.878,374.374 839,362.5C 840.36,359.977 842.193,357.977 844.5,356.5 Z"/></g>
<g><path style="opacity:1" fill="#121212" d="M 885.5,375.5 C 890.765,374.571 895.265,375.904 899,379.5C 901.856,390.312 897.689,395.479 886.5,395C 877.65,388.922 877.317,382.422 885.5,375.5 Z"/></g>
<g><path style="opacity:1" fill="#121212" d="M 923.5,401.5 C 933.877,400.046 938.377,404.379 937,414.5C 931.894,422.773 925.894,423.439 919,416.5C 916.064,410.058 917.564,405.058 923.5,401.5 Z"/></g>
<g><path style="opacity:1" fill="#111110" d="M 749.5,431.5 C 762.74,431.495 766.407,437.328 760.5,449C 748.96,453.654 743.46,449.821 744,437.5C 745.699,435.304 747.533,433.304 749.5,431.5 Z"/></g>
<g><path style="opacity:1" fill="#101010" d="M 957.5,432.5 C 968.183,433.006 972.016,438.34 969,448.5C 962.708,454.048 956.708,453.715 951,447.5C 950.333,444.5 950.333,441.5 951,438.5C 953.063,436.266 955.229,434.266 957.5,432.5 Z"/></g>
<g><path style="opacity:1" fill="#101010" d="M 788.5,434.5 C 800.293,434.749 804.127,440.416 800,451.5C 790.353,458.258 784.186,455.924 781.5,444.5C 782.239,440.088 784.572,436.755 788.5,434.5 Z"/></g>
<g><path style="opacity:1" fill="#0f0f0f" d="M 823.5,446.5 C 835.361,445.185 839.861,450.185 837,461.5C 831.591,467.574 825.925,467.907 820,462.5C 817.156,456.181 818.323,450.847 823.5,446.5 Z"/></g>
<g><path style="opacity:1" fill="#0e0e0d" d="M 856.5,465.5 C 865.837,464.352 870.671,468.352 871,477.5C 868.747,483.926 864.247,486.426 857.5,485C 851.891,481.723 850.058,476.89 852,470.5C 853.707,468.963 855.207,467.296 856.5,465.5 Z"/></g>
<g><path style="opacity:1" fill="#131313" d="M 982.5,469.5 C 989.128,468.231 993.961,470.564 997,476.5C 996.896,486.98 991.729,490.813 981.5,488C 975.912,481.471 976.246,475.305 982.5,469.5 Z"/></g>
<g><path style="opacity:1" fill="#0e0e0e" d="M 220.5,484.5 C 244.334,485.513 252.168,497.179 244,519.5C 232.626,531.094 220.96,531.427 209,520.5C 200.325,504.363 204.158,492.363 220.5,484.5 Z"/></g>
<g><path style="opacity:1" fill="#101010" d="M 885.5,490.5 C 895.159,489.661 899.659,493.994 899,503.5C 896.27,510.053 891.437,512.22 884.5,510C 879.782,506.657 878.282,502.157 880,496.5C 881.36,493.977 883.193,491.977 885.5,490.5 Z"/></g>
<g><path style="opacity:1" fill="#101010" d="M 531.5,557.5 C 529.898,561.239 528.898,565.239 528.5,569.5C 513.948,653.962 531.448,730.962 581,800.5C 599.539,824.71 621.539,845.044 647,861.5C 649.677,870.156 646.511,873.989 637.5,873C 574.628,829.814 534.128,770.981 516,696.5C 509.576,667.846 507.076,638.846 508.5,609.5C 509.747,603.37 510.414,597.037 510.5,590.5C 518.511,519.973 548.178,460.139 599.5,411C 611.737,399.311 625.237,389.478 640,381.5C 646.411,381.906 649.078,385.239 648,391.5C 647.215,393.286 646.049,394.786 644.5,396C 586,435.137 548.333,488.971 531.5,557.5 Z"/></g>
<g><path style="opacity:1" fill="#101110" d="M 1003.5,509.5 C 1009.74,508.536 1014.24,510.869 1017,516.5C 1017.18,526.31 1012.35,530.477 1002.5,529C 995.533,521.989 995.866,515.489 1003.5,509.5 Z"/></g>
<g><path style="opacity:1" fill="#111011" d="M 906.5,520.5 C 920.229,519.723 924.229,525.556 918.5,538C 906.729,543.196 901.229,539.363 902,526.5C 903.332,524.34 904.832,522.34 906.5,520.5 Z"/></g>
<g><path style="opacity:1" fill="#121212" d="M 722.5,236.5 C 721.737,237.268 720.737,237.768 719.5,238C 720.333,238.167 721.167,238.333 722,238.5C 728.313,237.048 734.479,237.214 740.5,239C 739.31,241.116 737.977,243.116 736.5,245C 737.634,246.016 737.301,246.683 735.5,247C 738.167,247.667 740.833,247.667 743.5,247C 741.699,245.613 741.032,244.113 741.5,242.5C 744.777,243.254 748.11,243.754 751.5,244C 753.125,244.853 753.458,245.853 752.5,247C 806.5,247.667 860.5,247.667 914.5,247C 913.975,246.308 913.308,245.808 912.5,245.5C 907.091,246.38 901.758,246.546 896.5,246C 895.185,244.605 895.519,243.605 897.5,243C 896.874,242.25 896.374,241.416 896,240.5C 895.25,241.126 894.416,241.626 893.5,242C 893.833,242.333 894.167,242.667 894.5,243C 893.027,243.71 892.36,244.876 892.5,246.5C 889.671,246.631 888.338,245.631 888.5,243.5C 885.201,247.691 883.535,247.024 883.5,241.5C 884.675,241.719 885.675,241.386 886.5,240.5C 886.167,240.167 885.833,239.833 885.5,239.5C 879.197,239.624 872.864,239.79 866.5,240C 865.577,242.041 865.244,244.208 865.5,246.5C 863.023,246.949 861.023,246.283 859.5,244.5C 862.167,243.5 862.167,242.5 859.5,241.5C 857.797,242.89 857.13,244.39 857.5,246C 855.866,246.494 854.199,246.66 852.5,246.5C 852.649,245.448 852.483,244.448 852,243.5C 849.7,247.266 847.2,247.266 844.5,243.5C 845.09,242.201 846.09,241.368 847.5,241C 844.691,238.944 843.358,239.777 843.5,243.5C 840.482,243.335 837.482,243.502 834.5,244C 834.002,245.158 833.169,245.991 832,246.5C 828.667,246.5 825.333,246.5 822,246.5C 820.523,245.556 819.523,244.223 819,242.5C 815.943,243.451 812.777,243.784 809.5,243.5C 809.5,244.5 809.5,245.5 809.5,246.5C 807.093,245.226 804.76,244.06 802.5,243C 803.815,241.605 803.481,240.605 801.5,240C 793.776,239.864 786.109,239.698 778.5,239.5C 777.571,240.689 777.238,242.022 777.5,243.5C 776.315,244.771 774.315,245.771 771.5,246.5C 771.36,244.876 772.027,243.71 773.5,243C 772.667,242.167 771.833,241.333 771,240.5C 769.102,242.958 766.768,244.958 764,246.5C 761.379,245.375 758.879,244.042 756.5,242.5C 757.855,241.325 757.688,240.325 756,239.5C 755.149,242.612 753.983,242.946 752.5,240.5C 745.927,239.362 745.927,238.528 752.5,238C 849.502,237.167 946.502,237.333 1043.5,238.5C 1041.87,241.587 1039.87,244.42 1037.5,247C 1038.83,247.333 1040.17,247.667 1041.5,248C 937.167,248.333 832.833,248.667 728.5,249C 726.264,249.079 724.93,249.579 724.5,250.5C 723.5,251.167 722.5,251.833 721.5,252.5C 715.181,255.321 710.681,259.987 708,266.5C 707.333,499.833 707.333,733.167 708,966.5C 708.333,967.833 708.667,969.167 709,970.5C 711.538,975.627 715.371,979.294 720.5,981.5C 721.5,982.167 722.5,982.833 723.5,983.5C 723.918,984.222 724.584,984.722 725.5,985C 829.833,985.333 934.167,985.667 1038.5,986C 1043.53,986.171 1048.53,986.671 1053.5,987.5C 1054.5,989.5 1055.5,991.5 1056.5,993.5C 1056.17,994.167 1055.83,994.833 1055.5,995.5C 944.502,996.333 833.502,996.833 722.5,997C 778.167,997.167 833.833,997.333 889.5,997.5C 945.916,997.492 1002.25,996.825 1058.5,995.5C 1059.42,995.543 1060.08,995.876 1060.5,996.5C 1058.49,997.924 1056.15,998.59 1053.5,998.5C 944.167,998.5 834.833,998.5 725.5,998.5C 709.787,996.156 699.454,987.49 694.5,972.5C 695.302,971.048 695.802,969.382 696,967.5C 697.008,967.018 698.175,966.852 699.5,967C 700.305,965.028 701.639,963.528 703.5,962.5C 704.833,908.5 704.833,854.5 703.5,800.5C 701.898,799.45 701.065,800.117 701,802.5C 700.667,801.5 700.333,800.5 700,799.5C 698.742,803.729 697.075,807.729 695,811.5C 694.667,779.5 694.333,747.5 694,715.5C 693.5,800.166 693.333,884.833 693.5,969.5C 692.667,884.668 692.167,799.668 692,714.5C 659.623,679.977 649.29,639.644 661,593.5C 667.012,573.799 677.345,556.799 692,542.5C 692.333,449.5 692.667,356.5 693,263.5C 697.612,248.719 707.445,239.719 722.5,236.5 Z"/></g>
<g><path style="opacity:1" fill="#090909" d="M 691.5,691.5 C 692.665,649.669 692.831,607.669 692,565.5C 691.283,566.044 690.783,566.711 690.5,567.5C 689.355,566.207 689.689,565.041 691.5,564C 692.833,563.333 694.167,563.333 695.5,564C 697.167,565.667 698.833,567.333 700.5,569C 698.975,570.009 697.308,570.509 695.5,570.5C 694.345,605.814 694.178,644.481 695,686.5C 695.045,683.666 695.879,681.166 697.5,679C 700.007,678.907 702.174,678.074 704,676.5C 704.333,677.5 704.667,678.5 705,679.5C 705.667,600.167 705.667,520.833 705,441.5C 704.912,447.8 701.746,451.467 695.5,452.5C 694.655,480.47 694.155,510.47 694,542.5C 693.333,449.833 693.333,357.167 694,264.5C 694.333,263.5 694.667,262.5 695,261.5C 694.443,271.127 694.443,280.793 695,290.5C 695.186,288.1 695.686,285.766 696.5,283.5C 699.276,283.054 701.776,282.054 704,280.5C 704.333,331.5 704.667,382.5 705,433.5C 705.333,379.167 705.667,324.833 706,270.5C 706.667,501.5 706.667,732.5 706,963.5C 705.667,873.833 705.333,784.167 705,694.5C 703.274,695.576 701.441,695.743 699.5,695C 699.554,693.649 699.054,692.482 698,691.5C 696.674,692.799 695.34,694.132 694,695.5C 692.926,694.382 691.76,693.382 690.5,692.5C 690.624,691.893 690.957,691.56 691.5,691.5 Z"/></g>
<g><path style="opacity:1" fill="#131313" d="M 748.5,530.5 C 758.94,528.779 763.774,533.112 763,543.5C 757.772,551.749 751.772,552.416 745,545.5C 743.682,542.594 743.348,539.594 744,536.5C 745.332,534.34 746.832,532.34 748.5,530.5 Z"/></g>
<g><path style="opacity:1" fill="#0f0f0f" d="M 785.5,537.5 C 796.749,537.562 800.916,542.896 798,553.5C 790.314,560.998 784.314,559.998 780,550.5C 778.831,544.853 780.665,540.519 785.5,537.5 Z"/></g>
<g><path style="opacity:1" fill="#111111" d="M 146.5,546.5 C 159.413,546.178 172.246,546.511 185,547.5C 185.822,560.409 185.655,573.242 184.5,586C 171.591,586.822 158.758,586.655 146,585.5C 145.187,572.425 145.354,559.425 146.5,546.5 Z"/></g>
<g><path style="opacity:1" fill="#0e0e0e" d="M 292.5,541.5 C 294.144,541.286 295.644,541.62 297,542.5C 303.667,554.5 310.333,566.5 317,578.5C 317.494,580.134 317.66,581.801 317.5,583.5C 301.833,583.5 286.167,583.5 270.5,583.5C 270.46,580.575 271.293,577.909 273,575.5C 279.259,563.976 285.759,552.643 292.5,541.5 Z"/></g>
<g><path style="opacity:1" fill="#131414" d="M 1015.5,552.5 C 1026.51,551.013 1031.35,555.68 1030,566.5C 1025.39,573.203 1019.72,574.203 1013,569.5C 1009.13,563.086 1009.96,557.419 1015.5,552.5 Z"/></g>
<g><path style="opacity:1" fill="#121212" d="M 923.5,553.5 C 933.368,553.198 937.868,557.865 937,567.5C 933.723,573.109 928.89,574.942 922.5,573C 917.81,570.119 915.977,565.952 917,560.5C 918.694,557.642 920.861,555.309 923.5,553.5 Z"/></g>
<g><path style="opacity:1" fill="#99999a" d="M 531.5,557.5 C 531.416,561.837 530.416,565.837 528.5,569.5C 528.898,565.239 529.898,561.239 531.5,557.5 Z"/></g>
<g><path style="opacity:1" fill="#0f0f0f" d="M 814.5,561.5 C 824.105,560.842 828.605,565.175 828,574.5C 825.497,580.461 820.997,582.628 814.5,581C 809.365,577.945 807.532,573.445 809,567.5C 810.699,565.304 812.533,563.304 814.5,561.5 Z"/></g>
<g><path style="opacity:1" fill="#151515" d="M 1086.5,267.5 C 1085.52,270.287 1085.19,273.287 1085.5,276.5C 1084.45,280.981 1082.78,285.314 1080.5,289.5C 1080.83,290.167 1081.17,290.833 1081.5,291.5C 1084.76,290.048 1085.26,290.714 1083,293.5C 1081.99,293.018 1080.82,292.852 1079.5,293C 1076.52,291.152 1076.19,289.152 1078.5,287C 1077.23,286.691 1076.07,286.191 1075,285.5C 1074.33,403.5 1074.33,521.5 1075,639.5C 1075.19,625.967 1075.69,612.467 1076.5,599C 1075.84,593.474 1075.51,587.974 1075.5,582.5C 1076.69,581.571 1078.02,581.238 1079.5,581.5C 1079.66,580.127 1079.49,578.793 1079,577.5C 1078.59,577.957 1078.09,578.291 1077.5,578.5C 1076.66,571.349 1075.99,564.183 1075.5,557C 1075.5,520.338 1075.5,483.504 1075.5,446.5C 1076,445.5 1076.5,444.5 1077,443.5C 1077.86,445.087 1078.53,446.754 1079,448.5C 1079.99,447.061 1081.32,446.061 1083,445.5C 1083.24,449.222 1083.74,452.889 1084.5,456.5C 1083.24,468.303 1083.24,480.136 1084.5,492C 1084.03,497.368 1083.36,502.702 1082.5,508C 1083.12,511.186 1083.79,514.352 1084.5,517.5C 1083.98,533.282 1083.98,549.282 1084.5,565.5C 1083.05,566.85 1082.38,568.516 1082.5,570.5C 1081.32,570.719 1080.32,570.386 1079.5,569.5C 1080.51,568.604 1080.51,567.938 1079.5,567.5C 1079.17,568.167 1078.83,568.833 1078.5,569.5C 1079.94,571.577 1080.6,573.91 1080.5,576.5C 1081.5,576.5 1082.5,576.5 1083.5,576.5C 1084.21,665.4 1084.55,754.733 1084.5,844.5C 1083.92,848.564 1083.09,852.564 1082,856.5C 1081.33,857.833 1080.67,857.833 1080,856.5C 1080.41,854.775 1080.24,853.108 1079.5,851.5C 1078.01,855.399 1078.34,859.065 1080.5,862.5C 1079.3,864.138 1077.96,864.471 1076.5,863.5C 1075.69,853.213 1075.19,842.88 1075,832.5C 1074.33,872.5 1074.33,912.5 1075,952.5C 1076,951.167 1077,951.167 1078,952.5C 1079.01,954.025 1079.51,955.692 1079.5,957.5C 1081.5,957.833 1083.5,958.167 1085.5,958.5C 1085.66,961.187 1085.5,963.854 1085,966.5C 1084.59,966.957 1084.09,967.291 1083.5,967.5C 1080.15,965.316 1077.32,962.649 1075,959.5C 1074.67,960.5 1074.33,961.5 1074,962.5C 1073.67,731.167 1073.33,499.833 1073,268.5C 1072.83,500.334 1072.33,732 1071.5,963.5C 1071.67,731.166 1071.5,498.833 1071,266.5C 1068.95,259.356 1064.45,254.69 1057.5,252.5C 1056.74,251.732 1055.74,251.232 1054.5,251C 944.501,250.5 834.501,250.333 724.5,250.5C 724.93,249.579 726.264,249.079 728.5,249C 832.833,248.667 937.167,248.333 1041.5,248C 1040.17,247.667 1038.83,247.333 1037.5,247C 1039.87,244.42 1041.87,241.587 1043.5,238.5C 946.502,237.333 849.502,237.167 752.5,238C 745.927,238.528 745.927,239.362 752.5,240.5C 753.983,242.946 755.149,242.612 756,239.5C 757.688,240.325 757.855,241.325 756.5,242.5C 758.879,244.042 761.379,245.375 764,246.5C 766.768,244.958 769.102,242.958 771,240.5C 771.833,241.333 772.667,242.167 773.5,243C 772.027,243.71 771.36,244.876 771.5,246.5C 774.315,245.771 776.315,244.771 777.5,243.5C 777.238,242.022 777.571,240.689 778.5,239.5C 786.109,239.698 793.776,239.864 801.5,240C 803.481,240.605 803.815,241.605 802.5,243C 804.76,244.06 807.093,245.226 809.5,246.5C 809.5,245.5 809.5,244.5 809.5,243.5C 812.777,243.784 815.943,243.451 819,242.5C 819.523,244.223 820.523,245.556 822,246.5C 825.333,246.5 828.667,246.5 832,246.5C 833.169,245.991 834.002,245.158 834.5,244C 837.482,243.502 840.482,243.335 843.5,243.5C 843.358,239.777 844.691,238.944 847.5,241C 846.09,241.368 845.09,242.201 844.5,243.5C 847.2,247.266 849.7,247.266 852,243.5C 852.483,244.448 852.649,245.448 852.5,246.5C 854.199,246.66 855.866,246.494 857.5,246C 857.13,244.39 857.797,242.89 859.5,241.5C 862.167,242.5 862.167,243.5 859.5,244.5C 861.023,246.283 863.023,246.949 865.5,246.5C 865.244,244.208 865.577,242.041 866.5,240C 872.864,239.79 879.197,239.624 885.5,239.5C 885.833,239.833 886.167,240.167 886.5,240.5C 885.675,241.386 884.675,241.719 883.5,241.5C 883.535,247.024 885.201,247.691 888.5,243.5C 888.338,245.631 889.671,246.631 892.5,246.5C 892.36,244.876 893.027,243.71 894.5,243C 894.167,242.667 893.833,242.333 893.5,242C 894.416,241.626 895.25,241.126 896,240.5C 896.374,241.416 896.874,242.25 897.5,243C 895.519,243.605 895.185,244.605 896.5,246C 901.758,246.546 907.091,246.38 912.5,245.5C 913.308,245.808 913.975,246.308 914.5,247C 860.5,247.667 806.5,247.667 752.5,247C 753.458,245.853 753.125,244.853 751.5,244C 748.11,243.754 744.777,243.254 741.5,242.5C 741.032,244.113 741.699,245.613 743.5,247C 740.833,247.667 738.167,247.667 735.5,247C 737.301,246.683 737.634,246.016 736.5,245C 737.977,243.116 739.31,241.116 740.5,239C 734.479,237.214 728.313,237.048 722,238.5C 721.167,238.333 720.333,238.167 719.5,238C 720.737,237.768 721.737,237.268 722.5,236.5C 832.999,235.334 943.666,235.167 1054.5,236C 1072.28,239.276 1082.94,249.776 1086.5,267.5 Z"/></g>
<g><path style="opacity:1" fill="#f6f6f6" d="M 690.5,567.5 C 691.833,608.167 691.833,648.833 690.5,689.5C 680.132,674.065 674.132,657.065 672.5,638.5C 672.485,628.153 672.818,617.819 673.5,607.5C 676.066,592.79 681.732,579.457 690.5,567.5 Z"/></g>
<g><path style="opacity:1" fill="#111010" d="M 930.5,590.5 C 942.415,589.236 946.915,594.236 944,605.5C 937.592,612.32 931.592,611.987 926,604.5C 925.333,601.5 925.333,598.5 926,595.5C 927.707,593.963 929.207,592.296 930.5,590.5 Z"/></g>
<g><path style="opacity:1" fill="#0e0e0e" d="M 831.5,596.5 C 841.988,595.487 846.488,600.154 845,610.5C 839.492,618.092 833.492,618.425 827,611.5C 824.473,605.235 825.973,600.235 831.5,596.5 Z"/></g>
<g><path style="opacity:1" fill="#101111" d="M 1022.5,596.5 C 1033.06,595.56 1037.56,600.226 1036,610.5C 1030.36,617.83 1024.36,618.163 1018,611.5C 1015.06,605.058 1016.56,600.058 1022.5,596.5 Z"/></g>
<g><path style="opacity:1" fill="#0d0d0d" d="M 224.5,593.5 C 227.292,593.452 229.125,594.785 230,597.5C 235.413,607.994 241.079,618.327 247,628.5C 248.707,630.909 249.54,633.575 249.5,636.5C 233.589,636.825 217.756,636.491 202,635.5C 208.666,621.175 216.166,607.175 224.5,593.5 Z"/></g>
<g><path style="opacity:1" fill="#525252" d="M 510.5,590.5 C 510.414,597.037 509.747,603.37 508.5,609.5C 508.239,602.928 508.906,596.594 510.5,590.5 Z"/></g>
<g><path style="opacity:1" fill="#0c0c0c" d="M 437.5,604.5 C 450.916,602.289 460.416,607.289 466,619.5C 468.307,631.048 464.474,639.882 454.5,646C 436.726,650.953 426.059,644.453 422.5,626.5C 423.559,616.355 428.559,609.022 437.5,604.5 Z"/></g>
<g><path style="opacity:1" fill="#aeafae" d="M 691.5,691.5 C 691.167,690.833 690.833,690.167 690.5,689.5C 691.833,648.833 691.833,608.167 690.5,567.5C 690.783,566.711 691.283,566.044 692,565.5C 692.831,607.669 692.665,649.669 691.5,691.5 Z"/></g>
<g><path style="opacity:1" fill="#101110" d="M 309.5,618.5 C 339.502,618.333 369.502,618.5 399.5,619C 406.167,623.667 406.167,628.333 399.5,633C 369.167,633.667 338.833,633.667 308.5,633C 304.788,630.487 303.622,626.987 305,622.5C 306.397,620.93 307.897,619.596 309.5,618.5 Z"/></g>
<g><path style="opacity:1" fill="#bfbfc0" d="M 673.5,607.5 C 672.818,617.819 672.485,628.153 672.5,638.5C 671.834,634.514 671.501,630.347 671.5,626C 671.326,619.594 671.993,613.427 673.5,607.5 Z"/></g>
<g><path style="opacity:1" fill="#0f0f0f" d="M 934.5,627.5 C 944.539,627.709 948.373,632.709 946,642.5C 942.212,647.153 937.378,648.653 931.5,647C 923.998,639.003 924.998,632.503 934.5,627.5 Z"/></g>
<g><path style="opacity:1" fill="#0f0f0f" d="M 673.5,448.5 C 683.148,447.48 686.315,451.48 683,460.5C 626.115,501.091 596.948,556.591 595.5,627C 596.96,686.232 618.627,736.565 660.5,778C 667.807,784.319 675.474,790.152 683.5,795.5C 685.694,804.14 682.36,807.973 673.5,807C 624.642,772.17 594.808,725.004 584,665.5C 571.867,587.899 593.701,521.733 649.5,467C 657.388,460.571 665.388,454.405 673.5,448.5 Z"/></g>
<g><path style="opacity:1" fill="#0e0e0e" d="M 137.5,638.5 C 151.033,636.512 160.2,641.845 165,654.5C 165.032,672.795 155.865,680.962 137.5,679C 124.788,672.879 120.621,663.046 125,649.5C 128.124,644.536 132.291,640.87 137.5,638.5 Z"/></g>
<g><path style="opacity:1" fill="#0d0d0d" d="M 833.5,638.5 C 844.505,639.845 847.671,645.512 843,655.5C 839.662,658.318 835.829,659.151 831.5,658C 824.797,653.385 823.797,647.719 828.5,641C 830.315,640.243 831.981,639.41 833.5,638.5 Z"/></g>
<g><path style="opacity:1" fill="#131313" d="M 1021.5,640.5 C 1031.16,639.043 1035.99,643.043 1036,652.5C 1030.51,662.202 1024.18,662.869 1017,654.5C 1016.33,651.5 1016.33,648.5 1017,645.5C 1018.71,643.963 1020.21,642.296 1021.5,640.5 Z"/></g>
<g><path style="opacity:1" fill="#101110" d="M 927.5,664.5 C 939.474,664.643 943.307,670.309 939,681.5C 930.208,688.081 924.041,686.247 920.5,676C 920.607,670.743 922.94,666.91 927.5,664.5 Z"/></g>
<g><path style="opacity:1" fill="#101010" d="M 815.5,670.5 C 824.844,671.338 828.678,676.338 827,685.5C 820.256,693.767 813.922,693.434 808,684.5C 807.127,677.908 809.627,673.241 815.5,670.5 Z"/></g>
<g><path style="opacity:1" fill="#0c0c0c" d="M 277.5,672.5 C 290.5,672.5 303.5,672.5 316.5,672.5C 316.667,685.171 316.5,697.838 316,710.5C 303.246,711.489 290.413,711.822 277.5,711.5C 277.5,698.5 277.5,685.5 277.5,672.5 Z"/></g>
<g><path style="opacity:1" fill="#111111" d="M 1014.5,684.5 C 1027.15,683.514 1031.32,688.848 1027,700.5C 1020.46,706.352 1014.8,705.686 1010,698.5C 1009.33,695.5 1009.33,692.5 1010,689.5C 1011.71,687.963 1013.21,686.296 1014.5,684.5 Z"/></g>
<g><path style="opacity:1" fill="#111110" d="M 189.5,689.5 C 202.08,689.178 214.58,689.511 227,690.5C 227.822,703.409 227.655,716.242 226.5,729C 213.924,729.821 201.424,729.655 189,728.5C 188.187,715.425 188.354,702.425 189.5,689.5 Z"/></g>
<g><path style="opacity:1" fill="#111111" d="M 784.5,692.5 C 795.704,691.857 800.204,696.857 798,707.5C 794.212,712.153 789.378,713.653 783.5,712C 776.765,705.164 777.098,698.664 784.5,692.5 Z"/></g>
<g><path style="opacity:1" fill="#141414" d="M 749.5,700.5 C 759.935,699.435 764.435,704.102 763,714.5C 757.396,722.111 751.396,722.444 745,715.5C 742.064,709.058 743.564,704.058 749.5,700.5 Z"/></g>
<g><path style="opacity:1" fill="#121212" d="M 912.5,700.5 C 915.518,700.335 918.518,700.502 921.5,701C 929.56,707.675 929.227,714.008 920.5,720C 914.731,721.368 910.231,719.534 907,714.5C 905.349,708.36 907.182,703.694 912.5,700.5 Z"/></g>
<g><path style="opacity:1" fill="#100f0f" d="M 999.5,726.5 C 1010.08,724.922 1014.91,729.255 1014,739.5C 1011.08,745.025 1006.58,746.858 1000.5,745C 995.777,741.746 994.277,737.246 996,731.5C 997.176,729.804 998.343,728.138 999.5,726.5 Z"/></g>
<g><path style="opacity:1" fill="#131313" d="M 891.5,732.5 C 902.597,732.429 906.763,737.763 904,748.5C 896.518,755.754 890.185,754.754 885,745.5C 884.509,739.816 886.675,735.482 891.5,732.5 Z"/></g>
<g><path style="opacity:1" fill="#111111" d="M 862.5,760.5 C 874.361,759.185 878.861,764.185 876,775.5C 869.924,782.099 863.924,782.099 858,775.5C 855.064,769.058 856.564,764.058 862.5,760.5 Z"/></g>
<g><path style="opacity:1" fill="#0e0f0f" d="M 979.5,765.5 C 990.042,763.886 994.876,768.219 994,778.5C 990.723,784.109 985.89,785.942 979.5,784C 972.899,777.837 972.899,771.671 979.5,765.5 Z"/></g>
<g><path style="opacity:1" fill="#0f0f0f" d="M 828.5,781.5 C 839.489,779.991 844.322,784.657 843,795.5C 841.049,799.715 837.716,801.715 833,801.5C 825.52,799.901 822.52,795.234 824,787.5C 825.332,785.34 826.832,783.34 828.5,781.5 Z"/></g>
<g><path style="opacity:1" fill="#101010" d="M 791.5,794.5 C 803.615,794.76 807.448,800.427 803,811.5C 799.319,814.36 795.152,815.193 790.5,814C 782.287,807.096 782.621,800.596 791.5,794.5 Z"/></g>
<g><path style="opacity:1" fill="#0b0b0b" d="M 694.5,972.5 C 693.596,971.791 693.263,970.791 693.5,969.5C 693.333,884.833 693.5,800.166 694,715.5C 694.333,747.5 694.667,779.5 695,811.5C 697.075,807.729 698.742,803.729 700,799.5C 700.333,800.5 700.667,801.5 701,802.5C 701.065,800.117 701.898,799.45 703.5,800.5C 704.833,854.5 704.833,908.5 703.5,962.5C 701.639,963.528 700.305,965.028 699.5,967C 698.175,966.852 697.008,967.018 696,967.5C 695.802,969.382 695.302,971.048 694.5,972.5 Z"/></g>
<g><path style="opacity:1" fill="#111111" d="M 749.5,799.5 C 762.853,799.342 766.52,805.175 760.5,817C 754.525,820.937 749.358,820.104 745,814.5C 741.894,807.953 743.394,802.953 749.5,799.5 Z"/></g>
<g><path style="opacity:1" fill="#141313" d="M 954.5,800.5 C 965.095,799.591 969.595,804.257 968,814.5C 961.071,822.837 954.738,822.504 949,813.5C 948.333,810.833 948.333,808.167 949,805.5C 950.73,803.598 952.563,801.931 954.5,800.5 Z"/></g>
<g><path style="opacity:1" fill="#101010" d="M 922.5,830.5 C 932.367,830.198 936.867,834.864 936,844.5C 930.557,851.412 924.557,852.079 918,846.5C 914.834,839.646 916.334,834.313 922.5,830.5 Z"/></g>
<g><path style="opacity:1" fill="#111111" d="M 885.5,855.5 C 895.23,854.733 899.73,859.066 899,868.5C 896.182,874.108 891.682,876.275 885.5,875C 879.975,872.081 878.142,867.581 880,861.5C 881.36,858.977 883.193,856.977 885.5,855.5 Z"/></g>
<g><path style="opacity:1" fill="#101010" d="M 443.5,667.5 C 448.487,666.349 451.987,668.016 454,672.5C 469.685,774.261 518.352,855.928 600,917.5C 602.565,926.608 599.065,930.441 589.5,929C 503.755,864.384 453.921,778.55 440,671.5C 441.032,669.973 442.199,668.64 443.5,667.5 Z"/></g>
<g><path style="opacity:1" fill="#0f0f0f" d="M 843.5,874.5 C 854.537,872.922 859.037,877.589 857,888.5C 856.07,890.552 854.57,892.052 852.5,893C 840.706,894.874 836.206,890.04 839,878.5C 840.397,876.93 841.897,875.596 843.5,874.5 Z"/></g>
<g><path style="opacity:1" fill="#121212" d="M 798.5,886.5 C 811.876,886.361 815.542,892.194 809.5,904C 803.473,907.997 798.306,907.164 794,901.5C 791.064,895.058 792.564,890.058 798.5,886.5 Z"/></g>
<g><path style="opacity:1" fill="#121212" d="M 749.5,890.5 C 759.492,889.327 763.992,893.66 763,903.5C 760.497,909.461 755.997,911.628 749.5,910C 741.562,903.554 741.562,897.054 749.5,890.5 Z"/></g>
<g><path style="opacity:1" fill="#0f0f0f" d="M 1086.5,267.5 C 1086.5,268.167 1086.5,268.833 1086.5,269.5C 1086.5,501.833 1086.5,734.167 1086.5,966.5C 1083.86,981.799 1075.2,991.799 1060.5,996.5C 1060.08,995.876 1059.42,995.543 1058.5,995.5C 1002.25,996.825 945.916,997.492 889.5,997.5C 833.833,997.333 778.167,997.167 722.5,997C 833.502,996.833 944.502,996.333 1055.5,995.5C 1055.83,994.833 1056.17,994.167 1056.5,993.5C 1055.5,991.5 1054.5,989.5 1053.5,987.5C 1048.53,986.671 1043.53,986.171 1038.5,986C 934.167,985.667 829.833,985.333 725.5,985C 724.584,984.722 723.918,984.222 723.5,983.5C 834.335,983.833 945.001,983.499 1055.5,982.5C 1065.17,979.832 1070.5,973.499 1071.5,963.5C 1072.33,732 1072.83,500.334 1073,268.5C 1073.33,499.833 1073.67,731.167 1074,962.5C 1074.33,961.5 1074.67,960.5 1075,959.5C 1077.32,962.649 1080.15,965.316 1083.5,967.5C 1084.09,967.291 1084.59,966.957 1085,966.5C 1085.5,963.854 1085.66,961.187 1085.5,958.5C 1085.67,771.5 1085.5,584.5 1085,397.5C 1084.67,397.167 1084.33,396.833 1084,396.5C 1083.5,402.157 1083.33,407.824 1083.5,413.5C 1077.68,413.317 1077.18,414.65 1082,417.5C 1083.08,420.063 1083.58,422.729 1083.5,425.5C 1082.5,425.5 1081.5,425.5 1080.5,425.5C 1080.33,428.845 1081.66,430.012 1084.5,429C 1083.58,431.041 1083.24,433.208 1083.5,435.5C 1080.5,435.833 1078.83,437.5 1078.5,440.5C 1077.32,440.719 1076.32,440.386 1075.5,439.5C 1075.64,430.53 1075.64,421.53 1075.5,412.5C 1076.85,408.625 1078.01,408.625 1079,412.5C 1079.17,411.833 1079.33,411.167 1079.5,410.5C 1078.39,407.888 1077.06,405.388 1075.5,403C 1075.65,386.693 1075.99,370.193 1076.5,353.5C 1077.87,353.657 1079.21,353.49 1080.5,353C 1079.31,351.647 1077.98,350.48 1076.5,349.5C 1078.6,347.849 1079.93,345.682 1080.5,343C 1080.17,342.5 1079.83,342 1079.5,341.5C 1078.83,342.833 1078.17,344.167 1077.5,345.5C 1076.17,341.5 1076.17,337.5 1077.5,333.5C 1078.28,334.729 1078.78,336.062 1079,337.5C 1080.62,336.464 1080.78,335.297 1079.5,334C 1081.92,333.085 1083.25,333.918 1083.5,336.5C 1082.61,338.938 1082.61,341.438 1083.5,344C 1083.39,346.255 1082.39,347.922 1080.5,349C 1081.03,349.692 1081.69,350.192 1082.5,350.5C 1083.61,362.461 1083.61,374.294 1082.5,386C 1083.2,389.128 1083.7,392.294 1084,395.5C 1084.33,395.167 1084.67,394.833 1085,394.5C 1085.5,355.168 1085.67,315.835 1085.5,276.5C 1085.19,273.287 1085.52,270.287 1086.5,267.5 Z"/></g>
<g><path style="opacity:1" fill="#111110" d="M 1085.5,276.5 C 1085.67,315.835 1085.5,355.168 1085,394.5C 1084.67,394.833 1084.33,395.167 1084,395.5C 1083.7,392.294 1083.2,389.128 1082.5,386C 1083.61,374.294 1083.61,362.461 1082.5,350.5C 1081.69,350.192 1081.03,349.692 1080.5,349C 1082.39,347.922 1083.39,346.255 1083.5,344C 1082.61,341.438 1082.61,338.938 1083.5,336.5C 1083.25,333.918 1081.92,333.085 1079.5,334C 1080.78,335.297 1080.62,336.464 1079,337.5C 1078.78,336.062 1078.28,334.729 1077.5,333.5C 1076.17,337.5 1076.17,341.5 1077.5,345.5C 1078.17,344.167 1078.83,342.833 1079.5,341.5C 1079.83,342 1080.17,342.5 1080.5,343C 1079.93,345.682 1078.6,347.849 1076.5,349.5C 1077.98,350.48 1079.31,351.647 1080.5,353C 1079.21,353.49 1077.87,353.657 1076.5,353.5C 1075.99,370.193 1075.65,386.693 1075.5,403C 1077.06,405.388 1078.39,407.888 1079.5,410.5C 1079.33,411.167 1079.17,411.833 1079,412.5C 1078.01,408.625 1076.85,408.625 1075.5,412.5C 1075.64,421.53 1075.64,430.53 1075.5,439.5C 1076.32,440.386 1077.32,440.719 1078.5,440.5C 1078.83,437.5 1080.5,435.833 1083.5,435.5C 1083.24,433.208 1083.58,431.041 1084.5,429C 1081.66,430.012 1080.33,428.845 1080.5,425.5C 1081.5,425.5 1082.5,425.5 1083.5,425.5C 1083.58,422.729 1083.08,420.063 1082,417.5C 1077.18,414.65 1077.68,413.317 1083.5,413.5C 1083.33,407.824 1083.5,402.157 1084,396.5C 1084.33,396.833 1084.67,397.167 1085,397.5C 1085.5,584.5 1085.67,771.5 1085.5,958.5C 1083.5,958.167 1081.5,957.833 1079.5,957.5C 1079.51,955.692 1079.01,954.025 1078,952.5C 1077,951.167 1076,951.167 1075,952.5C 1074.33,912.5 1074.33,872.5 1075,832.5C 1075.19,842.88 1075.69,853.213 1076.5,863.5C 1077.96,864.471 1079.3,864.138 1080.5,862.5C 1078.34,859.065 1078.01,855.399 1079.5,851.5C 1080.24,853.108 1080.41,854.775 1080,856.5C 1080.67,857.833 1081.33,857.833 1082,856.5C 1083.09,852.564 1083.92,848.564 1084.5,844.5C 1084.55,754.733 1084.21,665.4 1083.5,576.5C 1082.5,576.5 1081.5,576.5 1080.5,576.5C 1080.6,573.91 1079.94,571.577 1078.5,569.5C 1078.83,568.833 1079.17,568.167 1079.5,567.5C 1080.51,567.938 1080.51,568.604 1079.5,569.5C 1080.32,570.386 1081.32,570.719 1082.5,570.5C 1082.38,568.516 1083.05,566.85 1084.5,565.5C 1083.98,549.282 1083.98,533.282 1084.5,517.5C 1083.79,514.352 1083.12,511.186 1082.5,508C 1083.36,502.702 1084.03,497.368 1084.5,492C 1083.24,480.136 1083.24,468.303 1084.5,456.5C 1083.74,452.889 1083.24,449.222 1083,445.5C 1081.32,446.061 1079.99,447.061 1079,448.5C 1078.53,446.754 1077.86,445.087 1077,443.5C 1076.5,444.5 1076,445.5 1075.5,446.5C 1075.5,483.504 1075.5,520.338 1075.5,557C 1075.99,564.183 1076.66,571.349 1077.5,578.5C 1078.09,578.291 1078.59,577.957 1079,577.5C 1079.49,578.793 1079.66,580.127 1079.5,581.5C 1078.02,581.238 1076.69,581.571 1075.5,582.5C 1075.51,587.974 1075.84,593.474 1076.5,599C 1075.69,612.467 1075.19,625.967 1075,639.5C 1074.33,521.5 1074.33,403.5 1075,285.5C 1076.07,286.191 1077.23,286.691 1078.5,287C 1076.19,289.152 1076.52,291.152 1079.5,293C 1080.82,292.852 1081.99,293.018 1083,293.5C 1085.26,290.714 1084.76,290.048 1081.5,291.5C 1081.17,290.833 1080.83,290.167 1080.5,289.5C 1082.78,285.314 1084.45,280.981 1085.5,276.5 Z"/></g>
<g><path style="opacity:1" fill="#dfdfdf" d="M 720.5,981.5 C 832.145,982.492 943.812,982.825 1055.5,982.5C 945.001,983.499 834.335,983.833 723.5,983.5C 722.5,982.833 721.5,982.167 720.5,981.5 Z"/></g>
<g><path style="opacity:1" fill="#e9e9e9" d="M 725.5,998.5 C 834.833,998.5 944.167,998.5 1053.5,998.5C 1054.95,999.302 1056.62,999.802 1058.5,1000C 1057.83,1000.67 1057.17,1001.33 1056.5,1002C 945.167,1002.67 833.833,1002.67 722.5,1002C 721.833,1001.33 721.167,1000.67 720.5,1000C 722.382,999.802 724.048,999.302 725.5,998.5 Z"/></g>
</svg>
